<?xml version="1.0"?>
<!DOCTYPE svg PUBLIC "-//W3C//DTD SVG 1.1//EN" "http://www.w3.org/Graphics/SVG/1.1/DTD/svg11.dtd">
<svg width="203.9999999999999mm" height="64.0mm" viewBox="0 0 203.9999999999999 64.0" xmlns="http://www.w3.org/2000/svg" version="1.1">
<g id="Shape2DView" transform="translate(102.000000,32.000000) scale(1,-1)">
<path id="Shape2DView_nwe0000"  d="M -99.99999999999997 -20.000000000003748 L -99.99999999999997 20.000000000002462 " stroke="#191919" stroke-width="0.35 px" style="stroke-width:0.35;stroke-miterlimit:4;stroke-dasharray:none;fill:none;fill-rule: evenodd "/>
<path id="Shape2DView_nwe0001"  d="M -89.99999999999991 29.999999999998924 M -89.99999999999991 29.999999999998924 L -90.10004905225613 29.999499496830886 L -90.20008808953881 29.99799803742745 L -90.30010709787696 29.99549577208566 L -90.40009606530445 29.99199295128386 L -90.50004498286232 29.98748992565663 L -90.59994384560056 29.98198714595969 L -90.69978265357973 29.97548516302477 L -90.79955141287189 29.96798462770449 L -90.899240136561 29.95948629080718 L -90.9988388457427 29.94999100302175 L -91.09833757052306 29.93949971483253 L -91.1977263510167 29.928013476424105 L -91.29699523834371 29.915533437576226 L -91.39613429562557 29.902060847548682 L -91.49513359897985 29.88759705495628 L -91.59398323851353 29.872143507633815 L -91.69267331931508 29.855701752491164 L -91.79119396244488 29.838273435358442 L -91.88953530592411 29.819860300821233 L -91.98768750572201 29.800464192045972 L -92.08564073674115 29.780087050595434 L -92.18338519380109 29.758730916234388 L -92.2809110926197 29.736397926725424 L -92.37820867079276 29.71309031761493 L -92.475268188771 29.688810422009357 L -92.5720799308352 29.66356067034163 L -92.66863420606863 29.637343590127898 L -92.76492134932717 29.610161805714498 L -92.86093172220677 29.582018038015267 L -92.95665571400826 29.552915104239194 L -93.05208374269942 29.522855917608382 L -93.14720625587412 29.491843487066458 L -93.24201373170851 29.459880916977376 L -93.33649667991418 29.426971406814644 L -93.43064564268816 29.39311825084109 L -93.52445119565964 29.358324837779072 L -93.6179039488333 29.322594650471288 L -93.71099454752935 29.285931265532117 L -93.80371367331988 29.24833835298963 L -93.89605204496165 29.20981967591819 L -93.98800041932515 29.170379090061772 L -94.07954959231984 29.130020543448016 L -94.1706903998155 29.08874807599301 L -94.26141371855957 29.04656581909689 L -94.35171046709034 29.00347799523031 L -94.44157160664608 28.959488917511727 L -94.53098814206977 28.9146029892757 L -94.61995112270958 28.868824703632082 L -94.70845164331477 28.822158643016277 L -94.79648084492715 28.77460947873051 L -94.88402991576787 28.72618197047627 L -94.97109009211945 28.6768809658778 L -95.05765265920309 28.62671139999691 L -95.14370895205097 28.575678294838927 L -95.22925035637367 28.52378675885001 L -95.31426830942239 28.471041986405798 L -95.39875430084618 28.417449257291423 L -95.48269987354377 28.363013936173036 L -95.56609662451012 28.307741472060762 L -95.64893620567764 28.251637397763286 L -95.73121032475177 28.194707329333994 L -95.81291074604104 28.1369569655088 L -95.89402929128153 28.078392087135725 L -95.97455784045546 28.019018556596187 L -96.05448833260404 27.958842317218224 L -96.13381276663435 27.89786939268152 L -96.21252320212028 27.83610588641446 L -96.29061176009739 27.77355798098315 L -96.36807062385152 27.710231937472557 L -96.44489203970134 27.646134094859757 L -96.52106831777446 27.581270869379413 L -96.59659183277716 27.51564875388149 L -96.67145502475776 27.449274317181327 L -96.7456503998633 27.3821542034021 L -96.81917053108971 27.314295131309716 L -96.89200805902527 27.245703893640297 L -96.9641556925873 27.176387356420186 L -97.03560620975195 27.106352458278682 L -97.1063524582772 27.035606209753468 L -97.17638735641872 26.96415569258884 L -97.24570389363886 26.892008059026836 L -97.3142951313083 26.819170531091295 L -97.38215420340072 26.74565039986491 L -97.44927431717997 26.671455024759403 L -97.51564875388016 26.596591832778834 L -97.5812708693781 26.521068317776148 L -97.64613409485848 26.444892039703053 L -97.7102319374713 26.36807062385325 L -97.77355798098192 26.29061176009914 L -97.83610588641326 26.21252320212206 L -97.89786939268035 26.133812766636147 L -97.95884231721709 26.054488332605857 L -98.01901855659507 25.974557840457305 L -98.07839208713463 25.894029291283395 L -98.13695696550775 25.812910746042927 L -98.19470732933297 25.73121032475367 L -98.2516373977623 25.648936205679565 L -98.30774147205979 25.566096624512063 L -98.3630139361721 25.482699873545727 L -98.41744925729051 25.398754300848168 L -98.47104198640491 25.314268309424396 L -98.52378675884916 25.229250356375687 L -98.5756782948381 25.14370895205301 L -98.62671139999613 25.057652659205147 L -98.67688096587705 24.971090092121518 L -98.72618197047554 24.88402991576995 L -98.77460947872981 24.796480844929256 L -98.82215864301561 24.708451643316895 L -98.86882470363145 24.619951122711726 L -98.9146029892751 24.530988142071937 L -98.95948891751115 24.441571606648257 L -99.00347799522977 24.35171046709253 L -99.04656581909639 24.261413718561776 L -99.08874807599254 24.170690399817722 L -99.13002054344757 24.07954959232207 L -99.17037909006136 23.988000419327392 L -99.20981967591781 23.89605204496391 L -99.2483383529893 23.803713673322157 L -99.28593126553181 23.710994547531637 L -99.322594650471 23.617903948835597 L -99.35832483777884 23.524451195661946 L -99.39311825084089 23.43064564269049 L -99.42697140681446 23.336496679916515 L -99.45988091697723 23.242013731710852 L -99.49184348706635 23.14720625587648 L -99.5228559176083 23.0520837427018 L -99.55291510423915 22.956655714010648 L -99.58201803801526 22.860931722209163 L -99.61016180571453 22.764921349329576 L -99.63734359012795 22.668634206071047 L -99.66356067034172 22.57207993083762 L -99.68881042200948 22.475268188773427 L -99.7130903176151 22.378208670795193 L -99.73639792672562 22.280911092622155 L -99.75873091623461 22.183385193803545 L -99.7800870505957 22.085640736743624 L -99.80046419204626 21.98768750572448 L -99.81986030082157 21.88953530592659 L -99.83827343535881 21.79119396244736 L -99.85570175249157 21.692673319317567 L -99.87214350763425 21.593983238516024 L -99.88759705495676 21.495133598982346 L -99.9020608475492 21.39613429562808 L -99.91553343757677 21.29699523834622 L -99.9280134764247 21.197726351019217 L -99.93949971483315 21.098337570525587 L -99.9499910030224 20.998838845745226 L -99.95948629080786 20.899240136563538 L -99.9679846277052 20.79955141287441 L -99.97548516302552 20.699782653582258 L -99.98198714596049 20.599943845603093 L -99.98748992565746 20.500044982864853 L -99.99199295128471 20.400096065307 L -99.99549577208656 20.3001070978795 L -99.99799803742839 20.200088089541357 L -99.99949949683186 20.100049052258665 L -99.99999999999993 20.000000000002455 " stroke="#191919" stroke-width="0.35 px" style="stroke-width:0.35;stroke-miterlimit:4;stroke-dasharray:none;fill:none;fill-rule: evenodd "/>
<path id="Shape2DView_nwe0002"  d="M -89.99999999999991 29.99999999999892 L 89.9999999999998 29.99999999999892 " stroke="#191919" stroke-width="0.35 px" style="stroke-width:0.35;stroke-miterlimit:4;stroke-dasharray:none;fill:none;fill-rule: evenodd "/>
<path id="Shape2DView_nwe0003"  d="M 99.99999999999982 20.00000000000107 M 99.99999999999982 20.00000000000107 L 99.99949949683176 20.10004905225729 L 99.9979980374283 20.200088089539985 L 99.99549577208649 20.30010709787814 L 99.99199295128466 20.40009606530565 L 99.98748992565741 20.500044982863518 L 99.98198714596045 20.599943845601764 L 99.97548516302551 20.69978265358094 L 99.9679846277052 20.799551412873104 L 99.95948629080787 20.899240136562238 L 99.94999100302242 20.998838845743936 L 99.93949971483318 21.098337570524304 L 99.92801347642472 21.197726351017945 L 99.91553343757683 21.29699523834496 L 99.90206084754925 21.39613429562683 L 99.88759705495683 21.49513359898111 L 99.87214350763433 21.5939832385148 L 99.85570175249167 21.692673319316352 L 99.83827343535891 21.79119396244615 L 99.81986030082169 21.889535305925396 L 99.80046419204639 21.98768750572329 L 99.78008705059582 22.08564073674245 L 99.75873091623477 22.183385193802383 L 99.73639792672577 22.280911092621004 L 99.71309031761525 22.378208670794052 L 99.68881042200965 22.4752681887723 L 99.66356067034191 22.572079930836505 L 99.63734359012815 22.668634206069942 L 99.61016180571472 22.764921349328482 L 99.58201803801546 22.860931722208083 L 99.55291510423936 22.956655714009578 L 99.52285591760852 23.052083742700738 L 99.49184348706657 23.147206255875435 L 99.45988091697747 23.242013731709818 L 99.42697140681472 23.336496679915495 L 99.39311825084113 23.43064564268948 L 99.3583248377791 23.52445119566095 L 99.32259465047127 23.617903948834613 L 99.28593126553208 23.710994547530664 L 99.24833835298956 23.80371367332119 L 99.2098196759181 23.896052044962957 L 99.17037909006166 23.988000419326454 L 99.13002054344787 24.079549592321143 L 99.08874807599284 24.170690399816813 L 99.0465658190967 24.261413718560874 L 99.00347799523009 24.351710467091642 L 98.95948891751148 24.441571606647376 L 98.91460298927542 24.53098814207107 L 98.86882470363177 24.619951122710873 L 98.82215864301594 24.708451643316053 L 98.77460947873016 24.79648084492843 L 98.72618197047588 24.884029915769137 L 98.67688096587739 24.97109009212072 L 98.62671139999647 25.05765265920435 L 98.57567829483845 25.143708952052236 L 98.52378675884951 25.22925035637492 L 98.47104198640527 25.31426830942364 L 98.41744925729087 25.398754300847422 L 98.36301393617245 25.482699873544995 L 98.30774147206016 25.56609662451135 L 98.25163739776265 25.648936205678865 L 98.19470732933334 25.73121032475298 L 98.13695696550812 25.812910746042245 L 98.078392087135 25.894029291282727 L 98.01901855659546 25.974557840456647 L 97.95884231721746 26.054488332605214 L 97.89786939268073 26.133812766635515 L 97.83610588641363 26.21252320212144 L 97.7735579809823 26.29061176009853 L 97.71023193747168 26.368070623852653 L 97.64613409485885 26.444892039702466 L 97.58127086937849 26.521068317775573 L 97.51564875388053 26.596591832778273 L 97.44927431718034 26.671455024758856 L 97.38215420340109 26.745650399864374 L 97.31429513130868 26.81917053109077 L 97.24570389363923 26.892008059026317 L 97.1763873564191 26.96415569258833 L 97.10635245827757 27.035606209752974 L 97.03560620975232 27.106352458278202 L 96.96415569258767 27.176387356419713 L 96.89200805902564 27.245703893639835 L 96.81917053109007 27.314295131309265 L 96.74565039986366 27.382154203401658 L 96.67145502475813 27.4492743171809 L 96.59659183277753 27.51564875388107 L 96.52106831777482 27.581270869379004 L 96.4448920397017 27.64613409485936 L 96.36807062385186 27.71023193747217 L 96.29061176009773 27.773557980982773 L 96.21252320212062 27.836105886414096 L 96.13381276663469 27.897869392681166 L 96.05448833260438 27.95884231721788 L 95.9745578404558 28.019018556595853 L 95.89402929128187 28.078392087135395 L 95.81291074604137 28.13695696550848 L 95.73121032475208 28.19470732933369 L 95.64893620567796 28.25163739776299 L 95.56609662451044 28.307741472060474 L 95.48269987354408 28.363013936172756 L 95.39875430084649 28.417449257291153 L 95.31426830942269 28.47104198640553 L 95.22925035637397 28.523786758849756 L 95.14370895205127 28.57567829483868 L 95.05765265920337 28.626711399996672 L 94.97109009211972 28.676880965877572 L 94.88402991576814 28.72618197047605 L 94.79648084492742 28.7746094787303 L 94.70845164331503 28.822158643016074 L 94.61995112270984 28.868824703631887 L 94.53098814207003 28.91460298927551 L 94.44157160664632 28.959488917511543 L 94.35171046709058 29.003477995230135 L 94.26141371855981 29.046565819096724 L 94.17069039981573 29.088748075992847 L 94.07954959232006 29.130020543447863 L 93.98800041932536 29.170379090061626 L 93.89605204496185 29.209819675918048 L 93.80371367332008 29.2483383529895 L 93.71099454752954 29.285931265531993 L 93.61790394883349 29.322594650471167 L 93.52445119565981 29.35832483777896 L 93.43064564268833 29.393118250840985 L 93.33649667991435 29.426971406814545 L 93.24201373170865 29.459880916977276 L 93.14720625587427 29.49184348706637 L 93.05208374269957 29.522855917608297 L 92.95665571400839 29.552915104239112 L 92.8609317222069 29.582018038015192 L 92.7649213493273 29.610161805714426 L 92.66863420606875 29.637343590127834 L 92.5720799308353 29.663560670341575 L 92.4752681887711 29.6888104220093 L 92.37820867079283 29.713090317614878 L 92.28091109261979 29.736397926725374 L 92.18338519380116 29.75873091623434 L 92.08564073674123 29.78008705059539 L 91.98768750572205 29.800464192045933 L 91.88953530592416 29.819860300821198 L 91.79119396244491 29.83827343535841 L 91.6926733193151 29.855701752491136 L 91.59398323851354 29.872143507633787 L 91.49513359897985 29.887597054956256 L 91.39613429562557 29.902060847548665 L 91.2969952383437 29.915533437576208 L 91.19772635101668 29.92801347642409 L 91.09833757052304 29.939499714832515 L 90.99883884574267 29.949991003021744 L 90.89924013656096 29.95948629080717 L 90.79955141287184 29.96798462770448 L 90.69978265357967 29.975485163024764 L 90.59994384560049 29.981987145959682 L 90.50004498286224 29.987489925656625 L 90.40009606530437 29.991992951283855 L 90.30010709787686 29.995495772085654 L 90.20008808953871 29.997998037427447 L 90.10004905225601 29.99949949683088 L 89.99999999999979 29.99999999999892 " stroke="#191919" stroke-width="0.35 px" style="stroke-width:0.35;stroke-miterlimit:4;stroke-dasharray:none;fill:none;fill-rule: evenodd "/>
<path id="Shape2DView_nwe0004"  d="M 99.99999999999982 20.000000000001073 L 99.9999999999999 -20.000000000001073 " stroke="#191919" stroke-width="0.35 px" style="stroke-width:0.35;stroke-miterlimit:4;stroke-dasharray:none;fill:none;fill-rule: evenodd "/>
<path id="Shape2DView_nwe0005"  d="M 89.99999999999989 -30.000000000001073 M 89.99999999999989 -30.000000000001073 L 90.10004905225613 -29.99949949683303 L 90.20008808953882 -29.9979980374296 L 90.300107097877 -29.995495772087807 L 90.40009606530452 -29.991992951286004 L 90.5000449828624 -29.98748992565877 L 90.59994384560068 -29.981987145961828 L 90.69978265357986 -29.97548516302691 L 90.79955141287203 -29.967984627706624 L 90.89924013656119 -29.95948629080931 L 90.9988388457429 -29.94999100302388 L 91.09833757052328 -29.939499714834653 L 91.19772635101694 -29.928013476426223 L 91.29699523834397 -29.91553343757834 L 91.39613429562586 -29.90206084755079 L 91.49513359898016 -29.887597054958377 L 91.59398323851386 -29.872143507635904 L 91.69267331931543 -29.855701752493246 L 91.79119396244525 -29.83827343536052 L 91.88953530592451 -29.8198603008233 L 91.98768750572242 -29.800464192048025 L 92.0856407367416 -29.78008705059748 L 92.18338519380154 -29.75873091623643 L 92.28091109262019 -29.73639792672745 L 92.37820867079324 -29.713090317616953 L 92.47526818877152 -29.688810422011365 L 92.57207993083574 -29.663560670343628 L 92.66863420606919 -29.637343590129888 L 92.76492134932775 -29.610161805716473 L 92.86093172220737 -29.58201803801723 L 92.95665571400889 -29.55291510424114 L 93.05208374270006 -29.522855917610315 L 93.14720625587478 -29.49184348706838 L 93.24201373170918 -29.45988091697928 L 93.33649667991487 -29.426971406816538 L 93.43064564268887 -29.39311825084297 L 93.52445119566036 -29.358324837780934 L 93.61790394883405 -29.322594650473132 L 93.71099454753012 -29.28593126553395 L 93.80371367332067 -29.248338352991443 L 93.89605204496245 -29.209819675919988 L 93.98800041932596 -29.170379090063552 L 94.07954959232067 -29.13002054344978 L 94.17069039981635 -29.088748075994754 L 94.26141371856043 -29.046565819098618 L 94.35171046709124 -29.003477995232014 L 94.44157160664697 -28.959488917513415 L 94.5309881420707 -28.91460298927737 L 94.61995112271052 -28.86882470363373 L 94.70845164331571 -28.822158643017907 L 94.79648084492811 -28.774609478732124 L 94.88402991576883 -28.72618197047786 L 94.97109009212043 -28.67688096587937 L 95.0576526592041 -28.626711399998456 L 95.14370895205198 -28.57567829484045 L 95.22925035637469 -28.523786758851514 L 95.31426830942344 -28.471041986407272 L 95.39875430084723 -28.41744925729288 L 95.48269987354483 -28.363013936174468 L 95.5660966245112 -28.30774147206217 L 95.64893620567874 -28.251637397764675 L 95.73121032475287 -28.194707329335355 L 95.81291074604215 -28.136956965510144 L 95.89402929128265 -28.078392087137036 L 95.9745578404566 -28.019018556597473 L 96.05448833260517 -27.958842317219492 L 96.13381276663549 -27.89786939268276 L 96.21252320212145 -27.836105886415673 L 96.29061176009854 -27.77355798098434 L 96.36807062385269 -27.710231937473715 L 96.44489203970252 -27.64613409486089 L 96.52106831777564 -27.58127086938052 L 96.59659183277836 -27.51564875388257 L 96.67145502475896 -27.449274317182383 L 96.7456503998645 -27.382154203403125 L 96.81917053109092 -27.31429513131071 L 96.89200805902648 -27.24570389364127 L 96.96415569258852 -27.176387356421127 L 97.03560620975317 -27.106352458279595 L 97.10635245827841 -27.035606209754356 L 97.17638735641995 -26.964155692589692 L 97.24570389364008 -26.89200805902766 L 97.31429513130954 -26.819170531092098 L 97.38215420340194 -26.74565039986568 L 97.44927431718119 -26.67145502476015 L 97.5156487538814 -26.596591832779545 L 97.58127086937934 -26.52106831777683 L 97.6461340948597 -26.44489203970371 L 97.71023193747254 -26.368070623853875 L 97.77355798098316 -26.29061176009973 L 97.83610588641449 -26.212523202122625 L 97.89786939268159 -26.133812766636677 L 97.95884231721831 -26.054488332606354 L 98.0190185565963 -25.974557840457777 L 98.07839208713585 -25.894029291283836 L 98.13695696550896 -25.81291074604334 L 98.19470732933418 -25.731210324754052 L 98.25163739776349 -25.648936205679913 L 98.307741472061 -25.566096624512383 L 98.36301393617329 -25.482699873546014 L 98.41744925729171 -25.398754300848417 L 98.47104198640609 -25.31426830942462 L 98.52378675885033 -25.22925035637588 L 98.57567829483926 -25.14370895205317 L 98.62671139999728 -25.057652659205274 L 98.67688096587818 -24.971090092121617 L 98.72618197047667 -24.884029915770025 L 98.77460947873094 -24.796480844929295 L 98.82215864301673 -24.7084516433169 L 98.86882470363255 -24.619951122711704 L 98.91460298927619 -24.530988142071877 L 98.95948891751223 -24.44157160664817 L 99.00347799523084 -24.351710467092413 L 99.04656581909744 -24.261413718561624 L 99.08874807599358 -24.17069039981754 L 99.13002054344861 -24.07954959232186 L 99.17037909006237 -23.988000419327147 L 99.20981967591881 -23.89605204496364 L 99.24833835299026 -23.80371367332185 L 99.28593126553277 -23.7109945475313 L 99.32259465047196 -23.617903948835227 L 99.35832483777976 -23.524451195661552 L 99.3931182508418 -23.43064564269006 L 99.42697140681535 -23.336496679916063 L 99.45988091697811 -23.242013731710365 L 99.4918434870672 -23.147206255875957 L 99.52285591760914 -23.05208374270125 L 99.55291510423996 -22.95665571401007 L 99.58201803801606 -22.86093172220856 L 99.6101618057153 -22.76492134932894 L 99.63734359012871 -22.66863420607038 L 99.66356067034246 -22.57207993083692 L 99.68881042201019 -22.475268188772706 L 99.71309031761578 -22.378208670794436 L 99.73639792672628 -22.280911092621373 L 99.75873091623525 -22.18338519380273 L 99.78008705059631 -22.08564073674278 L 99.80046419204686 -21.98768750572361 L 99.81986030082213 -21.88953530592569 L 99.83827343535934 -21.79119396244644 L 99.85570175249208 -21.69267331931662 L 99.87214350763473 -21.593983238515044 L 99.88759705495721 -21.495133598981333 L 99.90206084754962 -21.396134295627046 L 99.91553343757717 -21.296995238345158 L 99.92801347642505 -21.19772635101813 L 99.93949971483347 -21.09833757052447 L 99.9499910030227 -20.998838845744086 L 99.95948629080814 -20.899240136562376 L 99.96798462770545 -20.799551412873225 L 99.97548516302574 -20.699782653581053 L 99.98198714596066 -20.599943845601857 L 99.9874899256576 -20.50004498286359 L 99.99199295128483 -20.400096065305707 L 99.99549577208663 -20.30010709787819 L 99.99799803742843 -20.200088089540017 L 99.99949949683186 -20.10004905225731 L 99.9999999999999 -20.000000000001076 " stroke="#191919" stroke-width="0.35 px" style="stroke-width:0.35;stroke-miterlimit:4;stroke-dasharray:none;fill:none;fill-rule: evenodd "/>
<path id="Shape2DView_nwe0006"  d="M 89.99999999999989 -30.000000000001073 L -89.99999999999991 -30.000000000001073 " stroke="#191919" stroke-width="0.35 px" style="stroke-width:0.35;stroke-miterlimit:4;stroke-dasharray:none;fill:none;fill-rule: evenodd "/>
<path id="Shape2DView_nwe0007"  d="M -99.99999999999997 -20.000000000003748 M -99.99999999999997 -20.000000000003748 L -99.9994994968319 -20.100049052259962 L -99.99799803742845 -20.200088089542657 L -99.99549577208663 -20.300107097880808 L -99.9919929512848 -20.400096065308315 L -99.98748992565754 -20.500044982866175 L -99.98198714596057 -20.59994384560442 L -99.97548516302562 -20.699782653583593 L -99.96798462770532 -20.799551412875758 L -99.95948629080797 -20.899240136564885 L -99.94999100302252 -20.99883884574658 L -99.93949971483327 -21.09833757052694 L -99.92801347642482 -21.19772635102058 L -99.91553343757691 -21.29699523834759 L -99.90206084754934 -21.39613429562946 L -99.88759705495691 -21.495133598983735 L -99.87214350763442 -21.593983238517417 L -99.85570175249174 -21.692673319318967 L -99.83827343535899 -21.791193962448766 L -99.81986030082174 -21.889535305928003 L -99.80046419204646 -21.987687505725898 L -99.7800870505959 -22.08564073674505 L -99.75873091623482 -22.18338519380498 L -99.73639792672583 -22.280911092623597 L -99.7130903176153 -22.378208670796642 L -99.68881042200971 -22.475268188774884 L -99.66356067034195 -22.572079930839088 L -99.63734359012818 -22.668634206072518 L -99.61016180571475 -22.764921349331058 L -99.58201803801549 -22.860931722210648 L -99.55291510423939 -22.95665571401214 L -99.52285591760855 -23.0520837427033 L -99.4918434870666 -23.14720625587799 L -99.45988091697748 -23.24201373171237 L -99.42697140681473 -23.336496679918042 L -99.39311825084114 -23.43064564269202 L -99.3583248377791 -23.524451195663488 L -99.32259465047129 -23.617903948837142 L -99.28593126553208 -23.71099454753319 L -99.24833835298956 -23.803713673323713 L -99.2098196759181 -23.896052044965476 L -99.17037909006166 -23.988000419328966 L -99.13002054344787 -24.079549592323655 L -99.08874807599283 -24.170690399819314 L -99.04656581909668 -24.261413718563375 L -99.00347799523007 -24.351710467094136 L -98.95948891751146 -24.441571606649866 L -98.91460298927541 -24.530988142073554 L -98.86882470363176 -24.619951122713356 L -98.82215864301592 -24.708451643318533 L -98.77460947873013 -24.7964808449309 L -98.72618197047586 -24.884029915771603 L -98.67688096587736 -24.97109009212318 L -98.62671139999644 -25.05765265920681 L -98.57567829483843 -25.143708952054688 L -98.52378675884948 -25.229250356377367 L -98.47104198640524 -25.314268309426083 L -98.41744925729084 -25.39875430084986 L -98.36301393617242 -25.482699873547432 L -98.30774147206012 -25.566096624513783 L -98.25163739776262 -25.648936205681288 L -98.1947073293333 -25.7312103247554 L -98.13695696550808 -25.812910746044665 L -98.07839208713497 -25.894029291285143 L -98.0190185565954 -25.974557840459056 L -97.95884231721742 -26.054488332607615 L -97.89786939268069 -26.13381276663791 L -97.83610588641359 -26.212523202123833 L -97.77355798098226 -26.29061176010092 L -97.71023193747163 -26.368070623855036 L -97.64613409485881 -26.444892039704847 L -97.58127086937844 -26.52106831777795 L -97.51564875388048 -26.596591832780646 L -97.4492743171803 -26.671455024761222 L -97.38215420340104 -26.745650399866737 L -97.31429513130863 -26.819170531093125 L -97.24570389363919 -26.892008059028676 L -97.17638735641906 -26.96415569259068 L -97.10635245827751 -27.03560620975532 L -97.03560620975227 -27.10635245828054 L -96.96415569258762 -27.176387356422055 L -96.8920080590256 -27.245703893642165 L -96.81917053109002 -27.314295131311596 L -96.74565039986362 -27.382154203403985 L -96.67145502475809 -27.44927431718322 L -96.59659183277749 -27.515648753883386 L -96.52106831777478 -27.581270869381317 L -96.44489203970166 -27.646134094861672 L -96.36807062385184 -27.71023193747447 L -96.29061176009769 -27.773557980985075 L -96.2125232021206 -27.83610588641639 L -96.13381276663465 -27.89786939268346 L -96.05448833260434 -27.958842317220167 L -95.97455784045576 -28.019018556598134 L -95.89402929128183 -28.07839208713768 L -95.81291074604134 -28.13695696551076 L -95.73121032475206 -28.194707329335955 L -95.64893620567793 -28.251637397765258 L -95.56609662451041 -28.30774147206274 L -95.48269987354404 -28.36301393617502 L -95.39875430084646 -28.417449257293413 L -95.31426830942267 -28.47104198640779 L -95.22925035637394 -28.52378675885201 L -95.14370895205124 -28.575678294840927 L -95.05765265920336 -28.626711399998918 L -94.97109009211971 -28.676880965879814 L -94.88402991576811 -28.726181970478287 L -94.7964808449274 -28.77460947873254 L -94.70845164331502 -28.822158643018305 L -94.61995112270984 -28.868824703634118 L -94.53098814207002 -28.91460298927774 L -94.44157160664632 -28.959488917513767 L -94.35171046709058 -29.003477995232352 L -94.2614137185598 -29.046565819098944 L -94.17069039981573 -29.088748075995063 L -94.07954959232005 -29.13002054345008 L -93.98800041932536 -29.170379090063832 L -93.89605204496186 -29.209819675920254 L -93.80371367332009 -29.248338352991702 L -93.71099454752955 -29.285931265534195 L -93.6179039488335 -29.322594650473363 L -93.52445119565982 -29.358324837781154 L -93.43064564268835 -29.393118250843177 L -93.33649667991436 -29.426971406816737 L -93.24201373170868 -29.45988091697947 L -93.1472062558743 -29.491843487068554 L -93.0520837426996 -29.522855917610478 L -92.95665571400843 -29.552915104241293 L -92.86093172220693 -29.582018038017374 L -92.76492134932732 -29.610161805716604 L -92.66863420606877 -29.63734359013001 L -92.57207993083534 -29.663560670343745 L -92.47526818877114 -29.68881042201147 L -92.37820867079289 -29.71309031761705 L -92.28091109261983 -29.73639792672754 L -92.18338519380121 -29.75873091623651 L -92.08564073674128 -29.780087050597555 L -91.98768750572212 -29.800464192048093 L -91.88953530592421 -29.819860300823358 L -91.79119396244496 -29.83827343536057 L -91.69267331931518 -29.855701752493296 L -91.59398323851362 -29.872143507635943 L -91.49513359897992 -29.887597054958412 L -91.39613429562566 -29.902060847550818 L -91.29699523834378 -29.91553343757836 L -91.19772635101677 -29.928013476426244 L -91.09833757052311 -29.939499714834668 L -90.99883884574275 -29.94999100302389 L -90.89924013656106 -29.959486290809316 L -90.79955141287193 -29.967984627706628 L -90.69978265357976 -29.97548516302691 L -90.59994384560059 -29.981987145961828 L -90.50004498286235 -29.987489925658767 L -90.40009606530448 -29.991992951285997 L -90.30010709787697 -29.9954957720878 L -90.20008808953882 -29.99799803742959 L -90.10004905225613 -29.999499496833025 L -89.99999999999991 -30.000000000001062 " stroke="#191919" stroke-width="0.35 px" style="stroke-width:0.35;stroke-miterlimit:4;stroke-dasharray:none;fill:none;fill-rule: evenodd "/>
<path id="Shape2DView_nwe0008"  d="M -15.0 -23.5 L -15.0 -14.499999999999998 " stroke="#191919" stroke-width="0.35 px" style="stroke-width:0.35;stroke-miterlimit:4;stroke-dasharray:none;fill:none;fill-rule: evenodd "/>
<path id="Shape2DView_nwe0009"  d="M 15.0 -23.5 L -15.0 -23.5 " stroke="#191919" stroke-width="0.35 px" style="stroke-width:0.35;stroke-miterlimit:4;stroke-dasharray:none;fill:none;fill-rule: evenodd "/>
<path id="Shape2DView_nwe0010"  d="M 15.0 -14.500000000000002 L 15.0 -23.5 " stroke="#191919" stroke-width="0.35 px" style="stroke-width:0.35;stroke-miterlimit:4;stroke-dasharray:none;fill:none;fill-rule: evenodd "/>
<path id="Shape2DView_nwe0011"  d="M -15.0 -14.499999999999998 L 15.0 -14.500000000000002 " stroke="#191919" stroke-width="0.35 px" style="stroke-width:0.35;stroke-miterlimit:4;stroke-dasharray:none;fill:none;fill-rule: evenodd "/>
<path id="Shape2DView_nwe0012"  d="M -15.0 14.500000000000002 L -15.0 23.5 " stroke="#191919" stroke-width="0.35 px" style="stroke-width:0.35;stroke-miterlimit:4;stroke-dasharray:none;fill:none;fill-rule: evenodd "/>
<path id="Shape2DView_nwe0013"  d="M 15.0 14.500000000000002 L -15.0 14.500000000000002 " stroke="#191919" stroke-width="0.35 px" style="stroke-width:0.35;stroke-miterlimit:4;stroke-dasharray:none;fill:none;fill-rule: evenodd "/>
<path id="Shape2DView_nwe0014"  d="M 15.0 23.5 L 15.0 14.500000000000002 " stroke="#191919" stroke-width="0.35 px" style="stroke-width:0.35;stroke-miterlimit:4;stroke-dasharray:none;fill:none;fill-rule: evenodd "/>
<path id="Shape2DView_nwe0015"  d="M -15.0 23.5 L 15.0 23.5 " stroke="#191919" stroke-width="0.35 px" style="stroke-width:0.35;stroke-miterlimit:4;stroke-dasharray:none;fill:none;fill-rule: evenodd "/>
<title>b'Shape2DView'</title>
</g>
</svg>