<?xml version="1.0" encoding="UTF-8" standalone="no"?>
<!-- Created with Inkscape (http://www.inkscape.org/) -->

<svg
   xmlns:dc="http://purl.org/dc/elements/1.1/"
   xmlns:cc="http://creativecommons.org/ns#"
   xmlns:rdf="http://www.w3.org/1999/02/22-rdf-syntax-ns#"
   xmlns:svg="http://www.w3.org/2000/svg"
   xmlns="http://www.w3.org/2000/svg"
   xmlns:sodipodi="http://sodipodi.sourceforge.net/DTD/sodipodi-0.dtd"
   xmlns:inkscape="http://www.inkscape.org/namespaces/inkscape"
   width="176mm"
   height="232mm"
   viewBox="0 0 176 232"
   version="1.1"
   id="svg8"
   inkscape:version="0.92.5 (2060ec1f9f, 2020-04-08)"
   sodipodi:docname="corte.svg">
  <defs
     id="defs2" />
  <sodipodi:namedview
     id="base"
     pagecolor="#ffffff"
     bordercolor="#666666"
     borderopacity="1.0"
     inkscape:pageopacity="0.0"
     inkscape:pageshadow="2"
     inkscape:zoom="0.9899495"
     inkscape:cx="232.59648"
     inkscape:cy="579.58019"
     inkscape:document-units="mm"
     inkscape:current-layer="layer1"
     showgrid="false"
     inkscape:window-width="1920"
     inkscape:window-height="1043"
     inkscape:window-x="1366"
     inkscape:window-y="0"
     inkscape:window-maximized="1" />
  <metadata
     id="metadata5">
    <rdf:RDF>
      <cc:Work
         rdf:about="">
        <dc:format>image/svg+xml</dc:format>
        <dc:type
           rdf:resource="http://purl.org/dc/dcmitype/StillImage" />
        <dc:title />
      </cc:Work>
    </rdf:RDF>
  </metadata>
  <g
     inkscape:label="Layer 1"
     inkscape:groupmode="layer"
     id="layer1"
     transform="translate(0,-65)">
    <g
       id="Shape2DView"
       transform="matrix(1,0,0,-0.99999998,29,142.87232)">
      <path
         inkscape:connector-curvature="0"
         id="Shape2DView_nwe0000"
         d="m -11,20 m 0,0 -0.100415,-3.6e-4 -0.100411,-0.0011 -0.100399,-0.0018 -0.100385,-0.0025 -0.100363,-0.0032 -0.100338,-0.004 -0.100307,-0.0047 -0.100271,-0.0054 -0.100229,-0.0061 -0.100183,-0.0068 -0.100132,-0.0076 -0.100074,-0.0083 -0.100013,-0.009 -0.09994,-0.0097 -0.09987,-0.01042 -0.0998,-0.01114 -0.09971,-0.01186 -0.09962,-0.01257 -0.09953,-0.01328 -0.09943,-0.014 -0.09933,-0.01471 -0.09922,-0.01542 -0.09911,-0.01614 -0.09899,-0.01685 -0.09887,-0.01756 -0.09874,-0.01826 -0.09861,-0.01897 -0.09847,-0.01968 -0.09833,-0.02038 -0.09818,-0.02109 -0.09802,-0.02179 -0.09786,-0.0225 -0.0977,-0.0232 -0.09753,-0.0239 -0.09736,-0.02459 -0.09718,-0.02529 -0.09699,-0.02599 -0.0968,-0.02669 -0.09661,-0.02738 -0.09641,-0.02807 -0.09621,-0.02876 -0.096,-0.02945 -0.09579,-0.03014 -0.09557,-0.03083 -0.09534,-0.03151 -0.09512,-0.03219 -0.09488,-0.03287 -0.09464,-0.03355 -0.0944,-0.03423 -0.09415,-0.03491 -0.0939,-0.03558 -0.09364,-0.03625 -0.09338,-0.03693 -0.09311,-0.03759 -0.09284,-0.03826 -0.09256,-0.03893 -0.09228,-0.03959 -0.092,-0.04025 -0.0917,-0.04091 -0.09141,-0.04156 -0.09111,-0.04222 -0.0908,-0.04287 -0.09049,-0.04352 -0.09018,-0.04417 -0.08986,-0.04482 -0.08954,-0.04546 -0.08921,-0.0461 -0.08888,-0.04674 -0.08854,-0.04738 -0.0882,-0.04801 -0.08785,-0.04864 -0.0875,-0.04927 -0.08714,-0.0499 -0.08678,-0.05052 -0.08642,-0.05114 -0.08605,-0.05176 -0.08568,-0.05237 -0.0853,-0.05299 -0.08491,-0.0536 -0.08453,-0.05421 -0.08414,-0.05481 -0.08374,-0.05541 -0.08334,-0.05601 -0.08294,-0.05661 -0.08253,-0.0572 -0.08212,-0.05779 -0.0817,-0.05838 -0.08128,-0.05897 -0.08086,-0.05955 -0.08043,-0.06012 -0.07999,-0.0607 -0.07956,-0.06127 -0.07911,-0.06184 -0.07867,-0.06241 -0.07822,-0.06297 -0.07776,-0.06353 -0.07731,-0.06409 -0.07685,-0.06464 -0.07638,-0.06519 -0.07591,-0.06573 -0.07544,-0.06628 -0.07496,-0.06682 -0.07448,-0.06735 -0.07399,-0.06788 -0.07351,-0.06841 -0.07301,-0.06894 -0.07252,-0.06946 -0.07202,-0.06998 -0.07151,-0.07049 -0.071,-0.071 -0.07049,-0.07151 -0.06998,-0.07202 -0.06946,-0.07252 -0.06894,-0.07301 -0.06841,-0.0735 -0.06788,-0.07399 -0.06735,-0.07448 -0.06682,-0.07496 -0.06628,-0.07544 -0.06573,-0.07591 -0.06519,-0.07638 -0.06464,-0.07685 -0.06409,-0.07731 -0.06353,-0.07776 -0.06297,-0.07822 -0.06241,-0.07867 -0.06184,-0.07911 -0.06127,-0.07956 -0.0607,-0.07999 -0.06012,-0.08043 -0.05955,-0.08086 -0.05897,-0.08128 -0.05838,-0.0817 -0.05779,-0.08212 -0.0572,-0.08253 -0.05661,-0.08294 -0.05601,-0.08334 -0.05541,-0.08374 -0.05481,-0.08414 -0.05421,-0.08453 -0.0536,-0.08492 -0.05299,-0.0853 -0.05237,-0.08568 -0.05176,-0.08605 -0.05114,-0.08642 -0.05052,-0.08678 -0.0499,-0.08714 -0.04927,-0.0875 -0.04864,-0.08785 -0.04801,-0.0882 -0.04738,-0.08854 -0.04674,-0.08887 -0.0461,-0.08921 -0.04546,-0.08954 -0.04482,-0.08986 -0.04417,-0.09018 -0.04352,-0.09049 -0.04287,-0.0908 -0.04222,-0.09111 -0.04156,-0.09141 -0.04091,-0.09171 -0.04025,-0.092 -0.03959,-0.09228 -0.03893,-0.09256 -0.03826,-0.09284 -0.03759,-0.09311 -0.03693,-0.09338 -0.03625,-0.09364 -0.03558,-0.0939 -0.03491,-0.09415 -0.03423,-0.0944 -0.03355,-0.09464 -0.03287,-0.09488 -0.03219,-0.09512 -0.03151,-0.09534 -0.03083,-0.09557 -0.03014,-0.09579 -0.02945,-0.096 -0.02876,-0.096209 -0.02807,-0.096413 -0.02738,-0.096612 -0.02669,-0.096806 -0.02599,-0.096994 -0.02529,-0.097178 -0.02459,-0.097357 -0.0239,-0.097531 -0.0232,-0.0977 -0.0225,-0.097864 -0.02179,-0.098023 -0.02109,-0.098176 -0.02038,-0.098325 -0.01968,-0.098469 -0.01897,-0.098607 -0.01826,-0.098741 -0.01756,-0.098869 -0.01685,-0.098993 -0.01614,-0.099111 -0.01542,-0.099224 -0.01471,-0.099333 -0.014,-0.099435 -0.01328,-0.099533 -0.01257,-0.099626 -0.01186,-0.099714 -0.01114,-0.099796 -0.01042,-0.099873 -0.0097,-0.099946 -0.009,-0.1000126 -0.0083,-0.1000746 -0.0076,-0.1001313 -0.0068,-0.100183 -0.0061,-0.1002294 -0.0054,-0.1002708 -0.0047,-0.1003068 -0.004,-0.1003379 -0.0032,-0.1003637 -0.0025,-0.1003843 -0.0018,-0.1003999 -0.0011,-0.1004102 L -25,6"
         style="fill:none;fill-rule:evenodd;stroke:#191919;stroke-width:0.34999999;stroke-miterlimit:4;stroke-dasharray:none" />
      <path
         inkscape:connector-curvature="0"
         id="Shape2DView_nwe0001"
         d="M -25,-141 V 6"
         style="fill:none;fill-rule:evenodd;stroke:#191919;stroke-width:0.34999999;stroke-miterlimit:4;stroke-dasharray:none" />
      <path
         inkscape:connector-curvature="0"
         id="Shape2DView_nwe0002"
         d="m -25,-141 h 10"
         style="fill:none;fill-rule:evenodd;stroke:#191919;stroke-width:0.34999999;stroke-miterlimit:4;stroke-dasharray:none" />
      <path
         inkscape:connector-curvature="0"
         id="Shape2DView_nwe0003"
         d="m -15,-141 v -9"
         style="fill:none;fill-rule:evenodd;stroke:#191919;stroke-width:0.34999999;stroke-miterlimit:4;stroke-dasharray:none" />
      <path
         inkscape:connector-curvature="0"
         id="Shape2DView_nwe0004"
         d="M -15,-150 H 15"
         style="fill:none;fill-rule:evenodd;stroke:#191919;stroke-width:0.34999999;stroke-miterlimit:4;stroke-dasharray:none" />
      <path
         inkscape:connector-curvature="0"
         id="Shape2DView_nwe0005"
         d="m 15,-150 v 9"
         style="fill:none;fill-rule:evenodd;stroke:#191919;stroke-width:0.34999999;stroke-miterlimit:4;stroke-dasharray:none" />
      <path
         inkscape:connector-curvature="0"
         id="Shape2DView_nwe0006"
         d="M 15,-141 H 25"
         style="fill:none;fill-rule:evenodd;stroke:#191919;stroke-width:0.34999999;stroke-miterlimit:4;stroke-dasharray:none" />
      <path
         inkscape:connector-curvature="0"
         id="Shape2DView_nwe0007"
         d="M 25,6 V -141"
         style="fill:none;fill-rule:evenodd;stroke:#191919;stroke-width:0.34999999;stroke-miterlimit:4;stroke-dasharray:none" />
      <path
         inkscape:connector-curvature="0"
         id="Shape2DView_nwe0008"
         d="m 25,6 m 0,0 -3.6e-4,0.1004153 -0.0011,0.1004102 -0.0018,0.1003999 -0.0025,0.1003843 -0.0032,0.1003637 -0.004,0.1003379 -0.0047,0.1003068 -0.0054,0.1002708 -0.0061,0.1002294 -0.0068,0.100183 -0.0076,0.1001313 -0.0083,0.1000746 -0.009,0.1000126 -0.0097,0.099946 -0.01042,0.099873 -0.01114,0.099796 -0.01186,0.099714 -0.01257,0.099626 -0.01328,0.099533 -0.014,0.099435 -0.01471,0.099333 -0.01542,0.099224 -0.01614,0.099111 -0.01685,0.098993 -0.01756,0.098869 -0.01826,0.098741 -0.01897,0.098607 -0.01968,0.098469 -0.02038,0.098325 -0.02109,0.098176 -0.02179,0.098023 -0.0225,0.097864 -0.0232,0.0977 -0.0239,0.097531 -0.02459,0.097357 -0.02529,0.097178 -0.02599,0.096994 -0.02669,0.096806 -0.02738,0.096612 -0.02807,0.096413 -0.02876,0.096209 -0.02945,0.096 -0.03014,0.09579 -0.03083,0.09557 -0.03151,0.09534 -0.03219,0.09512 -0.03287,0.09488 -0.03355,0.09464 -0.03423,0.0944 -0.03491,0.09415 -0.03558,0.0939 -0.03625,0.09364 -0.03693,0.09338 -0.03759,0.09311 -0.03826,0.09284 -0.03893,0.09256 -0.03959,0.09228 -0.04025,0.092 -0.04091,0.09171 -0.04156,0.09141 -0.04222,0.09111 -0.04287,0.0908 -0.04352,0.09049 -0.04417,0.09018 -0.04482,0.08986 -0.04546,0.08954 -0.0461,0.08921 -0.04674,0.08887 -0.04738,0.08854 -0.04801,0.0882 -0.04864,0.08785 -0.04927,0.0875 -0.0499,0.08714 -0.05052,0.08678 -0.05114,0.08642 -0.05176,0.08605 -0.05237,0.08568 -0.05299,0.0853 -0.0536,0.08492 -0.05421,0.08453 -0.05481,0.08414 -0.05541,0.08374 -0.05601,0.08334 -0.05661,0.08294 -0.0572,0.08253 -0.05779,0.08212 -0.05838,0.0817 -0.05897,0.08128 -0.05955,0.08086 -0.06012,0.08043 -0.0607,0.07999 -0.06127,0.07956 -0.06184,0.07911 -0.06241,0.07867 -0.06297,0.07822 -0.06353,0.07776 -0.06409,0.07731 -0.06464,0.07685 -0.06519,0.07638 -0.06573,0.07591 -0.06628,0.07544 -0.06682,0.07496 -0.06735,0.07448 -0.06788,0.07399 -0.06841,0.0735 -0.06894,0.07301 -0.06946,0.07252 -0.06998,0.07202 -0.07049,0.07151 -0.071,0.071 -0.07151,0.07049 -0.07202,0.06998 -0.07252,0.06946 -0.07301,0.06894 -0.07351,0.06841 -0.07399,0.06788 -0.07448,0.06735 -0.07496,0.06682 -0.07544,0.06628 -0.07591,0.06573 -0.07638,0.06519 -0.07685,0.06464 -0.07731,0.06409 -0.07776,0.06353 -0.07822,0.06297 -0.07867,0.06241 -0.07911,0.06184 -0.07956,0.06127 -0.07999,0.0607 -0.08043,0.06012 -0.08086,0.05955 -0.08128,0.05897 -0.0817,0.05838 -0.08212,0.05779 -0.08253,0.0572 -0.08294,0.05661 -0.08334,0.05601 -0.08374,0.05541 -0.08414,0.05481 -0.08453,0.05421 -0.08491,0.0536 -0.0853,0.05299 -0.08568,0.05237 -0.08605,0.05176 -0.08642,0.05114 -0.08678,0.05052 -0.08714,0.0499 -0.0875,0.04927 -0.08785,0.04864 -0.0882,0.04801 -0.08854,0.04738 -0.08888,0.04674 -0.08921,0.0461 -0.08954,0.04546 -0.08986,0.04482 -0.09018,0.04417 -0.09049,0.04352 -0.0908,0.04287 -0.09111,0.04222 -0.09141,0.04156 -0.0917,0.04091 -0.092,0.04025 -0.09228,0.03959 -0.09256,0.03893 -0.09284,0.03826 -0.09311,0.03759 -0.09338,0.03693 -0.09364,0.03625 -0.0939,0.03558 -0.09415,0.03491 -0.0944,0.03423 -0.09464,0.03355 -0.09488,0.03287 -0.09512,0.03219 -0.09534,0.03151 -0.09557,0.03083 -0.09579,0.03014 -0.096,0.02945 -0.09621,0.02876 -0.09641,0.02807 -0.09661,0.02738 -0.0968,0.02669 -0.09699,0.02599 -0.09718,0.02529 -0.09736,0.02459 -0.09753,0.0239 -0.0977,0.0232 -0.09786,0.0225 -0.09802,0.02179 -0.09818,0.02109 -0.09833,0.02038 -0.09847,0.01968 -0.09861,0.01897 -0.09874,0.01826 -0.09887,0.01756 -0.09899,0.01685 -0.09911,0.01614 -0.09922,0.01542 -0.09933,0.01471 -0.09943,0.014 -0.09953,0.01328 -0.09962,0.01257 -0.09971,0.01186 -0.0998,0.01114 -0.09987,0.01042 -0.09994,0.0097 -0.100013,0.009 -0.100074,0.0083 -0.100132,0.0076 -0.100183,0.0068 -0.100229,0.0061 -0.100271,0.0054 -0.100307,0.0047 -0.100338,0.004 -0.100363,0.0032 -0.100385,0.0025 -0.100399,0.0018 -0.100411,0.0011 L 11,20"
         style="fill:none;fill-rule:evenodd;stroke:#191919;stroke-width:0.34999999;stroke-miterlimit:4;stroke-dasharray:none" />
      <path
         inkscape:connector-curvature="0"
         id="Shape2DView_nwe0009"
         d="M -11,20 H 11"
         style="fill:none;fill-rule:evenodd;stroke:#191919;stroke-width:0.34999999;stroke-miterlimit:4;stroke-dasharray:none" />
      <path
         inkscape:connector-curvature="0"
         id="Shape2DView_nwe0010"
         d="M -15,-30 H 15"
         style="fill:none;fill-rule:evenodd;stroke:#191919;stroke-width:0.34999999;stroke-miterlimit:4;stroke-dasharray:none" />
      <path
         inkscape:connector-curvature="0"
         id="Shape2DView_nwe0011"
         d="m 15,-30 v -9"
         style="fill:none;fill-rule:evenodd;stroke:#191919;stroke-width:0.34999999;stroke-miterlimit:4;stroke-dasharray:none" />
      <path
         inkscape:connector-curvature="0"
         id="Shape2DView_nwe0012"
         d="M 15,-39 H -15"
         style="fill:none;fill-rule:evenodd;stroke:#191919;stroke-width:0.34999999;stroke-miterlimit:4;stroke-dasharray:none" />
      <path
         inkscape:connector-curvature="0"
         id="Shape2DView_nwe0013"
         d="m -15,-39 v 9"
         style="fill:none;fill-rule:evenodd;stroke:#191919;stroke-width:0.34999999;stroke-miterlimit:4;stroke-dasharray:none" />
      <path
         inkscape:connector-curvature="0"
         id="Shape2DView_nwe0014"
         d="m 11,0 m 0,0 -4.55e-4,0.10002038 -0.0014,0.10001212 -0.0023,0.0999956 -0.0032,0.0999708 -0.0041,0.0999377 -0.005,0.0998964 -0.0059,0.0998468 -0.0068,0.0997889 -0.0077,0.0997228 -0.0086,0.0996485 -0.0095,0.0995659 -0.01044,0.099475 -0.01134,0.099376 -0.01225,0.099269 -0.01315,0.099153 -0.01405,0.09903 -0.01495,0.098898 -0.01585,0.098758 -0.01675,0.09861 -0.01764,0.098453 -0.01854,0.098289 -0.01943,0.098116 -0.02032,0.097935 -0.02121,0.097747 -0.0221,0.09755 -0.02298,0.097345 -0.02387,0.097132 -0.02475,0.096911 -0.02563,0.096682 -0.02651,0.096445 -0.02739,0.096199 -0.02826,0.095947 -0.02913,0.095686 -0.03,0.095417 -0.03087,0.09514 -0.03173,0.094855 -0.03259,0.094563 -0.03345,0.094263 -0.0343,0.093955 -0.03516,0.093639 -0.03601,0.093316 -0.03685,0.092984 -0.0377,0.092645 -0.03854,0.092299 -0.03938,0.091944 -0.04021,0.091583 -0.04104,0.091213 -0.04187,0.090836 -0.042694,0.090452 -0.043515,0.09006 -0.044332,0.08966 -0.045145,0.089254 -0.045955,0.088839 -0.046761,0.088418 -0.047563,0.087989 -0.048361,0.087553 -0.049155,0.087109 -0.049945,0.086659 -0.050731,0.086201 -0.051513,0.085736 -0.05229,0.085265 -0.053063,0.084785 -0.053832,0.0843 -0.054596,0.083806 -0.055356,0.083307 -0.056111,0.0828 -0.056862,0.082286 -0.057608,0.081766 -0.058349,0.081239 -0.059085,0.080705 -0.059816,0.080164 -0.060543,0.079617 -0.061264,0.079063 -0.061981,0.078503 -0.062692,0.077936 -0.063398,0.077363 -0.064099,0.076783 -0.064794,0.076197 -0.065485,0.075605 -0.066169,0.075006 -0.066849,0.074401 -0.067522,0.073791 -0.06819,0.073173 -0.068853,0.07255 -0.06951,0.071921 -0.070161,0.071286 -0.070806,0.070645 -0.071446,0.069999 -0.072079,0.069346 -0.072707,0.068688 -0.073328,0.068024 -0.073944,0.067354 -0.074553,0.066679 -0.075156,0.065998 -0.075753,0.065312 -0.076344,0.064621 -0.076929,0.063924 -0.077507,0.063222 -0.078078,0.062515 -0.078643,0.061802 -0.079202,0.061084 -0.079754,0.060362 -0.0803,0.059634 -0.080839,0.058901 -0.081371,0.058164 -0.081897,0.057422 -0.082415,0.056675 -0.082927,0.055923 -0.083432,0.055166 -0.08393,0.054406 -0.084422,0.05364 -0.084906,0.05287 -0.085383,0.052096 -0.085853,0.051318 -0.086316,0.050535 -0.086772,0.049748 -0.087221,0.048957 -0.087663,0.048162 -0.088097,0.047363 -0.088524,0.04656 -0.088944,0.045753 -0.089356,0.044942 -0.089761,0.044128 -0.090158,0.04331 -0.090548,0.042488 -0.090931,0.041664 -0.091306,0.04083 -0.091674,0.04 -0.092034,0.03917 -0.092386,0.03833 -0.092731,0.03749 -0.093068,0.03664 -0.093397,0.03579 -0.093719,0.03495 -0.094033,0.03409 -0.094339,0.03323 -0.094637,0.03238 -0.094927,0.03151 -0.09521,0.03065 -0.095485,0.02978 -0.095752,0.02891 -0.09601,0.02804 -0.096262,0.02717 -0.096505,0.02629 -0.09674,0.02541 -0.096967,0.02453 -0.097186,0.02365 -0.097397,0.02276 -0.0976,0.02188 -0.097795,0.02099 -0.097981,0.0201 -0.09816,0.01921 -0.098331,0.01831 -0.098493,0.01742 -0.098647,0.01652 -0.098794,0.01563 -0.098931,0.01473 -0.099061,0.01383 -0.099183,0.01292 -0.099296,0.01202 -0.099402,0.01112 -0.099499,0.01021 -0.0995873,0.0093 -0.0996678,0.0084 -0.0997401,0.0075 -0.0998041,0.0066 -0.0998599,0.0057 -0.0999075,0.0048 -0.0999467,0.0039 -0.0999777,0.003 -0.10000049,0.002 -0.10001496,0.0011 -0.10002116,2.28e-4 -0.10001909,-6.83e-4 -0.10000876,-0.0016 -0.0999902,-0.0025 -0.0999633,-0.0034 -0.0999281,-0.0043 -0.0998847,-0.0052 -0.0998331,-0.0061 -0.0997732,-0.007 -0.099705,-0.0079 -0.0996286,-0.0089 -0.099544,-0.0098 -0.099451,-0.01067 -0.09935,-0.01157 -0.099241,-0.01247 -0.099123,-0.01337 -0.098998,-0.01427 -0.098864,-0.01518 -0.098721,-0.01607 -0.098571,-0.01697 -0.098413,-0.01787 -0.098246,-0.01876 -0.098072,-0.01965 -0.097889,-0.02054 -0.097698,-0.02143 -0.097499,-0.02232 -0.097292,-0.02321 -0.097077,-0.02409 -0.096854,-0.02497 -0.096623,-0.02585 -0.096384,-0.02673 -0.096137,-0.0276 -0.095882,-0.02848 -0.095619,-0.02935 -0.095348,-0.03022 -0.09507,-0.03108 -0.094783,-0.03194 -0.094489,-0.0328 -0.094187,-0.03366 -0.093876,-0.03452 -0.093559,-0.03537 -0.093233,-0.03622 -0.0929,-0.03707 -0.092559,-0.03791 -0.092211,-0.03875 -0.091855,-0.03959 -0.091491,-0.04042 -0.09112,-0.04125 -0.090741,-0.042076 -0.090354,-0.042899 -0.089961,-0.043719 -0.089559,-0.044535 -0.089151,-0.045348 -0.088735,-0.046157 -0.088311,-0.046962 -0.087881,-0.047763 -0.087443,-0.04856 -0.086998,-0.049353 -0.086545,-0.050142 -0.086086,-0.050927 -0.085619,-0.051707 -0.085145,-0.052484 -0.084665,-0.053256 -0.084177,-0.054023 -0.083682,-0.054787 -0.083181,-0.055545 -0.082672,-0.056299 -0.082157,-0.057049 -0.081635,-0.057793 -0.081106,-0.058533 -0.08057,-0.059268 -0.080028,-0.059999 -0.079479,-0.060724 -0.078924,-0.061444 -0.078362,-0.062159 -0.077793,-0.062869 -0.077218,-0.063574 -0.076637,-0.064273 -0.07605,-0.064967 -0.075456,-0.065656 -0.074855,-0.06634 -0.074249,-0.067017 -0.073637,-0.06769 -0.073018,-0.068356 -0.072394,-0.069018 -0.071763,-0.069673 -0.071127,-0.070323 -0.070484,-0.070967 -0.069836,-0.071605 -0.069182,-0.072237 -0.068522,-0.072863 -0.067857,-0.073483 -0.067186,-0.074097 -0.06651,-0.074705 -0.065828,-0.075306 -0.06514,-0.075902 -0.064447,-0.076491 -0.063749,-0.077074 -0.063046,-0.07765 -0.062337,-0.07822 -0.061623,-0.078784 -0.060904,-0.079341 -0.06018,-0.079891 -0.059451,-0.080435 -0.058718,-0.080973 -0.057979,-0.081503 -0.057235,-0.082027 -0.056487,-0.082544 -0.055734,-0.083054 -0.054977,-0.083557 -0.054215,-0.084054 -0.053448,-0.084543 -0.052677,-0.085026 -0.051902,-0.085501 -0.051122,-0.08597 -0.050339,-0.086431 -0.049551,-0.086885 -0.048758,-0.087332 -0.047962,-0.087772 -0.047162,-0.088204 -0.046358,-0.088629 -0.04555,-0.089047 -0.044739,-0.089458 -0.043924,-0.089861 -0.043105,-0.090257 -0.042282,-0.090645 -0.041456,-0.091026 -0.04063,-0.091399 -0.03979,-0.091764 -0.03896,-0.092123 -0.03812,-0.092473 -0.03728,-0.092816 -0.03643,-0.093151 -0.03558,-0.093478 -0.03473,-0.093798 -0.03388,-0.09411 -0.03302,-0.094414 -0.03216,-0.09471 -0.0313,-0.094999 -0.03043,-0.095279 -0.02956,-0.095552 -0.02869,-0.095817 -0.02782,-0.096074 -0.02695,-0.096323 -0.02607,-0.096564 -0.02519,-0.096797 -0.02431,-0.097022 -0.02343,-0.097239 -0.02254,-0.097448 -0.02166,-0.097649 -0.02077,-0.097842 -0.01988,-0.098027 -0.01898,-0.098203 -0.01809,-0.098372 -0.01719,-0.098532 -0.0163,-0.098685 -0.0154,-0.098829 -0.0145,-0.098965 -0.0136,-0.099093 -0.0127,-0.099212 -0.0118,-0.099323 -0.01089,-0.099427 -0.01,-0.099522 -0.0091,-0.0996082 -0.0082,-0.0996867 -0.0073,-0.0997569 -0.0064,-0.0998189 -0.0055,-0.0998726 -0.0045,-0.0999181 -0.0036,-0.0999553 -0.0027,-0.0999842 -0.0018,-0.10000488 -9.09e-4,-0.10001728 v -0.10002142 l 9.09e-4,-0.10001728 0.0018,-0.10000488 0.0027,-0.0999842 0.0036,-0.0999553 0.0045,-0.0999181 0.0055,-0.0998726 0.0064,-0.0998189 0.0073,-0.0997569 0.0082,-0.0996867 0.0091,-0.0996082 0.01,-0.099522 0.01089,-0.099427 0.0118,-0.099323 0.0127,-0.099212 0.0136,-0.099093 0.0145,-0.098965 0.0154,-0.098829 0.0163,-0.098685 0.01719,-0.098532 0.01809,-0.098372 0.01898,-0.098203 0.01988,-0.098027 0.02077,-0.097842 0.02166,-0.097649 0.02254,-0.097448 0.02343,-0.097239 0.02431,-0.097022 0.02519,-0.096797 0.02607,-0.096564 0.02695,-0.096323 0.02782,-0.096074 0.02869,-0.095817 0.02956,-0.095552 0.03043,-0.095279 0.0313,-0.094999 0.03216,-0.09471 0.03302,-0.094414 0.03388,-0.09411 0.03473,-0.093798 0.03558,-0.093478 0.03643,-0.093151 0.03728,-0.092816 0.03812,-0.092473 0.03896,-0.092123 0.03979,-0.091764 0.04063,-0.091399 0.041456,-0.091026 0.042282,-0.090645 0.043105,-0.090257 0.043924,-0.089861 0.044739,-0.089458 0.04555,-0.089047 0.046358,-0.088629 0.047162,-0.088204 0.047962,-0.087772 0.048758,-0.087332 0.049551,-0.086885 0.050339,-0.086431 0.051122,-0.08597 0.051902,-0.085501 0.052677,-0.085026 0.053448,-0.084543 0.054215,-0.084054 0.054977,-0.083557 0.055734,-0.083054 0.056487,-0.082544 0.057235,-0.082027 0.057979,-0.081503 0.058718,-0.080973 0.059451,-0.080435 0.06018,-0.079891 0.060904,-0.079341 0.061623,-0.078784 0.062337,-0.07822 0.063046,-0.07765 0.063749,-0.077074 0.064447,-0.076491 0.06514,-0.075902 0.065828,-0.075306 0.06651,-0.074705 0.067186,-0.074097 0.067857,-0.073483 0.068522,-0.072863 0.069182,-0.072237 0.069836,-0.071605 0.070484,-0.070967 0.071127,-0.070323 0.071763,-0.069673 0.072394,-0.069018 0.073018,-0.068356 0.073637,-0.06769 0.074249,-0.067017 0.074855,-0.06634 0.075456,-0.065656 0.07605,-0.064967 0.076637,-0.064273 0.077218,-0.063574 0.077793,-0.062869 0.078362,-0.062159 0.078924,-0.061444 0.079479,-0.060724 0.080028,-0.059999 0.08057,-0.059268 0.081106,-0.058533 0.081635,-0.057793 0.082157,-0.057049 0.082672,-0.056299 0.083181,-0.055545 0.083682,-0.054787 0.084177,-0.054023 0.084665,-0.053256 0.085145,-0.052484 0.085619,-0.051707 0.086086,-0.050927 0.086545,-0.050142 0.086998,-0.049353 0.087443,-0.04856 0.087881,-0.047763 0.088311,-0.046962 0.088735,-0.046157 0.089151,-0.045348 0.089559,-0.044535 0.089961,-0.043719 0.090354,-0.042899 0.090741,-0.042076 0.09112,-0.04125 0.091491,-0.04042 0.091855,-0.03959 0.092211,-0.03875 0.092559,-0.03791 0.0929,-0.03707 0.093233,-0.03622 0.093559,-0.03537 0.093876,-0.03452 0.094187,-0.03366 0.094489,-0.0328 0.094783,-0.03194 0.09507,-0.03108 0.095348,-0.03022 0.095619,-0.02935 0.095882,-0.02848 0.096137,-0.0276 0.096384,-0.02673 0.096623,-0.02585 0.096854,-0.02497 0.097077,-0.02409 0.097292,-0.02321 0.097499,-0.02232 0.097698,-0.02143 0.097889,-0.02054 0.098072,-0.01965 0.098246,-0.01876 0.098413,-0.01787 0.098571,-0.01697 0.098721,-0.01607 0.098864,-0.01518 0.098998,-0.01427 0.099123,-0.01337 0.099241,-0.01247 0.09935,-0.01157 0.099451,-0.01067 0.099544,-0.0098 0.0996286,-0.0089 0.099705,-0.0079 0.0997732,-0.007 0.0998331,-0.0061 0.0998847,-0.0052 0.0999281,-0.0043 0.0999633,-0.0034 0.0999902,-0.0025 0.10000876,-0.0016 0.10001909,-6.83e-4 0.10002116,2.28e-4 0.10001496,0.0011 0.10000049,0.002 0.0999777,0.003 0.0999467,0.0039 0.0999075,0.0048 0.0998599,0.0057 0.0998041,0.0066 0.0997401,0.0075 0.0996678,0.0084 0.0995873,0.0093 0.099499,0.01021 0.099402,0.01112 0.099296,0.01202 0.099183,0.01292 0.099061,0.01383 0.098931,0.01473 0.098794,0.01563 0.098647,0.01652 0.098493,0.01742 0.098331,0.01831 0.09816,0.01921 0.097981,0.0201 0.097795,0.02099 0.0976,0.02188 0.097397,0.02276 0.097186,0.02365 0.096967,0.02453 0.09674,0.02541 0.096505,0.02629 0.096262,0.02717 0.09601,0.02804 0.095752,0.02891 0.095485,0.02978 0.09521,0.03065 0.094927,0.03151 0.094637,0.03238 0.094339,0.03323 0.094033,0.03409 0.093719,0.03495 0.093397,0.03579 0.093068,0.03664 0.092731,0.03749 0.092386,0.03833 0.092034,0.03917 0.091674,0.04 0.091306,0.04083 0.090931,0.041664 0.090548,0.042488 0.090158,0.04331 0.089761,0.044128 0.089356,0.044942 0.088944,0.045753 0.088524,0.04656 0.088097,0.047363 0.087663,0.048162 0.087221,0.048957 0.086772,0.049748 0.086316,0.050535 0.085853,0.051318 0.085383,0.052096 0.084906,0.05287 0.084422,0.05364 0.08393,0.054406 0.083432,0.055166 0.082927,0.055923 0.082415,0.056675 0.081897,0.057422 0.081371,0.058164 0.080839,0.058901 0.0803,0.059634 0.079754,0.060362 0.079202,0.061084 0.078643,0.061802 0.078078,0.062515 0.077507,0.063222 0.076929,0.063924 0.076344,0.064621 0.075753,0.065312 0.075156,0.065998 0.074553,0.066679 0.073944,0.067354 0.073328,0.068024 0.072707,0.068688 0.072079,0.069346 0.071446,0.069999 0.070806,0.070645 0.070161,0.071286 0.06951,0.071921 0.068853,0.07255 0.06819,0.073173 0.067522,0.073791 0.066849,0.074401 0.066169,0.075006 0.065485,0.075605 0.064794,0.076197 0.064099,0.076783 0.063398,0.077363 0.062692,0.077936 0.061981,0.078503 0.061264,0.079063 0.060543,0.079617 0.059816,0.080164 0.059085,0.080705 0.058349,0.081239 0.057608,0.081766 0.056862,0.082286 0.056111,0.0828 0.055356,0.083307 0.054596,0.083806 0.053832,0.0843 0.053063,0.084785 0.05229,0.085265 0.051513,0.085736 0.050731,0.086201 0.049945,0.086659 0.049155,0.087109 0.048361,0.087553 0.047563,0.087989 0.046761,0.088418 0.045955,0.088839 0.045145,0.089254 0.044332,0.08966 0.043515,0.09006 0.042694,0.090452 0.04187,0.090836 0.04104,0.091213 0.04021,0.091583 0.03938,0.091944 0.03854,0.092299 0.0377,0.092645 0.03685,0.092984 0.03601,0.093316 0.03516,0.093639 0.0343,0.093955 0.03345,0.094263 0.03259,0.094563 0.03173,0.094855 0.03087,0.09514 0.03,0.095417 0.02913,0.095686 0.02826,0.095947 0.02739,0.096199 0.02651,0.096445 0.02563,0.096682 0.02475,0.096911 0.02387,0.097132 0.02298,0.097345 0.0221,0.09755 0.02121,0.097747 0.02032,0.097935 0.01943,0.098116 0.01854,0.098289 0.01764,0.098453 0.01675,0.09861 0.01585,0.098758 0.01495,0.098898 0.01405,0.09903 0.01315,0.099153 0.01225,0.099269 0.01134,0.099376 0.01044,0.099475 0.0095,0.0995659 0.0086,0.0996485 0.0077,0.0997228 0.0068,0.0997889 0.0059,0.0998468 0.005,0.0998964 0.0041,0.0999377 0.0032,0.0999708 0.0023,0.0999956 0.0014,0.10001212 L 11,0"
         style="fill:none;fill-rule:evenodd;stroke:#191919;stroke-width:0.34999999;stroke-miterlimit:4;stroke-dasharray:none" />
      <path
         inkscape:connector-curvature="0"
         id="Shape2DView_nwe0015"
         d="m 2,-109 m 0,0 -0.00253,0.10049 -0.00757,0.10023 -0.012598,0.0997 -0.017593,0.099 -0.022544,0.098 -0.027437,0.0967 -0.032261,0.0952 -0.037004,0.0935 -0.041653,0.0915 -0.046197,0.0893 -0.050624,0.0868 -0.054924,0.0842 -0.059084,0.0813 -0.063096,0.0782 -0.066948,0.075 -0.070631,0.0715 -0.074135,0.0679 -0.077452,0.0641 -0.080574,0.0601 -0.083492,0.056 -0.0861989,0.0517 -0.0886883,0.0473 -0.0909536,0.0428 -0.0929891,0.0382 -0.0947898,0.0334 -0.096351,0.0287 -0.0976688,0.0238 -0.0987399,0.0188 -0.0995616,0.0138 -0.10013173,0.009 -0.10044896,0.004 -0.10051245,-0.001 -0.10032202,-0.006 -0.0998782,-0.0114 -0.099182,-0.0164 -0.0982354,-0.0213 -0.0970405,-0.0262 -0.0956006,-0.0311 -0.0939191,-0.0358 -0.0920004,-0.0405 -0.0898493,-0.0451 -0.0874712,-0.0495 -0.084872,-0.0539 -0.082059,-0.0581 -0.079038,-0.0621 -0.075818,-0.066 -0.072406,-0.0697 -0.068811,-0.0733 -0.065042,-0.0766 -0.061109,-0.0798 -0.057022,-0.0828 -0.052791,-0.0855 -0.048426,-0.0881 -0.043939,-0.0904 -0.039341,-0.0925 -0.034644,-0.0944 -0.029859,-0.096 -0.024998,-0.0974 -0.020075,-0.0985 -0.015101,-0.0994 -0.010088,-0.10002 -0.00505,-0.10039 v -0.10052 l 0.00505,-0.10039 0.010088,-0.10002 0.015101,-0.0994 0.020075,-0.0985 0.024998,-0.0974 0.029859,-0.096 0.034644,-0.0944 0.039341,-0.0925 0.043939,-0.0904 0.048426,-0.0881 0.052791,-0.0855 0.057022,-0.0828 0.061109,-0.0798 0.065042,-0.0766 0.068811,-0.0733 0.072406,-0.0697 0.075818,-0.066 0.079038,-0.0621 0.082059,-0.0581 0.084872,-0.0539 0.0874712,-0.0495 0.0898493,-0.0451 0.0920004,-0.0405 0.0939191,-0.0358 0.0956006,-0.0311 0.0970405,-0.0262 0.0982354,-0.0213 0.099182,-0.0164 0.0998782,-0.0114 0.10032202,-0.006 0.10051245,-0.001 0.10044896,0.004 0.10013173,0.009 0.0995616,0.0138 0.0987399,0.0188 0.0976688,0.0238 0.096351,0.0287 0.0947898,0.0334 0.0929891,0.0382 0.0909536,0.0428 0.0886883,0.0473 0.0861989,0.0517 0.083492,0.056 0.080574,0.0601 0.077452,0.0641 0.074135,0.0679 0.070631,0.0715 0.066948,0.075 0.063096,0.0782 0.059084,0.0813 0.054924,0.0842 0.050624,0.0868 0.046197,0.0893 0.041653,0.0915 0.037004,0.0935 0.032261,0.0952 0.027437,0.0967 0.022544,0.098 0.017593,0.099 0.012598,0.0997 0.00757,0.10023 L 2,-109"
         style="fill:none;fill-rule:evenodd;stroke:#191919;stroke-width:0.34999999;stroke-miterlimit:4;stroke-dasharray:none" />
      <path
         inkscape:connector-curvature="0"
         id="Shape2DView_nwe0016"
         d="m 2,-59 m 0,0 -0.00253,0.100489 -0.00757,0.100234 -0.012598,0.09973 -0.017593,0.09897 -0.022544,0.09796 -0.027437,0.0967 -0.032261,0.0952 -0.037004,0.09346 -0.041653,0.09148 -0.046197,0.08928 -0.050624,0.08684 -0.054924,0.08419 -0.059084,0.08132 -0.063096,0.07825 -0.066948,0.07498 -0.070631,0.07152 -0.074135,0.06788 -0.077452,0.06407 -0.080574,0.0601 -0.083492,0.05598 -0.0861989,0.05171 -0.0886883,0.04732 -0.0909536,0.0428 -0.0929891,0.03818 -0.0947898,0.03345 -0.096351,0.02865 -0.0976688,0.02377 -0.0987399,0.01884 -0.0995616,0.01385 -0.10013173,0.0088 -0.10044896,0.0038 -0.10051245,-0.0013 -0.10032202,-0.0063 -0.0998782,-0.01134 -0.099182,-0.01635 -0.0982354,-0.02131 -0.0970405,-0.02622 -0.0956006,-0.03106 -0.0939191,-0.03583 -0.0920004,-0.0405 -0.0898493,-0.04507 -0.0874712,-0.04953 -0.084872,-0.05386 -0.082059,-0.05806 -0.079038,-0.06211 -0.075818,-0.066 -0.072406,-0.06973 -0.068811,-0.07328 -0.065042,-0.07664 -0.061109,-0.07981 -0.057022,-0.08278 -0.052791,-0.08554 -0.048426,-0.08809 -0.043939,-0.09041 -0.039341,-0.0925 -0.034644,-0.09436 -0.029859,-0.09598 -0.024998,-0.09736 -0.020075,-0.0985 -0.015101,-0.09938 -0.010088,-0.100012 -0.00505,-0.100394 v -0.10052 l 0.00505,-0.100394 0.010088,-0.100012 0.015101,-0.09938 0.020075,-0.0985 0.024998,-0.09736 0.029859,-0.09598 0.034644,-0.09436 0.039341,-0.0925 0.043939,-0.09041 0.048426,-0.08809 0.052791,-0.08554 0.057022,-0.08278 0.061109,-0.07981 0.065042,-0.07664 0.068811,-0.07328 0.072406,-0.06973 0.075818,-0.066 0.079038,-0.06211 0.082059,-0.05806 0.084872,-0.05386 0.0874712,-0.04953 0.0898493,-0.04507 0.0920004,-0.0405 0.0939191,-0.03583 0.0956006,-0.03106 0.0970405,-0.02622 0.0982354,-0.02131 0.099182,-0.01635 0.0998782,-0.01134 0.10032202,-0.0063 0.10051245,-0.0013 0.10044896,0.0038 0.10013173,0.0088 0.0995616,0.01385 0.0987399,0.01884 0.0976688,0.02377 0.096351,0.02865 0.0947898,0.03345 0.0929891,0.03818 0.0909536,0.0428 0.0886883,0.04732 0.0861989,0.05171 0.083492,0.05598 0.080574,0.0601 0.077452,0.06407 0.074135,0.06788 0.070631,0.07152 0.066948,0.07498 0.063096,0.07825 0.059084,0.08132 0.054924,0.08419 0.050624,0.08684 0.046197,0.08928 0.041653,0.09148 0.037004,0.09346 0.032261,0.0952 0.027437,0.0967 0.022544,0.09796 0.017593,0.09897 0.012598,0.09973 0.00757,0.100234 L 2,-59"
         style="fill:none;fill-rule:evenodd;stroke:#191919;stroke-width:0.34999999;stroke-miterlimit:4;stroke-dasharray:none" />
      <title
         id="title19">b'Shape2DView'</title>
    </g>
    <g
       transform="matrix(1,0,0,-0.99999998,82,142.87232)"
       id="g107">
      <path
         style="fill:none;fill-rule:evenodd;stroke:#191919;stroke-width:0.34999999;stroke-miterlimit:4;stroke-dasharray:none"
         d="m -11,20 m 0,0 -0.100415,-3.6e-4 -0.100411,-0.0011 -0.100399,-0.0018 -0.100385,-0.0025 -0.100363,-0.0032 -0.100338,-0.004 -0.100307,-0.0047 -0.100271,-0.0054 -0.100229,-0.0061 -0.100183,-0.0068 -0.100132,-0.0076 -0.100074,-0.0083 -0.100013,-0.009 -0.09994,-0.0097 -0.09987,-0.01042 -0.0998,-0.01114 -0.09971,-0.01186 -0.09962,-0.01257 -0.09953,-0.01328 -0.09943,-0.014 -0.09933,-0.01471 -0.09922,-0.01542 -0.09911,-0.01614 -0.09899,-0.01685 -0.09887,-0.01756 -0.09874,-0.01826 -0.09861,-0.01897 -0.09847,-0.01968 -0.09833,-0.02038 -0.09818,-0.02109 -0.09802,-0.02179 -0.09786,-0.0225 -0.0977,-0.0232 -0.09753,-0.0239 -0.09736,-0.02459 -0.09718,-0.02529 -0.09699,-0.02599 -0.0968,-0.02669 -0.09661,-0.02738 -0.09641,-0.02807 -0.09621,-0.02876 -0.096,-0.02945 -0.09579,-0.03014 -0.09557,-0.03083 -0.09534,-0.03151 -0.09512,-0.03219 -0.09488,-0.03287 -0.09464,-0.03355 -0.0944,-0.03423 -0.09415,-0.03491 -0.0939,-0.03558 -0.09364,-0.03625 -0.09338,-0.03693 -0.09311,-0.03759 -0.09284,-0.03826 -0.09256,-0.03893 -0.09228,-0.03959 -0.092,-0.04025 -0.0917,-0.04091 -0.09141,-0.04156 -0.09111,-0.04222 -0.0908,-0.04287 -0.09049,-0.04352 -0.09018,-0.04417 -0.08986,-0.04482 -0.08954,-0.04546 -0.08921,-0.0461 -0.08888,-0.04674 -0.08854,-0.04738 -0.0882,-0.04801 -0.08785,-0.04864 -0.0875,-0.04927 -0.08714,-0.0499 -0.08678,-0.05052 -0.08642,-0.05114 -0.08605,-0.05176 -0.08568,-0.05237 -0.0853,-0.05299 -0.08491,-0.0536 -0.08453,-0.05421 -0.08414,-0.05481 -0.08374,-0.05541 -0.08334,-0.05601 -0.08294,-0.05661 -0.08253,-0.0572 -0.08212,-0.05779 -0.0817,-0.05838 -0.08128,-0.05897 -0.08086,-0.05955 -0.08043,-0.06012 -0.07999,-0.0607 -0.07956,-0.06127 -0.07911,-0.06184 -0.07867,-0.06241 -0.07822,-0.06297 -0.07776,-0.06353 -0.07731,-0.06409 -0.07685,-0.06464 -0.07638,-0.06519 -0.07591,-0.06573 -0.07544,-0.06628 -0.07496,-0.06682 -0.07448,-0.06735 -0.07399,-0.06788 -0.07351,-0.06841 -0.07301,-0.06894 -0.07252,-0.06946 -0.07202,-0.06998 -0.07151,-0.07049 -0.071,-0.071 -0.07049,-0.07151 -0.06998,-0.07202 -0.06946,-0.07252 -0.06894,-0.07301 -0.06841,-0.0735 -0.06788,-0.07399 -0.06735,-0.07448 -0.06682,-0.07496 -0.06628,-0.07544 -0.06573,-0.07591 -0.06519,-0.07638 -0.06464,-0.07685 -0.06409,-0.07731 -0.06353,-0.07776 -0.06297,-0.07822 -0.06241,-0.07867 -0.06184,-0.07911 -0.06127,-0.07956 -0.0607,-0.07999 -0.06012,-0.08043 -0.05955,-0.08086 -0.05897,-0.08128 -0.05838,-0.0817 -0.05779,-0.08212 -0.0572,-0.08253 -0.05661,-0.08294 -0.05601,-0.08334 -0.05541,-0.08374 -0.05481,-0.08414 -0.05421,-0.08453 -0.0536,-0.08492 -0.05299,-0.0853 -0.05237,-0.08568 -0.05176,-0.08605 -0.05114,-0.08642 -0.05052,-0.08678 -0.0499,-0.08714 -0.04927,-0.0875 -0.04864,-0.08785 -0.04801,-0.0882 -0.04738,-0.08854 -0.04674,-0.08887 -0.0461,-0.08921 -0.04546,-0.08954 -0.04482,-0.08986 -0.04417,-0.09018 -0.04352,-0.09049 -0.04287,-0.0908 -0.04222,-0.09111 -0.04156,-0.09141 -0.04091,-0.09171 -0.04025,-0.092 -0.03959,-0.09228 -0.03893,-0.09256 -0.03826,-0.09284 -0.03759,-0.09311 -0.03693,-0.09338 -0.03625,-0.09364 -0.03558,-0.0939 -0.03491,-0.09415 -0.03423,-0.0944 -0.03355,-0.09464 -0.03287,-0.09488 -0.03219,-0.09512 -0.03151,-0.09534 -0.03083,-0.09557 -0.03014,-0.09579 -0.02945,-0.096 -0.02876,-0.096209 -0.02807,-0.096413 -0.02738,-0.096612 -0.02669,-0.096806 -0.02599,-0.096994 -0.02529,-0.097178 -0.02459,-0.097357 -0.0239,-0.097531 -0.0232,-0.0977 -0.0225,-0.097864 -0.02179,-0.098023 -0.02109,-0.098176 -0.02038,-0.098325 -0.01968,-0.098469 -0.01897,-0.098607 -0.01826,-0.098741 -0.01756,-0.098869 -0.01685,-0.098993 -0.01614,-0.099111 -0.01542,-0.099224 -0.01471,-0.099333 -0.014,-0.099435 -0.01328,-0.099533 -0.01257,-0.099626 -0.01186,-0.099714 -0.01114,-0.099796 -0.01042,-0.099873 -0.0097,-0.099946 -0.009,-0.1000126 -0.0083,-0.1000746 -0.0076,-0.1001313 -0.0068,-0.100183 -0.0061,-0.1002294 -0.0054,-0.1002708 -0.0047,-0.1003068 -0.004,-0.1003379 -0.0032,-0.1003637 -0.0025,-0.1003843 -0.0018,-0.1003999 -0.0011,-0.1004102 L -25,6"
         id="path71"
         inkscape:connector-curvature="0" />
      <path
         style="fill:none;fill-rule:evenodd;stroke:#191919;stroke-width:0.34999999;stroke-miterlimit:4;stroke-dasharray:none"
         d="M -25,-141 V 6"
         id="path73"
         inkscape:connector-curvature="0" />
      <path
         style="fill:none;fill-rule:evenodd;stroke:#191919;stroke-width:0.34999999;stroke-miterlimit:4;stroke-dasharray:none"
         d="m -25,-141 h 10"
         id="path75"
         inkscape:connector-curvature="0" />
      <path
         style="fill:none;fill-rule:evenodd;stroke:#191919;stroke-width:0.34999999;stroke-miterlimit:4;stroke-dasharray:none"
         d="m -15,-141 v -9"
         id="path77"
         inkscape:connector-curvature="0" />
      <path
         style="fill:none;fill-rule:evenodd;stroke:#191919;stroke-width:0.34999999;stroke-miterlimit:4;stroke-dasharray:none"
         d="M -15,-150 H 15"
         id="path79"
         inkscape:connector-curvature="0" />
      <path
         style="fill:none;fill-rule:evenodd;stroke:#191919;stroke-width:0.34999999;stroke-miterlimit:4;stroke-dasharray:none"
         d="m 15,-150 v 9"
         id="path81"
         inkscape:connector-curvature="0" />
      <path
         style="fill:none;fill-rule:evenodd;stroke:#191919;stroke-width:0.34999999;stroke-miterlimit:4;stroke-dasharray:none"
         d="M 15,-141 H 25"
         id="path83"
         inkscape:connector-curvature="0" />
      <path
         style="fill:none;fill-rule:evenodd;stroke:#191919;stroke-width:0.34999999;stroke-miterlimit:4;stroke-dasharray:none"
         d="M 25,6 V -141"
         id="path85"
         inkscape:connector-curvature="0" />
      <path
         style="fill:none;fill-rule:evenodd;stroke:#191919;stroke-width:0.34999999;stroke-miterlimit:4;stroke-dasharray:none"
         d="m 25,6 m 0,0 -3.6e-4,0.1004153 -0.0011,0.1004102 -0.0018,0.1003999 -0.0025,0.1003843 -0.0032,0.1003637 -0.004,0.1003379 -0.0047,0.1003068 -0.0054,0.1002708 -0.0061,0.1002294 -0.0068,0.100183 -0.0076,0.1001313 -0.0083,0.1000746 -0.009,0.1000126 -0.0097,0.099946 -0.01042,0.099873 -0.01114,0.099796 -0.01186,0.099714 -0.01257,0.099626 -0.01328,0.099533 -0.014,0.099435 -0.01471,0.099333 -0.01542,0.099224 -0.01614,0.099111 -0.01685,0.098993 -0.01756,0.098869 -0.01826,0.098741 -0.01897,0.098607 -0.01968,0.098469 -0.02038,0.098325 -0.02109,0.098176 -0.02179,0.098023 -0.0225,0.097864 -0.0232,0.0977 -0.0239,0.097531 -0.02459,0.097357 -0.02529,0.097178 -0.02599,0.096994 -0.02669,0.096806 -0.02738,0.096612 -0.02807,0.096413 -0.02876,0.096209 -0.02945,0.096 -0.03014,0.09579 -0.03083,0.09557 -0.03151,0.09534 -0.03219,0.09512 -0.03287,0.09488 -0.03355,0.09464 -0.03423,0.0944 -0.03491,0.09415 -0.03558,0.0939 -0.03625,0.09364 -0.03693,0.09338 -0.03759,0.09311 -0.03826,0.09284 -0.03893,0.09256 -0.03959,0.09228 -0.04025,0.092 -0.04091,0.09171 -0.04156,0.09141 -0.04222,0.09111 -0.04287,0.0908 -0.04352,0.09049 -0.04417,0.09018 -0.04482,0.08986 -0.04546,0.08954 -0.0461,0.08921 -0.04674,0.08887 -0.04738,0.08854 -0.04801,0.0882 -0.04864,0.08785 -0.04927,0.0875 -0.0499,0.08714 -0.05052,0.08678 -0.05114,0.08642 -0.05176,0.08605 -0.05237,0.08568 -0.05299,0.0853 -0.0536,0.08492 -0.05421,0.08453 -0.05481,0.08414 -0.05541,0.08374 -0.05601,0.08334 -0.05661,0.08294 -0.0572,0.08253 -0.05779,0.08212 -0.05838,0.0817 -0.05897,0.08128 -0.05955,0.08086 -0.06012,0.08043 -0.0607,0.07999 -0.06127,0.07956 -0.06184,0.07911 -0.06241,0.07867 -0.06297,0.07822 -0.06353,0.07776 -0.06409,0.07731 -0.06464,0.07685 -0.06519,0.07638 -0.06573,0.07591 -0.06628,0.07544 -0.06682,0.07496 -0.06735,0.07448 -0.06788,0.07399 -0.06841,0.0735 -0.06894,0.07301 -0.06946,0.07252 -0.06998,0.07202 -0.07049,0.07151 -0.071,0.071 -0.07151,0.07049 -0.07202,0.06998 -0.07252,0.06946 -0.07301,0.06894 -0.07351,0.06841 -0.07399,0.06788 -0.07448,0.06735 -0.07496,0.06682 -0.07544,0.06628 -0.07591,0.06573 -0.07638,0.06519 -0.07685,0.06464 -0.07731,0.06409 -0.07776,0.06353 -0.07822,0.06297 -0.07867,0.06241 -0.07911,0.06184 -0.07956,0.06127 -0.07999,0.0607 -0.08043,0.06012 -0.08086,0.05955 -0.08128,0.05897 -0.0817,0.05838 -0.08212,0.05779 -0.08253,0.0572 -0.08294,0.05661 -0.08334,0.05601 -0.08374,0.05541 -0.08414,0.05481 -0.08453,0.05421 -0.08491,0.0536 -0.0853,0.05299 -0.08568,0.05237 -0.08605,0.05176 -0.08642,0.05114 -0.08678,0.05052 -0.08714,0.0499 -0.0875,0.04927 -0.08785,0.04864 -0.0882,0.04801 -0.08854,0.04738 -0.08888,0.04674 -0.08921,0.0461 -0.08954,0.04546 -0.08986,0.04482 -0.09018,0.04417 -0.09049,0.04352 -0.0908,0.04287 -0.09111,0.04222 -0.09141,0.04156 -0.0917,0.04091 -0.092,0.04025 -0.09228,0.03959 -0.09256,0.03893 -0.09284,0.03826 -0.09311,0.03759 -0.09338,0.03693 -0.09364,0.03625 -0.0939,0.03558 -0.09415,0.03491 -0.0944,0.03423 -0.09464,0.03355 -0.09488,0.03287 -0.09512,0.03219 -0.09534,0.03151 -0.09557,0.03083 -0.09579,0.03014 -0.096,0.02945 -0.09621,0.02876 -0.09641,0.02807 -0.09661,0.02738 -0.0968,0.02669 -0.09699,0.02599 -0.09718,0.02529 -0.09736,0.02459 -0.09753,0.0239 -0.0977,0.0232 -0.09786,0.0225 -0.09802,0.02179 -0.09818,0.02109 -0.09833,0.02038 -0.09847,0.01968 -0.09861,0.01897 -0.09874,0.01826 -0.09887,0.01756 -0.09899,0.01685 -0.09911,0.01614 -0.09922,0.01542 -0.09933,0.01471 -0.09943,0.014 -0.09953,0.01328 -0.09962,0.01257 -0.09971,0.01186 -0.0998,0.01114 -0.09987,0.01042 -0.09994,0.0097 -0.100013,0.009 -0.100074,0.0083 -0.100132,0.0076 -0.100183,0.0068 -0.100229,0.0061 -0.100271,0.0054 -0.100307,0.0047 -0.100338,0.004 -0.100363,0.0032 -0.100385,0.0025 -0.100399,0.0018 -0.100411,0.0011 L 11,20"
         id="path87"
         inkscape:connector-curvature="0" />
      <path
         style="fill:none;fill-rule:evenodd;stroke:#191919;stroke-width:0.34999999;stroke-miterlimit:4;stroke-dasharray:none"
         d="M -11,20 H 11"
         id="path89"
         inkscape:connector-curvature="0" />
      <path
         style="fill:none;fill-rule:evenodd;stroke:#191919;stroke-width:0.34999999;stroke-miterlimit:4;stroke-dasharray:none"
         d="M -15,-30 H 15"
         id="path91"
         inkscape:connector-curvature="0" />
      <path
         style="fill:none;fill-rule:evenodd;stroke:#191919;stroke-width:0.34999999;stroke-miterlimit:4;stroke-dasharray:none"
         d="m 15,-30 v -9"
         id="path93"
         inkscape:connector-curvature="0" />
      <path
         style="fill:none;fill-rule:evenodd;stroke:#191919;stroke-width:0.34999999;stroke-miterlimit:4;stroke-dasharray:none"
         d="M 15,-39 H -15"
         id="path95"
         inkscape:connector-curvature="0" />
      <path
         style="fill:none;fill-rule:evenodd;stroke:#191919;stroke-width:0.34999999;stroke-miterlimit:4;stroke-dasharray:none"
         d="m -15,-39 v 9"
         id="path97"
         inkscape:connector-curvature="0" />
      <path
         style="fill:none;fill-rule:evenodd;stroke:#191919;stroke-width:0.34999999;stroke-miterlimit:4;stroke-dasharray:none"
         d="m 11,0 m 0,0 -4.55e-4,0.10002038 -0.0014,0.10001212 -0.0023,0.0999956 -0.0032,0.0999708 -0.0041,0.0999377 -0.005,0.0998964 -0.0059,0.0998468 -0.0068,0.0997889 -0.0077,0.0997228 -0.0086,0.0996485 -0.0095,0.0995659 -0.01044,0.099475 -0.01134,0.099376 -0.01225,0.099269 -0.01315,0.099153 -0.01405,0.09903 -0.01495,0.098898 -0.01585,0.098758 -0.01675,0.09861 -0.01764,0.098453 -0.01854,0.098289 -0.01943,0.098116 -0.02032,0.097935 -0.02121,0.097747 -0.0221,0.09755 -0.02298,0.097345 -0.02387,0.097132 -0.02475,0.096911 -0.02563,0.096682 -0.02651,0.096445 -0.02739,0.096199 -0.02826,0.095947 -0.02913,0.095686 -0.03,0.095417 -0.03087,0.09514 -0.03173,0.094855 -0.03259,0.094563 -0.03345,0.094263 -0.0343,0.093955 -0.03516,0.093639 -0.03601,0.093316 -0.03685,0.092984 -0.0377,0.092645 -0.03854,0.092299 -0.03938,0.091944 -0.04021,0.091583 -0.04104,0.091213 -0.04187,0.090836 -0.042694,0.090452 -0.043515,0.09006 -0.044332,0.08966 -0.045145,0.089254 -0.045955,0.088839 -0.046761,0.088418 -0.047563,0.087989 -0.048361,0.087553 -0.049155,0.087109 -0.049945,0.086659 -0.050731,0.086201 -0.051513,0.085736 -0.05229,0.085265 -0.053063,0.084785 -0.053832,0.0843 -0.054596,0.083806 -0.055356,0.083307 -0.056111,0.0828 -0.056862,0.082286 -0.057608,0.081766 -0.058349,0.081239 -0.059085,0.080705 -0.059816,0.080164 -0.060543,0.079617 -0.061264,0.079063 -0.061981,0.078503 -0.062692,0.077936 -0.063398,0.077363 -0.064099,0.076783 -0.064794,0.076197 -0.065485,0.075605 -0.066169,0.075006 -0.066849,0.074401 -0.067522,0.073791 -0.06819,0.073173 -0.068853,0.07255 -0.06951,0.071921 -0.070161,0.071286 -0.070806,0.070645 -0.071446,0.069999 -0.072079,0.069346 -0.072707,0.068688 -0.073328,0.068024 -0.073944,0.067354 -0.074553,0.066679 -0.075156,0.065998 -0.075753,0.065312 -0.076344,0.064621 -0.076929,0.063924 -0.077507,0.063222 -0.078078,0.062515 -0.078643,0.061802 -0.079202,0.061084 -0.079754,0.060362 -0.0803,0.059634 -0.080839,0.058901 -0.081371,0.058164 -0.081897,0.057422 -0.082415,0.056675 -0.082927,0.055923 -0.083432,0.055166 -0.08393,0.054406 -0.084422,0.05364 -0.084906,0.05287 -0.085383,0.052096 -0.085853,0.051318 -0.086316,0.050535 -0.086772,0.049748 -0.087221,0.048957 -0.087663,0.048162 -0.088097,0.047363 -0.088524,0.04656 -0.088944,0.045753 -0.089356,0.044942 -0.089761,0.044128 -0.090158,0.04331 -0.090548,0.042488 -0.090931,0.041664 -0.091306,0.04083 -0.091674,0.04 -0.092034,0.03917 -0.092386,0.03833 -0.092731,0.03749 -0.093068,0.03664 -0.093397,0.03579 -0.093719,0.03495 -0.094033,0.03409 -0.094339,0.03323 -0.094637,0.03238 -0.094927,0.03151 -0.09521,0.03065 -0.095485,0.02978 -0.095752,0.02891 -0.09601,0.02804 -0.096262,0.02717 -0.096505,0.02629 -0.09674,0.02541 -0.096967,0.02453 -0.097186,0.02365 -0.097397,0.02276 -0.0976,0.02188 -0.097795,0.02099 -0.097981,0.0201 -0.09816,0.01921 -0.098331,0.01831 -0.098493,0.01742 -0.098647,0.01652 -0.098794,0.01563 -0.098931,0.01473 -0.099061,0.01383 -0.099183,0.01292 -0.099296,0.01202 -0.099402,0.01112 -0.099499,0.01021 -0.0995873,0.0093 -0.0996678,0.0084 -0.0997401,0.0075 -0.0998041,0.0066 -0.0998599,0.0057 -0.0999075,0.0048 -0.0999467,0.0039 -0.0999777,0.003 -0.10000049,0.002 -0.10001496,0.0011 -0.10002116,2.28e-4 -0.10001909,-6.83e-4 -0.10000876,-0.0016 -0.0999902,-0.0025 -0.0999633,-0.0034 -0.0999281,-0.0043 -0.0998847,-0.0052 -0.0998331,-0.0061 -0.0997732,-0.007 -0.099705,-0.0079 -0.0996286,-0.0089 -0.099544,-0.0098 -0.099451,-0.01067 -0.09935,-0.01157 -0.099241,-0.01247 -0.099123,-0.01337 -0.098998,-0.01427 -0.098864,-0.01518 -0.098721,-0.01607 -0.098571,-0.01697 -0.098413,-0.01787 -0.098246,-0.01876 -0.098072,-0.01965 -0.097889,-0.02054 -0.097698,-0.02143 -0.097499,-0.02232 -0.097292,-0.02321 -0.097077,-0.02409 -0.096854,-0.02497 -0.096623,-0.02585 -0.096384,-0.02673 -0.096137,-0.0276 -0.095882,-0.02848 -0.095619,-0.02935 -0.095348,-0.03022 -0.09507,-0.03108 -0.094783,-0.03194 -0.094489,-0.0328 -0.094187,-0.03366 -0.093876,-0.03452 -0.093559,-0.03537 -0.093233,-0.03622 -0.0929,-0.03707 -0.092559,-0.03791 -0.092211,-0.03875 -0.091855,-0.03959 -0.091491,-0.04042 -0.09112,-0.04125 -0.090741,-0.042076 -0.090354,-0.042899 -0.089961,-0.043719 -0.089559,-0.044535 -0.089151,-0.045348 -0.088735,-0.046157 -0.088311,-0.046962 -0.087881,-0.047763 -0.087443,-0.04856 -0.086998,-0.049353 -0.086545,-0.050142 -0.086086,-0.050927 -0.085619,-0.051707 -0.085145,-0.052484 -0.084665,-0.053256 -0.084177,-0.054023 -0.083682,-0.054787 -0.083181,-0.055545 -0.082672,-0.056299 -0.082157,-0.057049 -0.081635,-0.057793 -0.081106,-0.058533 -0.08057,-0.059268 -0.080028,-0.059999 -0.079479,-0.060724 -0.078924,-0.061444 -0.078362,-0.062159 -0.077793,-0.062869 -0.077218,-0.063574 -0.076637,-0.064273 -0.07605,-0.064967 -0.075456,-0.065656 -0.074855,-0.06634 -0.074249,-0.067017 -0.073637,-0.06769 -0.073018,-0.068356 -0.072394,-0.069018 -0.071763,-0.069673 -0.071127,-0.070323 -0.070484,-0.070967 -0.069836,-0.071605 -0.069182,-0.072237 -0.068522,-0.072863 -0.067857,-0.073483 -0.067186,-0.074097 -0.06651,-0.074705 -0.065828,-0.075306 -0.06514,-0.075902 -0.064447,-0.076491 -0.063749,-0.077074 -0.063046,-0.07765 -0.062337,-0.07822 -0.061623,-0.078784 -0.060904,-0.079341 -0.06018,-0.079891 -0.059451,-0.080435 -0.058718,-0.080973 -0.057979,-0.081503 -0.057235,-0.082027 -0.056487,-0.082544 -0.055734,-0.083054 -0.054977,-0.083557 -0.054215,-0.084054 -0.053448,-0.084543 -0.052677,-0.085026 -0.051902,-0.085501 -0.051122,-0.08597 -0.050339,-0.086431 -0.049551,-0.086885 -0.048758,-0.087332 -0.047962,-0.087772 -0.047162,-0.088204 -0.046358,-0.088629 -0.04555,-0.089047 -0.044739,-0.089458 -0.043924,-0.089861 -0.043105,-0.090257 -0.042282,-0.090645 -0.041456,-0.091026 -0.04063,-0.091399 -0.03979,-0.091764 -0.03896,-0.092123 -0.03812,-0.092473 -0.03728,-0.092816 -0.03643,-0.093151 -0.03558,-0.093478 -0.03473,-0.093798 -0.03388,-0.09411 -0.03302,-0.094414 -0.03216,-0.09471 -0.0313,-0.094999 -0.03043,-0.095279 -0.02956,-0.095552 -0.02869,-0.095817 -0.02782,-0.096074 -0.02695,-0.096323 -0.02607,-0.096564 -0.02519,-0.096797 -0.02431,-0.097022 -0.02343,-0.097239 -0.02254,-0.097448 -0.02166,-0.097649 -0.02077,-0.097842 -0.01988,-0.098027 -0.01898,-0.098203 -0.01809,-0.098372 -0.01719,-0.098532 -0.0163,-0.098685 -0.0154,-0.098829 -0.0145,-0.098965 -0.0136,-0.099093 -0.0127,-0.099212 -0.0118,-0.099323 -0.01089,-0.099427 -0.01,-0.099522 -0.0091,-0.0996082 -0.0082,-0.0996867 -0.0073,-0.0997569 -0.0064,-0.0998189 -0.0055,-0.0998726 -0.0045,-0.0999181 -0.0036,-0.0999553 -0.0027,-0.0999842 -0.0018,-0.10000488 -9.09e-4,-0.10001728 v -0.10002142 l 9.09e-4,-0.10001728 0.0018,-0.10000488 0.0027,-0.0999842 0.0036,-0.0999553 0.0045,-0.0999181 0.0055,-0.0998726 0.0064,-0.0998189 0.0073,-0.0997569 0.0082,-0.0996867 0.0091,-0.0996082 0.01,-0.099522 0.01089,-0.099427 0.0118,-0.099323 0.0127,-0.099212 0.0136,-0.099093 0.0145,-0.098965 0.0154,-0.098829 0.0163,-0.098685 0.01719,-0.098532 0.01809,-0.098372 0.01898,-0.098203 0.01988,-0.098027 0.02077,-0.097842 0.02166,-0.097649 0.02254,-0.097448 0.02343,-0.097239 0.02431,-0.097022 0.02519,-0.096797 0.02607,-0.096564 0.02695,-0.096323 0.02782,-0.096074 0.02869,-0.095817 0.02956,-0.095552 0.03043,-0.095279 0.0313,-0.094999 0.03216,-0.09471 0.03302,-0.094414 0.03388,-0.09411 0.03473,-0.093798 0.03558,-0.093478 0.03643,-0.093151 0.03728,-0.092816 0.03812,-0.092473 0.03896,-0.092123 0.03979,-0.091764 0.04063,-0.091399 0.041456,-0.091026 0.042282,-0.090645 0.043105,-0.090257 0.043924,-0.089861 0.044739,-0.089458 0.04555,-0.089047 0.046358,-0.088629 0.047162,-0.088204 0.047962,-0.087772 0.048758,-0.087332 0.049551,-0.086885 0.050339,-0.086431 0.051122,-0.08597 0.051902,-0.085501 0.052677,-0.085026 0.053448,-0.084543 0.054215,-0.084054 0.054977,-0.083557 0.055734,-0.083054 0.056487,-0.082544 0.057235,-0.082027 0.057979,-0.081503 0.058718,-0.080973 0.059451,-0.080435 0.06018,-0.079891 0.060904,-0.079341 0.061623,-0.078784 0.062337,-0.07822 0.063046,-0.07765 0.063749,-0.077074 0.064447,-0.076491 0.06514,-0.075902 0.065828,-0.075306 0.06651,-0.074705 0.067186,-0.074097 0.067857,-0.073483 0.068522,-0.072863 0.069182,-0.072237 0.069836,-0.071605 0.070484,-0.070967 0.071127,-0.070323 0.071763,-0.069673 0.072394,-0.069018 0.073018,-0.068356 0.073637,-0.06769 0.074249,-0.067017 0.074855,-0.06634 0.075456,-0.065656 0.07605,-0.064967 0.076637,-0.064273 0.077218,-0.063574 0.077793,-0.062869 0.078362,-0.062159 0.078924,-0.061444 0.079479,-0.060724 0.080028,-0.059999 0.08057,-0.059268 0.081106,-0.058533 0.081635,-0.057793 0.082157,-0.057049 0.082672,-0.056299 0.083181,-0.055545 0.083682,-0.054787 0.084177,-0.054023 0.084665,-0.053256 0.085145,-0.052484 0.085619,-0.051707 0.086086,-0.050927 0.086545,-0.050142 0.086998,-0.049353 0.087443,-0.04856 0.087881,-0.047763 0.088311,-0.046962 0.088735,-0.046157 0.089151,-0.045348 0.089559,-0.044535 0.089961,-0.043719 0.090354,-0.042899 0.090741,-0.042076 0.09112,-0.04125 0.091491,-0.04042 0.091855,-0.03959 0.092211,-0.03875 0.092559,-0.03791 0.0929,-0.03707 0.093233,-0.03622 0.093559,-0.03537 0.093876,-0.03452 0.094187,-0.03366 0.094489,-0.0328 0.094783,-0.03194 0.09507,-0.03108 0.095348,-0.03022 0.095619,-0.02935 0.095882,-0.02848 0.096137,-0.0276 0.096384,-0.02673 0.096623,-0.02585 0.096854,-0.02497 0.097077,-0.02409 0.097292,-0.02321 0.097499,-0.02232 0.097698,-0.02143 0.097889,-0.02054 0.098072,-0.01965 0.098246,-0.01876 0.098413,-0.01787 0.098571,-0.01697 0.098721,-0.01607 0.098864,-0.01518 0.098998,-0.01427 0.099123,-0.01337 0.099241,-0.01247 0.09935,-0.01157 0.099451,-0.01067 0.099544,-0.0098 0.0996286,-0.0089 0.099705,-0.0079 0.0997732,-0.007 0.0998331,-0.0061 0.0998847,-0.0052 0.0999281,-0.0043 0.0999633,-0.0034 0.0999902,-0.0025 0.10000876,-0.0016 0.10001909,-6.83e-4 0.10002116,2.28e-4 0.10001496,0.0011 0.10000049,0.002 0.0999777,0.003 0.0999467,0.0039 0.0999075,0.0048 0.0998599,0.0057 0.0998041,0.0066 0.0997401,0.0075 0.0996678,0.0084 0.0995873,0.0093 0.099499,0.01021 0.099402,0.01112 0.099296,0.01202 0.099183,0.01292 0.099061,0.01383 0.098931,0.01473 0.098794,0.01563 0.098647,0.01652 0.098493,0.01742 0.098331,0.01831 0.09816,0.01921 0.097981,0.0201 0.097795,0.02099 0.0976,0.02188 0.097397,0.02276 0.097186,0.02365 0.096967,0.02453 0.09674,0.02541 0.096505,0.02629 0.096262,0.02717 0.09601,0.02804 0.095752,0.02891 0.095485,0.02978 0.09521,0.03065 0.094927,0.03151 0.094637,0.03238 0.094339,0.03323 0.094033,0.03409 0.093719,0.03495 0.093397,0.03579 0.093068,0.03664 0.092731,0.03749 0.092386,0.03833 0.092034,0.03917 0.091674,0.04 0.091306,0.04083 0.090931,0.041664 0.090548,0.042488 0.090158,0.04331 0.089761,0.044128 0.089356,0.044942 0.088944,0.045753 0.088524,0.04656 0.088097,0.047363 0.087663,0.048162 0.087221,0.048957 0.086772,0.049748 0.086316,0.050535 0.085853,0.051318 0.085383,0.052096 0.084906,0.05287 0.084422,0.05364 0.08393,0.054406 0.083432,0.055166 0.082927,0.055923 0.082415,0.056675 0.081897,0.057422 0.081371,0.058164 0.080839,0.058901 0.0803,0.059634 0.079754,0.060362 0.079202,0.061084 0.078643,0.061802 0.078078,0.062515 0.077507,0.063222 0.076929,0.063924 0.076344,0.064621 0.075753,0.065312 0.075156,0.065998 0.074553,0.066679 0.073944,0.067354 0.073328,0.068024 0.072707,0.068688 0.072079,0.069346 0.071446,0.069999 0.070806,0.070645 0.070161,0.071286 0.06951,0.071921 0.068853,0.07255 0.06819,0.073173 0.067522,0.073791 0.066849,0.074401 0.066169,0.075006 0.065485,0.075605 0.064794,0.076197 0.064099,0.076783 0.063398,0.077363 0.062692,0.077936 0.061981,0.078503 0.061264,0.079063 0.060543,0.079617 0.059816,0.080164 0.059085,0.080705 0.058349,0.081239 0.057608,0.081766 0.056862,0.082286 0.056111,0.0828 0.055356,0.083307 0.054596,0.083806 0.053832,0.0843 0.053063,0.084785 0.05229,0.085265 0.051513,0.085736 0.050731,0.086201 0.049945,0.086659 0.049155,0.087109 0.048361,0.087553 0.047563,0.087989 0.046761,0.088418 0.045955,0.088839 0.045145,0.089254 0.044332,0.08966 0.043515,0.09006 0.042694,0.090452 0.04187,0.090836 0.04104,0.091213 0.04021,0.091583 0.03938,0.091944 0.03854,0.092299 0.0377,0.092645 0.03685,0.092984 0.03601,0.093316 0.03516,0.093639 0.0343,0.093955 0.03345,0.094263 0.03259,0.094563 0.03173,0.094855 0.03087,0.09514 0.03,0.095417 0.02913,0.095686 0.02826,0.095947 0.02739,0.096199 0.02651,0.096445 0.02563,0.096682 0.02475,0.096911 0.02387,0.097132 0.02298,0.097345 0.0221,0.09755 0.02121,0.097747 0.02032,0.097935 0.01943,0.098116 0.01854,0.098289 0.01764,0.098453 0.01675,0.09861 0.01585,0.098758 0.01495,0.098898 0.01405,0.09903 0.01315,0.099153 0.01225,0.099269 0.01134,0.099376 0.01044,0.099475 0.0095,0.0995659 0.0086,0.0996485 0.0077,0.0997228 0.0068,0.0997889 0.0059,0.0998468 0.005,0.0998964 0.0041,0.0999377 0.0032,0.0999708 0.0023,0.0999956 0.0014,0.10001212 L 11,0"
         id="path99"
         inkscape:connector-curvature="0" />
      <path
         style="fill:none;fill-rule:evenodd;stroke:#191919;stroke-width:0.34999999;stroke-miterlimit:4;stroke-dasharray:none"
         d="m 2,-109 m 0,0 -0.00253,0.10049 -0.00757,0.10023 -0.012598,0.0997 -0.017593,0.099 -0.022544,0.098 -0.027437,0.0967 -0.032261,0.0952 -0.037004,0.0935 -0.041653,0.0915 -0.046197,0.0893 -0.050624,0.0868 -0.054924,0.0842 -0.059084,0.0813 -0.063096,0.0782 -0.066948,0.075 -0.070631,0.0715 -0.074135,0.0679 -0.077452,0.0641 -0.080574,0.0601 -0.083492,0.056 -0.0861989,0.0517 -0.0886883,0.0473 -0.0909536,0.0428 -0.0929891,0.0382 -0.0947898,0.0334 -0.096351,0.0287 -0.0976688,0.0238 -0.0987399,0.0188 -0.0995616,0.0138 -0.10013173,0.009 -0.10044896,0.004 -0.10051245,-0.001 -0.10032202,-0.006 -0.0998782,-0.0114 -0.099182,-0.0164 -0.0982354,-0.0213 -0.0970405,-0.0262 -0.0956006,-0.0311 -0.0939191,-0.0358 -0.0920004,-0.0405 -0.0898493,-0.0451 -0.0874712,-0.0495 -0.084872,-0.0539 -0.082059,-0.0581 -0.079038,-0.0621 -0.075818,-0.066 -0.072406,-0.0697 -0.068811,-0.0733 -0.065042,-0.0766 -0.061109,-0.0798 -0.057022,-0.0828 -0.052791,-0.0855 -0.048426,-0.0881 -0.043939,-0.0904 -0.039341,-0.0925 -0.034644,-0.0944 -0.029859,-0.096 -0.024998,-0.0974 -0.020075,-0.0985 -0.015101,-0.0994 -0.010088,-0.10002 -0.00505,-0.10039 v -0.10052 l 0.00505,-0.10039 0.010088,-0.10002 0.015101,-0.0994 0.020075,-0.0985 0.024998,-0.0974 0.029859,-0.096 0.034644,-0.0944 0.039341,-0.0925 0.043939,-0.0904 0.048426,-0.0881 0.052791,-0.0855 0.057022,-0.0828 0.061109,-0.0798 0.065042,-0.0766 0.068811,-0.0733 0.072406,-0.0697 0.075818,-0.066 0.079038,-0.0621 0.082059,-0.0581 0.084872,-0.0539 0.0874712,-0.0495 0.0898493,-0.0451 0.0920004,-0.0405 0.0939191,-0.0358 0.0956006,-0.0311 0.0970405,-0.0262 0.0982354,-0.0213 0.099182,-0.0164 0.0998782,-0.0114 0.10032202,-0.006 0.10051245,-0.001 0.10044896,0.004 0.10013173,0.009 0.0995616,0.0138 0.0987399,0.0188 0.0976688,0.0238 0.096351,0.0287 0.0947898,0.0334 0.0929891,0.0382 0.0909536,0.0428 0.0886883,0.0473 0.0861989,0.0517 0.083492,0.056 0.080574,0.0601 0.077452,0.0641 0.074135,0.0679 0.070631,0.0715 0.066948,0.075 0.063096,0.0782 0.059084,0.0813 0.054924,0.0842 0.050624,0.0868 0.046197,0.0893 0.041653,0.0915 0.037004,0.0935 0.032261,0.0952 0.027437,0.0967 0.022544,0.098 0.017593,0.099 0.012598,0.0997 0.00757,0.10023 L 2,-109"
         id="path101"
         inkscape:connector-curvature="0" />
      <path
         style="fill:none;fill-rule:evenodd;stroke:#191919;stroke-width:0.34999999;stroke-miterlimit:4;stroke-dasharray:none"
         d="m 2,-59 m 0,0 -0.00253,0.100489 -0.00757,0.100234 -0.012598,0.09973 -0.017593,0.09897 -0.022544,0.09796 -0.027437,0.0967 -0.032261,0.0952 -0.037004,0.09346 -0.041653,0.09148 -0.046197,0.08928 -0.050624,0.08684 -0.054924,0.08419 -0.059084,0.08132 -0.063096,0.07825 -0.066948,0.07498 -0.070631,0.07152 -0.074135,0.06788 -0.077452,0.06407 -0.080574,0.0601 -0.083492,0.05598 -0.0861989,0.05171 -0.0886883,0.04732 -0.0909536,0.0428 -0.0929891,0.03818 -0.0947898,0.03345 -0.096351,0.02865 -0.0976688,0.02377 -0.0987399,0.01884 -0.0995616,0.01385 -0.10013173,0.0088 -0.10044896,0.0038 -0.10051245,-0.0013 -0.10032202,-0.0063 -0.0998782,-0.01134 -0.099182,-0.01635 -0.0982354,-0.02131 -0.0970405,-0.02622 -0.0956006,-0.03106 -0.0939191,-0.03583 -0.0920004,-0.0405 -0.0898493,-0.04507 -0.0874712,-0.04953 -0.084872,-0.05386 -0.082059,-0.05806 -0.079038,-0.06211 -0.075818,-0.066 -0.072406,-0.06973 -0.068811,-0.07328 -0.065042,-0.07664 -0.061109,-0.07981 -0.057022,-0.08278 -0.052791,-0.08554 -0.048426,-0.08809 -0.043939,-0.09041 -0.039341,-0.0925 -0.034644,-0.09436 -0.029859,-0.09598 -0.024998,-0.09736 -0.020075,-0.0985 -0.015101,-0.09938 -0.010088,-0.100012 -0.00505,-0.100394 v -0.10052 l 0.00505,-0.100394 0.010088,-0.100012 0.015101,-0.09938 0.020075,-0.0985 0.024998,-0.09736 0.029859,-0.09598 0.034644,-0.09436 0.039341,-0.0925 0.043939,-0.09041 0.048426,-0.08809 0.052791,-0.08554 0.057022,-0.08278 0.061109,-0.07981 0.065042,-0.07664 0.068811,-0.07328 0.072406,-0.06973 0.075818,-0.066 0.079038,-0.06211 0.082059,-0.05806 0.084872,-0.05386 0.0874712,-0.04953 0.0898493,-0.04507 0.0920004,-0.0405 0.0939191,-0.03583 0.0956006,-0.03106 0.0970405,-0.02622 0.0982354,-0.02131 0.099182,-0.01635 0.0998782,-0.01134 0.10032202,-0.0063 0.10051245,-0.0013 0.10044896,0.0038 0.10013173,0.0088 0.0995616,0.01385 0.0987399,0.01884 0.0976688,0.02377 0.096351,0.02865 0.0947898,0.03345 0.0929891,0.03818 0.0909536,0.0428 0.0886883,0.04732 0.0861989,0.05171 0.083492,0.05598 0.080574,0.0601 0.077452,0.06407 0.074135,0.06788 0.070631,0.07152 0.066948,0.07498 0.063096,0.07825 0.059084,0.08132 0.054924,0.08419 0.050624,0.08684 0.046197,0.08928 0.041653,0.09148 0.037004,0.09346 0.032261,0.0952 0.027437,0.0967 0.022544,0.09796 0.017593,0.09897 0.012598,0.09973 0.00757,0.100234 L 2,-59"
         id="path103"
         inkscape:connector-curvature="0" />
      <title
         id="title105">b'Shape2DView'</title>
    </g>
    <g
       id="Shape2DView-3"
       transform="matrix(0,-1,-1,0,142,194.12768)">
      <path
         inkscape:connector-curvature="0"
         id="Shape2DView_nwe0000-6"
         d="M -100,-20 V 20"
         style="fill:none;fill-rule:evenodd;stroke:#191919;stroke-width:0.34999999;stroke-miterlimit:4;stroke-dasharray:none" />
      <path
         inkscape:connector-curvature="0"
         id="Shape2DView_nwe0001-7"
         d="m -90,30 m 0,0 -0.100049,-5.01e-4 -0.100039,-0.0015 -0.100019,-0.0025 -0.09999,-0.0035 -0.09995,-0.0045 -0.0999,-0.0055 -0.09984,-0.0065 -0.09977,-0.0075 -0.09969,-0.0085 -0.0996,-0.0095 -0.0995,-0.01049 -0.09939,-0.01149 -0.09927,-0.01248 -0.09914,-0.01347 -0.099,-0.01446 -0.09885,-0.01545 -0.09869,-0.01644 -0.09852,-0.01743 -0.09834,-0.01841 -0.09815,-0.0194 -0.09795,-0.02038 -0.09774,-0.02136 -0.09753,-0.02233 -0.0973,-0.02331 -0.09706,-0.02428 -0.09681,-0.02525 -0.09655,-0.02622 -0.09629,-0.02718 -0.09601,-0.02814 -0.09572,-0.0291 -0.09543,-0.03006 -0.09512,-0.03101 -0.09481,-0.03196 -0.09448,-0.03291 -0.09415,-0.03385 -0.09381,-0.03479 -0.09345,-0.03573 -0.09309,-0.03666 -0.09272,-0.03759 -0.09234,-0.03852 -0.09195,-0.03944 -0.09155,-0.04036 -0.09114,-0.04127 -0.09072,-0.04218 -0.0903,-0.04309 -0.08986,-0.04399 -0.08942,-0.04489 -0.08896,-0.04578 -0.0885,-0.04667 -0.08803,-0.04755 -0.08755,-0.04843 -0.08706,-0.0493 -0.08656,-0.05017 -0.08606,-0.05103 -0.08554,-0.05189 -0.08502,-0.05274 -0.08449,-0.05359 -0.08395,-0.05444 -0.0834,-0.05527 -0.08284,-0.0561 -0.08227,-0.05693 -0.0817,-0.05775 -0.08112,-0.05856 -0.08053,-0.05937 -0.07993,-0.06018 -0.07932,-0.06097 -0.07871,-0.06176 -0.07809,-0.06255 -0.07746,-0.06333 -0.07682,-0.0641 -0.07618,-0.06486 -0.07552,-0.06562 -0.07486,-0.06638 -0.0742,-0.06712 -0.07352,-0.06786 -0.07284,-0.06859 -0.07215,-0.06932 -0.07145,-0.07003 -0.07075,-0.07075 -0.07004,-0.07145 -0.06932,-0.07215 -0.06859,-0.07284 -0.06786,-0.07352 -0.06712,-0.07419 -0.06637,-0.07486 -0.06562,-0.07552 -0.06486,-0.07618 -0.0641,-0.07682 -0.06333,-0.07746 -0.06255,-0.07809 -0.06176,-0.07871 -0.06097,-0.07933 -0.06018,-0.07993 -0.05937,-0.08053 -0.05857,-0.08112 -0.05775,-0.0817 -0.05693,-0.08227 -0.0561,-0.08284 -0.05527,-0.0834 -0.05443,-0.08395 -0.05359,-0.08449 -0.05275,-0.08502 -0.05189,-0.08554 -0.05103,-0.08606 -0.05017,-0.08656 -0.0493,-0.08706 -0.04843,-0.08755 -0.04755,-0.08803 -0.04667,-0.0885 -0.04578,-0.08896 -0.04489,-0.08942 -0.04399,-0.08986 -0.04309,-0.0903 -0.04218,-0.09072 -0.04127,-0.09114 -0.04036,-0.09155 -0.03944,-0.09195 -0.03852,-0.09234 -0.03759,-0.09272 -0.03666,-0.09309 -0.03573,-0.09345 -0.03479,-0.0938 -0.03385,-0.09415 -0.03291,-0.09448 -0.03196,-0.09481 -0.03101,-0.09512 -0.03006,-0.09543 -0.0291,-0.09572 -0.02814,-0.09601 -0.02718,-0.09629 -0.02622,-0.09655 -0.02525,-0.09681 -0.02428,-0.09706 -0.02331,-0.0973 -0.02233,-0.09753 -0.02136,-0.09774 -0.02038,-0.09795 -0.0194,-0.09815 -0.01841,-0.09834 -0.01743,-0.09852 -0.01644,-0.09869 -0.01545,-0.09885 -0.01446,-0.099 -0.01347,-0.09914 -0.01248,-0.09927 -0.01149,-0.09939 -0.01049,-0.0995 -0.0095,-0.0996 -0.0085,-0.09969 -0.0075,-0.09977 -0.0065,-0.09984 -0.0055,-0.0999 -0.0045,-0.09995 -0.0035,-0.09999 -0.0025,-0.100019 -0.0015,-0.100039 L -100,20"
         style="fill:none;fill-rule:evenodd;stroke:#191919;stroke-width:0.34999999;stroke-miterlimit:4;stroke-dasharray:none" />
      <path
         inkscape:connector-curvature="0"
         id="Shape2DView_nwe0002-5"
         d="M -90,30 H 90"
         style="fill:none;fill-rule:evenodd;stroke:#191919;stroke-width:0.34999999;stroke-miterlimit:4;stroke-dasharray:none" />
      <path
         inkscape:connector-curvature="0"
         id="Shape2DView_nwe0003-3"
         d="m 100,20 m 0,0 -5.01e-4,0.100049 -0.0015,0.100039 -0.0025,0.100019 -0.0035,0.09999 -0.0045,0.09995 -0.0055,0.0999 -0.0065,0.09984 -0.0075,0.09977 -0.0085,0.09969 -0.0095,0.0996 -0.01049,0.0995 -0.01149,0.09939 -0.01248,0.09927 -0.01347,0.09914 -0.01446,0.099 -0.01545,0.09885 -0.01644,0.09869 -0.01743,0.09852 -0.01841,0.09834 -0.0194,0.09815 -0.02038,0.09795 -0.02136,0.09774 -0.02233,0.09753 -0.02331,0.0973 -0.02428,0.09706 -0.02525,0.09681 -0.02622,0.09655 -0.02718,0.09629 -0.02814,0.09601 -0.0291,0.09572 -0.03006,0.09543 -0.03101,0.09512 -0.03196,0.09481 -0.03291,0.09448 -0.03385,0.09415 -0.03479,0.0938 -0.03573,0.09345 -0.03666,0.09309 -0.03759,0.09272 -0.03852,0.09234 -0.03944,0.09195 -0.04036,0.09155 -0.04127,0.09114 -0.04218,0.09072 -0.04309,0.0903 -0.04399,0.08986 -0.04489,0.08942 -0.04578,0.08896 -0.04667,0.0885 -0.04755,0.08803 -0.04843,0.08755 -0.0493,0.08706 -0.05017,0.08656 -0.05103,0.08606 -0.05189,0.08554 -0.05275,0.08502 -0.05359,0.08449 -0.05443,0.08395 -0.05527,0.0834 -0.0561,0.08284 -0.05693,0.08227 -0.05775,0.0817 -0.05857,0.08112 -0.05937,0.08053 -0.06018,0.07993 -0.06097,0.07933 -0.06176,0.07871 -0.06255,0.07809 -0.06333,0.07746 -0.0641,0.07682 -0.06486,0.07618 -0.06562,0.07552 -0.06637,0.07486 -0.06712,0.07419 -0.06786,0.07352 -0.06859,0.07284 -0.06932,0.07215 -0.07004,0.07145 -0.07075,0.07075 -0.07145,0.07003 -0.07215,0.06932 -0.07284,0.06859 -0.07352,0.06786 -0.0742,0.06712 -0.07486,0.06638 -0.07552,0.06562 -0.07618,0.06486 -0.07682,0.0641 -0.07746,0.06333 -0.07809,0.06255 -0.07871,0.06176 -0.07932,0.06097 -0.07993,0.06018 -0.08053,0.05937 -0.08112,0.05856 -0.0817,0.05775 -0.08227,0.05693 -0.08284,0.0561 -0.0834,0.05527 -0.08395,0.05444 -0.08449,0.05359 -0.08502,0.05274 -0.08554,0.05189 -0.08606,0.05103 -0.08656,0.05017 -0.08706,0.0493 -0.08755,0.04843 -0.08803,0.04755 -0.0885,0.04667 -0.08896,0.04578 -0.08942,0.04489 -0.08986,0.04399 -0.0903,0.04309 -0.09072,0.04218 -0.09114,0.04127 -0.09155,0.04036 -0.09195,0.03944 -0.09234,0.03852 -0.09272,0.03759 -0.09309,0.03666 -0.09345,0.03573 -0.09381,0.03479 -0.09415,0.03385 -0.09448,0.03291 -0.09481,0.03196 -0.09512,0.03101 -0.09543,0.03006 -0.09572,0.0291 -0.09601,0.02814 -0.09629,0.02718 -0.09655,0.02622 -0.09681,0.02525 -0.09706,0.02428 -0.0973,0.02331 -0.09753,0.02233 -0.09774,0.02136 -0.09795,0.02038 -0.09815,0.0194 -0.09834,0.01841 -0.09852,0.01743 -0.09869,0.01644 -0.09885,0.01545 -0.099,0.01446 -0.09914,0.01347 -0.09927,0.01248 -0.09939,0.01149 -0.0995,0.01049 -0.0996,0.0095 -0.09969,0.0085 -0.09977,0.0075 -0.09984,0.0065 -0.0999,0.0055 -0.09995,0.0045 -0.09999,0.0035 -0.100019,0.0025 -0.100039,0.0015 L 90,30"
         style="fill:none;fill-rule:evenodd;stroke:#191919;stroke-width:0.34999999;stroke-miterlimit:4;stroke-dasharray:none" />
      <path
         inkscape:connector-curvature="0"
         id="Shape2DView_nwe0004-5"
         d="M 100,20 V -20"
         style="fill:none;fill-rule:evenodd;stroke:#191919;stroke-width:0.34999999;stroke-miterlimit:4;stroke-dasharray:none" />
      <path
         inkscape:connector-curvature="0"
         id="Shape2DView_nwe0005-6"
         d="m 90,-30 m 0,0 0.100049,5.01e-4 0.100039,0.0015 0.100019,0.0025 0.09999,0.0035 0.09995,0.0045 0.0999,0.0055 0.09984,0.0065 0.09977,0.0075 0.09969,0.0085 0.0996,0.0095 0.0995,0.01049 0.09939,0.01149 0.09927,0.01248 0.09914,0.01347 0.099,0.01446 0.09885,0.01545 0.09869,0.01644 0.09852,0.01743 0.09834,0.01841 0.09815,0.0194 0.09795,0.02038 0.09774,0.02136 0.09753,0.02233 0.0973,0.02331 0.09706,0.02428 0.09681,0.02525 0.09655,0.02622 0.09629,0.02718 0.09601,0.02814 0.09572,0.0291 0.09543,0.03006 0.09512,0.03101 0.09481,0.03196 0.09448,0.03291 0.09415,0.03385 0.09381,0.03479 0.09345,0.03573 0.09309,0.03666 0.09272,0.03759 0.09234,0.03852 0.09195,0.03944 0.09155,0.04036 0.09114,0.04127 0.09072,0.04218 0.0903,0.04309 0.08986,0.04399 0.08942,0.04489 0.08896,0.04578 0.0885,0.04667 0.08803,0.04755 0.08755,0.04843 0.08706,0.0493 0.08656,0.05017 0.08606,0.05103 0.08554,0.05189 0.08502,0.05274 0.08449,0.05359 0.08395,0.05444 0.0834,0.05527 0.08284,0.0561 0.08227,0.05693 0.0817,0.05775 0.08112,0.05856 0.08053,0.05937 0.07993,0.06018 0.07932,0.06097 0.07871,0.06176 0.07809,0.06255 0.07746,0.06333 0.07682,0.0641 0.07618,0.06486 0.07552,0.06562 0.07486,0.06638 0.0742,0.06712 0.07352,0.06786 0.07284,0.06859 0.07215,0.06932 0.07145,0.07003 0.07075,0.07075 0.07004,0.07145 0.06932,0.07215 0.06859,0.07284 0.06786,0.07352 0.06712,0.07419 0.06637,0.07486 0.06562,0.07552 0.06486,0.07618 0.0641,0.07682 0.06333,0.07746 0.06255,0.07809 0.06176,0.07871 0.06097,0.07933 0.06018,0.07993 0.05937,0.08053 0.05857,0.08112 0.05775,0.0817 0.05693,0.08227 0.0561,0.08284 0.05527,0.0834 0.05443,0.08395 0.05359,0.08449 0.05275,0.08502 0.05189,0.08554 0.05103,0.08606 0.05017,0.08656 0.0493,0.08706 0.04843,0.08755 0.04755,0.08803 0.04667,0.0885 0.04578,0.08896 0.04489,0.08942 0.04399,0.08986 0.04309,0.0903 0.04218,0.09072 0.04127,0.09114 0.04036,0.09155 0.03944,0.09195 0.03852,0.09234 0.03759,0.09272 0.03666,0.09309 0.03573,0.09345 0.03479,0.0938 0.03385,0.09415 0.03291,0.09448 0.03196,0.09481 0.03101,0.09512 0.03006,0.09543 0.0291,0.09572 0.02814,0.09601 0.02718,0.09629 0.02622,0.09655 0.02525,0.09681 0.02428,0.09706 0.02331,0.0973 0.02233,0.09753 0.02136,0.09774 0.02038,0.09795 0.0194,0.09815 0.01841,0.09834 0.01743,0.09852 0.01644,0.09869 0.01545,0.09885 0.01446,0.099 0.01347,0.09914 0.01248,0.09927 0.01149,0.09939 0.01049,0.0995 0.0095,0.0996 0.0085,0.09969 0.0075,0.09977 0.0065,0.09984 0.0055,0.0999 0.0045,0.09995 0.0035,0.09999 0.0025,0.100019 0.0015,0.100039 L 100,-20"
         style="fill:none;fill-rule:evenodd;stroke:#191919;stroke-width:0.34999999;stroke-miterlimit:4;stroke-dasharray:none" />
      <path
         inkscape:connector-curvature="0"
         id="Shape2DView_nwe0006-2"
         d="M 90,-30 H -90"
         style="fill:none;fill-rule:evenodd;stroke:#191919;stroke-width:0.34999999;stroke-miterlimit:4;stroke-dasharray:none" />
      <path
         inkscape:connector-curvature="0"
         id="Shape2DView_nwe0007-9"
         d="m -100,-20 m 0,0 5.01e-4,-0.100049 0.0015,-0.100039 0.0025,-0.100019 0.0035,-0.09999 0.0045,-0.09995 0.0055,-0.0999 0.0065,-0.09984 0.0075,-0.09977 0.0085,-0.09969 0.0095,-0.0996 0.01049,-0.0995 0.01149,-0.09939 0.01248,-0.09927 0.01347,-0.09914 0.01446,-0.099 0.01545,-0.09885 0.01644,-0.09869 0.01743,-0.09852 0.01841,-0.09834 0.0194,-0.09815 0.02038,-0.09795 0.02136,-0.09774 0.02233,-0.09753 0.02331,-0.0973 0.02428,-0.09706 0.02525,-0.09681 0.02622,-0.09655 0.02718,-0.09629 0.02814,-0.09601 0.0291,-0.09572 0.03006,-0.09543 0.03101,-0.09512 0.03196,-0.09481 0.03291,-0.09448 0.03385,-0.09415 0.03479,-0.0938 0.03573,-0.09345 0.03666,-0.09309 0.03759,-0.09272 0.03852,-0.09234 0.03944,-0.09195 0.04036,-0.09155 0.04127,-0.09114 0.04218,-0.09072 0.04309,-0.0903 0.04399,-0.08986 0.04489,-0.08942 0.04578,-0.08896 0.04667,-0.0885 0.04755,-0.08803 0.04843,-0.08755 0.0493,-0.08706 0.05017,-0.08656 0.05103,-0.08606 0.05189,-0.08554 0.05275,-0.08502 0.05359,-0.08449 0.05443,-0.08395 0.05527,-0.0834 0.0561,-0.08284 0.05693,-0.08227 0.05775,-0.0817 0.05857,-0.08112 0.05937,-0.08053 0.06018,-0.07993 0.06097,-0.07933 0.06176,-0.07871 0.06255,-0.07809 0.06333,-0.07746 0.0641,-0.07682 0.06486,-0.07618 0.06562,-0.07552 0.06637,-0.07486 0.06712,-0.07419 0.06786,-0.07352 0.06859,-0.07284 0.06932,-0.07215 0.07004,-0.07145 0.07075,-0.07075 0.07145,-0.07003 0.07215,-0.06932 0.07284,-0.06859 0.07352,-0.06786 0.0742,-0.06712 0.07486,-0.06638 0.07552,-0.06562 0.07618,-0.06486 0.07682,-0.0641 0.07746,-0.06333 0.07809,-0.06255 0.07871,-0.06176 0.07932,-0.06097 0.07993,-0.06018 0.08053,-0.05937 0.08112,-0.05856 0.0817,-0.05775 0.08227,-0.05693 0.08284,-0.0561 0.0834,-0.05527 0.08395,-0.05444 0.08449,-0.05359 0.08502,-0.05274 0.08554,-0.05189 0.08606,-0.05103 0.08656,-0.05017 0.08706,-0.0493 0.08755,-0.04843 0.08803,-0.04755 0.0885,-0.04667 0.08896,-0.04578 0.08942,-0.04489 0.08986,-0.04399 0.0903,-0.04309 0.09072,-0.04218 0.09114,-0.04127 0.09155,-0.04036 0.09195,-0.03944 0.09234,-0.03852 0.09272,-0.03759 0.09309,-0.03666 0.09345,-0.03573 0.09381,-0.03479 0.09415,-0.03385 0.09448,-0.03291 0.09481,-0.03196 0.09512,-0.03101 0.09543,-0.03006 0.09572,-0.0291 0.09601,-0.02814 0.09629,-0.02718 0.09655,-0.02622 0.09681,-0.02525 0.09706,-0.02428 0.0973,-0.02331 0.09753,-0.02233 0.09774,-0.02136 0.09795,-0.02038 0.09815,-0.0194 0.09834,-0.01841 0.09852,-0.01743 0.09869,-0.01644 0.09885,-0.01545 0.099,-0.01446 0.09914,-0.01347 0.09927,-0.01248 0.09939,-0.01149 0.0995,-0.01049 0.0996,-0.0095 0.09969,-0.0085 0.09977,-0.0075 0.09984,-0.0065 0.0999,-0.0055 0.09995,-0.0045 0.09999,-0.0035 0.100019,-0.0025 0.100039,-0.0015 L -90,-30"
         style="fill:none;fill-rule:evenodd;stroke:#191919;stroke-width:0.34999999;stroke-miterlimit:4;stroke-dasharray:none" />
      <path
         inkscape:connector-curvature="0"
         id="Shape2DView_nwe0008-1"
         d="m -15,-23.5 v 9"
         style="fill:none;fill-rule:evenodd;stroke:#191919;stroke-width:0.34999999;stroke-miterlimit:4;stroke-dasharray:none" />
      <path
         inkscape:connector-curvature="0"
         id="Shape2DView_nwe0009-2"
         d="M 15,-23.5 H -15"
         style="fill:none;fill-rule:evenodd;stroke:#191919;stroke-width:0.34999999;stroke-miterlimit:4;stroke-dasharray:none" />
      <path
         inkscape:connector-curvature="0"
         id="Shape2DView_nwe0010-7"
         d="m 15,-14.5 v -9"
         style="fill:none;fill-rule:evenodd;stroke:#191919;stroke-width:0.34999999;stroke-miterlimit:4;stroke-dasharray:none" />
      <path
         inkscape:connector-curvature="0"
         id="Shape2DView_nwe0011-0"
         d="M -15,-14.5 H 15"
         style="fill:none;fill-rule:evenodd;stroke:#191919;stroke-width:0.34999999;stroke-miterlimit:4;stroke-dasharray:none" />
      <path
         inkscape:connector-curvature="0"
         id="Shape2DView_nwe0012-9"
         d="m -15,14.5 v 9"
         style="fill:none;fill-rule:evenodd;stroke:#191919;stroke-width:0.34999999;stroke-miterlimit:4;stroke-dasharray:none" />
      <path
         inkscape:connector-curvature="0"
         id="Shape2DView_nwe0013-3"
         d="M 15,14.5 H -15"
         style="fill:none;fill-rule:evenodd;stroke:#191919;stroke-width:0.34999999;stroke-miterlimit:4;stroke-dasharray:none" />
      <path
         inkscape:connector-curvature="0"
         id="Shape2DView_nwe0014-6"
         d="m 15,23.5 v -9"
         style="fill:none;fill-rule:evenodd;stroke:#191919;stroke-width:0.34999999;stroke-miterlimit:4;stroke-dasharray:none" />
      <path
         inkscape:connector-curvature="0"
         id="Shape2DView_nwe0015-0"
         d="M -15,23.5 H 15"
         style="fill:none;fill-rule:evenodd;stroke:#191919;stroke-width:0.34999999;stroke-miterlimit:4;stroke-dasharray:none" />
      <title
         id="title18">b'Shape2DView'</title>
    </g>
    <g
       id="Shape2DView-36"
       transform="matrix(0,-0.99999998,-0.99999998,0,44.632731,92.87232)">
      <path
         inkscape:connector-curvature="0"
         id="Shape2DView_nwe0000-7"
         d="M -15,-14.5 H -25"
         style="fill:none;fill-rule:evenodd;stroke:#191919;stroke-width:0.34999999;stroke-miterlimit:4;stroke-dasharray:none" />
      <path
         inkscape:connector-curvature="0"
         id="Shape2DView_nwe0001-5"
         d="m -25,-14.5 v 29"
         style="fill:none;fill-rule:evenodd;stroke:#191919;stroke-width:0.34999999;stroke-miterlimit:4;stroke-dasharray:none" />
      <path
         inkscape:connector-curvature="0"
         id="Shape2DView_nwe0002-3"
         d="m -25,14.5 h 10"
         style="fill:none;fill-rule:evenodd;stroke:#191919;stroke-width:0.34999999;stroke-miterlimit:4;stroke-dasharray:none" />
      <path
         inkscape:connector-curvature="0"
         id="Shape2DView_nwe0003-5"
         d="m -15,14.5 v 9"
         style="fill:none;fill-rule:evenodd;stroke:#191919;stroke-width:0.34999999;stroke-miterlimit:4;stroke-dasharray:none" />
      <path
         inkscape:connector-curvature="0"
         id="Shape2DView_nwe0004-62"
         d="M -15,23.5 H 15"
         style="fill:none;fill-rule:evenodd;stroke:#191919;stroke-width:0.34999999;stroke-miterlimit:4;stroke-dasharray:none" />
      <path
         inkscape:connector-curvature="0"
         id="Shape2DView_nwe0005-9"
         d="m 15,23.5 v -9"
         style="fill:none;fill-rule:evenodd;stroke:#191919;stroke-width:0.34999999;stroke-miterlimit:4;stroke-dasharray:none" />
      <path
         inkscape:connector-curvature="0"
         id="Shape2DView_nwe0006-1"
         d="M 15,14.5 H 25"
         style="fill:none;fill-rule:evenodd;stroke:#191919;stroke-width:0.34999999;stroke-miterlimit:4;stroke-dasharray:none" />
      <path
         inkscape:connector-curvature="0"
         id="Shape2DView_nwe0007-2"
         d="m 25,14.5 v -29"
         style="fill:none;fill-rule:evenodd;stroke:#191919;stroke-width:0.34999999;stroke-miterlimit:4;stroke-dasharray:none" />
      <path
         inkscape:connector-curvature="0"
         id="Shape2DView_nwe0008-7"
         d="M 25,-14.5 H 15"
         style="fill:none;fill-rule:evenodd;stroke:#191919;stroke-width:0.34999999;stroke-miterlimit:4;stroke-dasharray:none" />
      <path
         inkscape:connector-curvature="0"
         id="Shape2DView_nwe0009-0"
         d="m 15,-14.5 v -37"
         style="fill:none;fill-rule:evenodd;stroke:#191919;stroke-width:0.34999999;stroke-miterlimit:4;stroke-dasharray:none" />
      <path
         inkscape:connector-curvature="0"
         id="Shape2DView_nwe0010-9"
         d="M 15,-51.5 H -15"
         style="fill:none;fill-rule:evenodd;stroke:#191919;stroke-width:0.34999999;stroke-miterlimit:4;stroke-dasharray:none" />
      <path
         inkscape:connector-curvature="0"
         id="Shape2DView_nwe0011-3"
         d="m -15,-14.5 v -37"
         style="fill:none;fill-rule:evenodd;stroke:#191919;stroke-width:0.34999999;stroke-miterlimit:4;stroke-dasharray:none" />
      <path
         inkscape:connector-curvature="0"
         id="Shape2DView_nwe0012-6"
         d="m -7.5,-40 v 2"
         style="fill:none;fill-rule:evenodd;stroke:#191919;stroke-width:0.34999999;stroke-miterlimit:4;stroke-dasharray:none" />
      <path
         inkscape:connector-curvature="0"
         id="Shape2DView_nwe0013-0"
         d="m 7.5,-40 h -15"
         style="fill:none;fill-rule:evenodd;stroke:#191919;stroke-width:0.34999999;stroke-miterlimit:4;stroke-dasharray:none" />
      <path
         inkscape:connector-curvature="0"
         id="Shape2DView_nwe0014-62"
         d="m 7.5,-38 v -2"
         style="fill:none;fill-rule:evenodd;stroke:#191919;stroke-width:0.34999999;stroke-miterlimit:4;stroke-dasharray:none" />
      <path
         inkscape:connector-curvature="0"
         id="Shape2DView_nwe0015-6"
         d="m -7.5,-38 h 15"
         style="fill:none;fill-rule:evenodd;stroke:#191919;stroke-width:0.34999999;stroke-miterlimit:4;stroke-dasharray:none" />
      <title
         id="title18-1">b'Shape2DView'</title>
    </g>
  </g>
</svg>
