<?xml version="1.0"?>
<!DOCTYPE svg PUBLIC "-//W3C//DTD SVG 1.1//EN" "http://www.w3.org/Graphics/SVG/1.1/DTD/svg11.dtd">
<svg width="51.0mm" height="171.0mm" viewBox="0 0 51.0 171.0" xmlns="http://www.w3.org/2000/svg" version="1.1">
<g id="Shape2DView" transform="translate(25.500000,20.500000) scale(1,-1)">
<path id="Shape2DView_nwe0000"  d="M -10.999999999999996 20.0 M -10.999999999999996 20.0 L -11.100415342539785 19.99963987961771 L -11.20082551913507 19.998559536997515 L -11.301225364107106 19.996759027718472 L -11.401609712308675 19.99423844440916 L -11.501973399389799 19.99099791674293 L -11.602311262063422 19.98703761143122 L -11.702618138371053 19.98235773221498 L -11.802888867948315 19.97695851985419 L -11.903118292290424 19.97084025211549 L -12.003301255017579 19.964003243757862 L -12.103432602140236 19.95644784651646 L -12.203507182324246 19.948174449084508 L -12.303519847155886 19.93918347709329 L -12.403465451406719 19.929475393090282 L -12.503338853298278 19.919050696515328 L -12.603134914766615 19.907909923674953 L -12.702848501726617 19.896053647714787 L -12.802474484336127 19.883482478590057 L -12.90200773725987 19.870197063034237 L -13.001443139933123 19.856198084525733 L -13.100775576825132 19.841486263252765 L -13.199999937702309 19.82606235607629 L -13.299111117891119 19.809927156491067 L -13.398104018540682 19.793081494584847 L -13.496973546885112 19.775526236995663 L -13.595714616505509 19.75726228686724 L -13.694322147591615 19.73829058380253 L -13.792791067203177 19.71861210381539 L -13.89111630953092 19.698227859280347 L -13.98929281615714 19.677138898880543 L -14.087315536315971 19.655346307553756 L -14.185179427153209 19.6328512064366 L -14.282879453985732 19.609654752806858 L -14.380410590560546 19.585758140023913 L -14.477767819313339 19.56116259746739 L -14.574946131626614 19.535869390473884 L -14.67194052808738 19.50987982027188 L -14.768746018744329 19.483195223914795 L -14.86535762336456 19.45581697421221 L -14.961770371689791 19.42774647965923 L -15.05797930369205 19.398985184364037 L -15.153979469828858 19.369534567973574 L -15.249765931297855 19.339396145597448 L -15.345333760290877 19.308571467729973 L -15.44067804024748 19.277062120170402 L -15.535793866107875 19.244869723941346 L -15.630676344565261 19.211995935205387 L -15.725320594317582 19.178442445179858 L -15.819721746318635 19.144210980049856 L -15.913874944028578 19.10930330087942 L -16.007775343663752 19.07372120352095 L -16.101418114445902 19.037466518522805 L -16.194798438850682 19.000541111035126 L -16.2879115128555 18.962946880713897 L -16.380752546186677 18.924685761623202 L -16.473316762565865 18.885759722135727 L -16.56559939995578 18.846170764831513 L -16.657595710805182 18.805920926394897 L -16.749300962293123 18.765012277509776 L -16.84071043657243 18.72344692275304 L -16.931819431012418 18.681227000486327 L -17.02262325844081 18.638354682746 L -17.113117247384892 18.594832175131405 L -17.203296742311814 18.55066171669142 L -17.29315710386812 18.505845579809233 L -17.382693709118417 18.460386070085473 L -17.47190195178321 18.414285526219565 L -17.560777242475858 18.36754631988944 L -17.6493150089387 18.320170855629495 L -17.737510696278257 18.27216157070693 L -17.825359767199583 18.223520934996316 L -17.912857702239677 18.17425145085255 L -17.999999999999993 18.12435565298214 L -18.086782177378023 18.073836108312765 L -18.17319976979793 18.02269541586124 L -18.259248331440208 17.97093620659982 L -18.344923435470456 17.91856114332082 L -18.430220674267062 17.865572920499638 L -18.515135659648 17.81197426415614 L -18.599664023096555 17.75776793171441 L -18.683801415986064 17.702956711860917 L -18.767543509803673 17.647543424400993 L -18.850885996372966 17.591530920113822 L -18.933824588075645 17.53492208060576 L -19.016355018072083 17.47771981816208 L -19.09847304052085 17.41992707559715 L -19.180174430797155 17.36154682610305 L -19.261454985710138 17.302582073096616 L -19.342310523719167 17.243035850064892 L -19.42273688514891 17.18291122040911 L -19.50272993240337 17.12221127728707 L -19.582285550178728 17.060939143454018 L -19.661399645675047 16.999097971102 L -19.740068148806856 16.936690941697666 L -19.81828701241253 16.873721265818634 L -19.89605221246248 16.8101921829883 L -19.973359748266205 16.74610696150917 L -20.050205642678073 16.681468898294742 L -20.126585942301972 16.616281318699876 L -20.20249671769465 16.55054757634973 L -20.277934063567905 16.484271052967216 L -20.352894098989466 16.41745515819905 L -20.42737296758268 16.350103329440305 L -20.50136683772489 16.282219031657593 L -20.574871902744547 16.213805757210825 L -20.64788438111706 16.144867025673495 L -20.720400516659346 16.07540638365166 L -20.792416578723056 16.005427404601452 L -20.863928862386494 15.934933688645263 L -20.934933688645256 15.863928862386505 L -21.00542740460145 15.79241657872306 L -21.075406383651657 15.72040051665935 L -21.14486702567349 15.647884381117063 L -21.21380575721082 15.574871902744547 L -21.28221903165759 15.501366837724895 L -21.3501033294403 15.427372967582684 L -21.417455158199047 15.352894098989466 L -21.484271052967216 15.277934063567905 L -21.550547576349725 15.202496717694654 L -21.61628131869987 15.126585942301976 L -21.68146889829474 15.050205642678076 L -21.746106961509163 14.973359748266208 L -21.810192182988295 14.896052212462482 L -21.873721265818634 14.81828701241253 L -21.936690941697663 14.74006814880686 L -21.999097971101996 14.661399645675047 L -22.060939143454014 14.582285550178732 L -22.122211277287068 14.502729932403373 L -22.182911220409107 14.422736885148915 L -22.24303585006489 14.34231052371917 L -22.302582073096612 14.261454985710145 L -22.36154682610305 14.180174430797159 L -22.41992707559715 14.098473040520854 L -22.477719818162072 14.016355018072087 L -22.534922080605757 13.933824588075645 L -22.59153092011382 13.85088599637297 L -22.64754342440099 13.767543509803676 L -22.702956711860914 13.683801415986071 L -22.75776793171441 13.599664023096556 L -22.811974264156138 13.515135659648003 L -22.865572920499634 13.430220674267066 L -22.918561143320815 13.344923435470456 L -22.970936206599816 13.259248331440212 L -23.022695415861236 13.17319976979793 L -23.07383610831276 13.086782177378026 L -23.12435565298214 13.000000000000004 L -23.17425145085255 12.91285770223968 L -23.223520934996316 12.825359767199586 L -23.272161570706928 12.73751069627826 L -23.320170855629495 12.649315008938705 L -23.367546319889435 12.560777242475869 L -23.414285526219565 12.471901951783213 L -23.46038607008547 12.38269370911842 L -23.505845579809233 12.293157103868122 L -23.550661716691415 12.203296742311815 L -23.5948321751314 12.113117247384896 L -23.638354682745998 12.022623258440813 L -23.681227000486324 11.931819431012427 L -23.72344692275304 11.840710436572433 L -23.765012277509776 11.749300962293127 L -23.805920926394897 11.657595710805184 L -23.84617076483151 11.565599399955783 L -23.885759722135724 11.473316762565872 L -23.924685761623202 11.380752546186681 L -23.962946880713893 11.287911512855507 L -24.000541111035126 11.194798438850686 L -24.037466518522805 11.101418114445902 L -24.073721203520947 11.00777534366376 L -24.109303300879418 10.913874944028578 L -24.14421098004985 10.819721746318645 L -24.178442445179858 10.725320594317585 L -24.211995935205387 10.630676344565265 L -24.244869723941346 10.535793866107879 L -24.2770621201704 10.440678040247485 L -24.30857146772997 10.345333760290883 L -24.339396145597448 10.249765931297857 L -24.36953456797357 10.153979469828862 L -24.398985184364033 10.057979303692054 L -24.42774647965923 9.96177037168979 L -24.455816974212205 9.865357623364565 L -24.483195223914795 9.768746018744329 L -24.509879820271877 9.671940528087386 L -24.535869390473884 9.574946131626618 L -24.561162597467387 9.477767819313343 L -24.585758140023913 9.380410590560551 L -24.609654752806858 9.282879453985732 L -24.632851206436598 9.185179427153214 L -24.655346307553753 9.087315536315975 L -24.677138898880543 8.989292816157143 L -24.698227859280347 8.891116309530924 L -24.71861210381539 8.79279106720318 L -24.73829058380253 8.69432214759162 L -24.75726228686724 8.595714616505509 L -24.77552623699566 8.496973546885123 L -24.793081494584847 8.398104018540685 L -24.809927156491064 8.299111117891123 L -24.826062356076285 8.199999937702316 L -24.841486263252765 8.100775576825132 L -24.85619808452573 8.00144313993313 L -24.870197063034233 7.902007737259874 L -24.883482478590057 7.8024744843361304 L -24.896053647714787 7.70284850172662 L -24.90790992367495 7.603134914766615 L -24.919050696515324 7.503338853298285 L -24.929475393090282 7.403465451406719 L -24.93918347709329 7.303519847155896 L -24.948174449084508 7.20350718232425 L -24.95644784651646 7.10343260214024 L -24.964003243757862 7.003301255017586 L -24.970840252115487 6.903118292290424 L -24.97695851985419 6.802888867948322 L -24.98235773221498 6.702618138371056 L -24.98703761143122 6.6023112620634254 L -24.99099791674293 6.501973399389803 L -24.99423844440916 6.401609712308675 L -24.99675902771847 6.301225364107113 L -24.998559536997515 6.20082551913507 L -24.99963987961771 6.100415342539794 L -25.0 5.999999999999999 " stroke="#191919" stroke-width="0.35 px" style="stroke-width:0.35;stroke-miterlimit:4;stroke-dasharray:none;fill:none;fill-rule: evenodd "/>
<path id="Shape2DView_nwe0001"  d="M -25.0 -141.0 L -25.0 6.0 " stroke="#191919" stroke-width="0.35 px" style="stroke-width:0.35;stroke-miterlimit:4;stroke-dasharray:none;fill:none;fill-rule: evenodd "/>
<path id="Shape2DView_nwe0002"  d="M -25.0 -141.0 L -15.0 -141.0 " stroke="#191919" stroke-width="0.35 px" style="stroke-width:0.35;stroke-miterlimit:4;stroke-dasharray:none;fill:none;fill-rule: evenodd "/>
<path id="Shape2DView_nwe0003"  d="M -15.0 -141.0 L -15.0 -150.0 " stroke="#191919" stroke-width="0.35 px" style="stroke-width:0.35;stroke-miterlimit:4;stroke-dasharray:none;fill:none;fill-rule: evenodd "/>
<path id="Shape2DView_nwe0004"  d="M -15.0 -150.0 L 15.0 -150.0 " stroke="#191919" stroke-width="0.35 px" style="stroke-width:0.35;stroke-miterlimit:4;stroke-dasharray:none;fill:none;fill-rule: evenodd "/>
<path id="Shape2DView_nwe0005"  d="M 15.0 -150.0 L 15.0 -141.0 " stroke="#191919" stroke-width="0.35 px" style="stroke-width:0.35;stroke-miterlimit:4;stroke-dasharray:none;fill:none;fill-rule: evenodd "/>
<path id="Shape2DView_nwe0006"  d="M 15.0 -141.0 L 25.0 -141.0 " stroke="#191919" stroke-width="0.35 px" style="stroke-width:0.35;stroke-miterlimit:4;stroke-dasharray:none;fill:none;fill-rule: evenodd "/>
<path id="Shape2DView_nwe0007"  d="M 25.0 6.000000000000001 L 25.0 -141.0 " stroke="#191919" stroke-width="0.35 px" style="stroke-width:0.35;stroke-miterlimit:4;stroke-dasharray:none;fill:none;fill-rule: evenodd "/>
<path id="Shape2DView_nwe0008"  d="M 25.0 6.000000000000001 M 25.0 6.000000000000001 L 24.99963987961771 6.10041534253979 L 24.99855953699752 6.2008255191350745 L 24.996759027718472 6.301225364107111 L 24.994238444409163 6.401609712308681 L 24.990997916742934 6.5019733993898035 L 24.98703761143122 6.602311262063427 L 24.98235773221498 6.702618138371059 L 24.976958519854193 6.80288886794832 L 24.97084025211549 6.903118292290429 L 24.964003243757865 7.003301255017585 L 24.95644784651646 7.1034326021402405 L 24.94817444908451 7.203507182324252 L 24.939183477093295 7.303519847155893 L 24.929475393090286 7.403465451406723 L 24.919050696515328 7.503338853298283 L 24.907909923674953 7.6031349147666205 L 24.896053647714787 7.702848501726621 L 24.88348247859006 7.802474484336132 L 24.870197063034237 7.9020077372598765 L 24.856198084525733 8.001443139933127 L 24.841486263252765 8.100775576825137 L 24.82606235607629 8.199999937702316 L 24.809927156491067 8.299111117891123 L 24.793081494584847 8.398104018540687 L 24.775526236995667 8.496973546885119 L 24.75726228686724 8.595714616505512 L 24.73829058380253 8.69432214759162 L 24.71861210381539 8.792791067203185 L 24.69822785928035 8.891116309530924 L 24.677138898880543 8.989292816157146 L 24.655346307553756 9.087315536315977 L 24.632851206436605 9.185179427153212 L 24.609654752806858 9.282879453985737 L 24.585758140023913 9.380410590560551 L 24.56116259746739 9.477767819313343 L 24.535869390473884 9.574946131626618 L 24.50987982027188 9.671940528087385 L 24.483195223914798 9.768746018744332 L 24.455816974212212 9.865357623364563 L 24.427746479659234 9.961770371689795 L 24.398985184364037 10.057979303692054 L 24.369534567973574 10.153979469828863 L 24.339396145597448 10.249765931297858 L 24.308571467729973 10.345333760290881 L 24.2770621201704 10.440678040247484 L 24.24486972394135 10.535793866107877 L 24.211995935205387 10.630676344565265 L 24.17844244517986 10.725320594317587 L 24.144210980049856 10.819721746318642 L 24.10930330087942 10.913874944028581 L 24.073721203520954 11.007775343663758 L 24.037466518522805 11.101418114445906 L 24.000541111035126 11.194798438850686 L 23.962946880713897 11.287911512855509 L 23.924685761623202 11.380752546186685 L 23.88575972213573 11.47331676256587 L 23.846170764831513 11.565599399955783 L 23.8059209263949 11.657595710805182 L 23.765012277509776 11.749300962293127 L 23.72344692275304 11.840710436572436 L 23.681227000486327 11.931819431012425 L 23.638354682745998 12.022623258440817 L 23.59483217513141 12.113117247384896 L 23.550661716691422 12.203296742311814 L 23.505845579809236 12.293157103868122 L 23.460386070085473 12.382693709118424 L 23.414285526219565 12.471901951783217 L 23.36754631988944 12.560777242475865 L 23.3201708556295 12.649315008938704 L 23.27216157070693 12.73751069627826 L 23.223520934996316 12.825359767199588 L 23.17425145085255 12.91285770223968 L 23.124355652982143 13.0 L 23.07383610831276 13.08678217737803 L 23.022695415861243 13.173199769797929 L 22.97093620659982 13.259248331440212 L 22.91856114332082 13.344923435470458 L 22.865572920499638 13.430220674267066 L 22.81197426415614 13.515135659648003 L 22.757767931714415 13.599664023096555 L 22.702956711860917 13.68380141598607 L 22.647543424400993 13.767543509803676 L 22.591530920113822 13.85088599637297 L 22.53492208060576 13.933824588075646 L 22.47771981816208 14.016355018072087 L 22.41992707559715 14.098473040520858 L 22.361546826103055 14.180174430797159 L 22.302582073096616 14.261454985710145 L 22.243035850064892 14.34231052371917 L 22.18291122040911 14.422736885148915 L 22.12221127728707 14.502729932403376 L 22.06093914345402 14.582285550178728 L 21.999097971102 14.661399645675047 L 21.93669094169767 14.74006814880686 L 21.873721265818638 14.818287012412533 L 21.8101921829883 14.896052212462486 L 21.74610696150917 14.973359748266208 L 21.681468898294742 15.05020564267808 L 21.616281318699876 15.126585942301976 L 21.55054757634973 15.202496717694654 L 21.48427105296722 15.277934063567905 L 21.41745515819905 15.35289409898947 L 21.3501033294403 15.427372967582684 L 21.282219031657597 15.501366837724891 L 21.213805757210825 15.574871902744551 L 21.1448670256735 15.647884381117066 L 21.07540638365166 15.72040051665935 L 21.005427404601456 15.79241657872306 L 20.934933688645263 15.863928862386501 L 20.8639288623865 15.934933688645263 L 20.79241657872306 16.005427404601456 L 20.720400516659353 16.07540638365166 L 20.647884381117066 16.1448670256735 L 20.574871902744547 16.213805757210825 L 20.50136683772489 16.282219031657597 L 20.427372967582684 16.3501033294403 L 20.352894098989466 16.41745515819905 L 20.277934063567905 16.48427105296722 L 20.20249671769465 16.55054757634973 L 20.126585942301976 16.616281318699876 L 20.05020564267808 16.681468898294742 L 19.97335974826621 16.74610696150917 L 19.896052212462486 16.8101921829883 L 19.818287012412533 16.873721265818638 L 19.74006814880686 16.93669094169767 L 19.661399645675047 16.999097971102 L 19.582285550178728 17.06093914345402 L 19.502729932403376 17.12221127728707 L 19.422736885148915 17.18291122040911 L 19.34231052371917 17.243035850064892 L 19.261454985710145 17.302582073096616 L 19.18017443079716 17.361546826103055 L 19.098473040520858 17.41992707559715 L 19.016355018072087 17.477719818162075 L 18.933824588075645 17.53492208060576 L 18.85088599637297 17.591530920113822 L 18.767543509803676 17.647543424400993 L 18.68380141598607 17.702956711860917 L 18.599664023096555 17.757767931714415 L 18.515135659648006 17.811974264156138 L 18.430220674267066 17.865572920499638 L 18.344923435470456 17.91856114332082 L 18.25924833144021 17.97093620659982 L 18.173199769797932 18.02269541586124 L 18.08678217737803 18.073836108312765 L 18.0 18.124355652982143 L 17.91285770223968 18.174251450852555 L 17.825359767199586 18.223520934996316 L 17.737510696278264 18.27216157070693 L 17.649315008938707 18.3201708556295 L 17.560777242475865 18.36754631988944 L 17.471901951783217 18.414285526219565 L 17.38269370911842 18.460386070085473 L 17.293157103868122 18.505845579809236 L 17.203296742311817 18.55066171669142 L 17.113117247384896 18.594832175131405 L 17.022623258440817 18.638354682745998 L 16.931819431012425 18.681227000486327 L 16.840710436572436 18.72344692275304 L 16.749300962293127 18.765012277509776 L 16.657595710805182 18.8059209263949 L 16.565599399955786 18.846170764831513 L 16.473316762565872 18.88575972213573 L 16.380752546186685 18.924685761623202 L 16.28791151285551 18.962946880713897 L 16.194798438850686 19.00054111103513 L 16.101418114445906 19.037466518522805 L 16.00777534366376 19.07372120352095 L 15.913874944028583 19.10930330087942 L 15.819721746318644 19.144210980049856 L 15.725320594317587 19.17844244517986 L 15.630676344565266 19.211995935205387 L 15.535793866107877 19.24486972394135 L 15.440678040247487 19.277062120170402 L 15.345333760290881 19.308571467729973 L 15.24976593129786 19.339396145597448 L 15.153979469828863 19.369534567973574 L 15.057979303692056 19.398985184364037 L 14.961770371689793 19.427746479659234 L 14.865357623364567 19.455816974212212 L 14.768746018744332 19.483195223914798 L 14.671940528087386 19.50987982027188 L 14.574946131626618 19.535869390473884 L 14.477767819313343 19.56116259746739 L 14.380410590560551 19.585758140023916 L 14.282879453985737 19.609654752806858 L 14.185179427153212 19.632851206436605 L 14.087315536315979 19.655346307553756 L 13.989292816157144 19.677138898880546 L 13.891116309530926 19.69822785928035 L 13.792791067203183 19.71861210381539 L 13.69432214759162 19.73829058380253 L 13.595714616505514 19.757262286867242 L 13.49697354688512 19.775526236995663 L 13.398104018540687 19.79308149458485 L 13.299111117891123 19.809927156491067 L 13.199999937702316 19.82606235607629 L 13.100775576825137 19.841486263252765 L 13.001443139933128 19.856198084525733 L 12.90200773725988 19.870197063034237 L 12.802474484336132 19.88348247859006 L 12.70284850172662 19.896053647714787 L 12.60313491476662 19.907909923674953 L 12.503338853298283 19.919050696515328 L 12.403465451406724 19.929475393090286 L 12.303519847155895 19.939183477093295 L 12.203507182324252 19.94817444908451 L 12.103432602140241 19.956447846516465 L 12.003301255017584 19.964003243757865 L 11.90311829229043 19.97084025211549 L 11.80288886794832 19.976958519854193 L 11.702618138371061 19.98235773221498 L 11.602311262063427 19.98703761143122 L 11.501973399389804 19.990997916742934 L 11.40160971230868 19.994238444409163 L 11.301225364107111 19.996759027718472 L 11.200825519135075 19.99855953699752 L 11.100415342539792 19.999639879617714 L 11.0 20.0 " stroke="#191919" stroke-width="0.35 px" style="stroke-width:0.35;stroke-miterlimit:4;stroke-dasharray:none;fill:none;fill-rule: evenodd "/>
<path id="Shape2DView_nwe0009"  d="M -10.999999999999995 20.0 L 10.999999999999998 20.0 " stroke="#191919" stroke-width="0.35 px" style="stroke-width:0.35;stroke-miterlimit:4;stroke-dasharray:none;fill:none;fill-rule: evenodd "/>
<path id="Shape2DView_nwe0010"  d="M -15.0 -30.0 L 15.0 -30.0 " stroke="#191919" stroke-width="0.35 px" style="stroke-width:0.35;stroke-miterlimit:4;stroke-dasharray:none;fill:none;fill-rule: evenodd "/>
<path id="Shape2DView_nwe0011"  d="M 15.0 -30.0 L 15.0 -39.0 " stroke="#191919" stroke-width="0.35 px" style="stroke-width:0.35;stroke-miterlimit:4;stroke-dasharray:none;fill:none;fill-rule: evenodd "/>
<path id="Shape2DView_nwe0012"  d="M 15.0 -39.0 L -15.0 -39.0 " stroke="#191919" stroke-width="0.35 px" style="stroke-width:0.35;stroke-miterlimit:4;stroke-dasharray:none;fill:none;fill-rule: evenodd "/>
<path id="Shape2DView_nwe0013"  d="M -15.0 -39.0 L -15.0 -30.0 " stroke="#191919" stroke-width="0.35 px" style="stroke-width:0.35;stroke-miterlimit:4;stroke-dasharray:none;fill:none;fill-rule: evenodd "/>
<path id="Shape2DView_nwe0014"  d="M 11.0 0.0 M 11.0 0.0 L 10.999545259809747 0.1000203849069801 L 10.99818107683692 0.20003250012507623 L 10.995907563872215 0.30002807664914266 L 10.992724908889766 0.39999884684145315 L 10.988633375031592 0.49993654511527036 L 10.983633300585858 0.5998329086182438 L 10.977725098958889 0.6996796779155835 L 10.970909258641 0.7994685976729499 L 10.96318634316611 0.8991914173390061 L 10.954556991065129 0.9988398918275722 L 10.945021915813193 1.0984057821993305 L 10.934581905770651 1.1978808563430212 L 10.923237824117896 1.2972568896560723 L 10.91099060878399 1.3965256657246132 L 10.897841272369122 1.4956789770028032 L 10.883790902060882 1.594708625491437 L 10.86884065954437 1.6936064234157522 L 10.852991780906159 1.7923641939023942 L 10.836245576532079 1.8909737716554842 L 10.818603430998888 1.9894270036317216 L 10.80006680295979 2.0877157497144814 L 10.780637225023833 2.185831883386837 L 10.760316303629189 2.2837672924034633 L 10.739105718910348 2.3815138794613544 L 10.717007224559183 2.4790635628693116 L 10.694022647679974 2.576408277216135 L 10.670153888638332 2.6735399740374772 L 10.645402920904077 2.770450622481284 L 10.619771790888084 2.8671322099717895 L 10.593262617773064 2.9635767428719957 L 10.565877593338367 3.0597762471445873 L 10.537618981778765 3.155722769011221 L 10.508489119517236 3.251408375610153 L 10.4784904150118 3.3468251556521174 L 10.447625348556384 3.4419652200744397 L 10.41589647207575 3.5368207026933054 L 10.383306408914502 3.6313837608541264 L 10.349857853620188 3.7256465760799853 L 10.31555357172052 3.8196013547180576 L 10.28039639949471 3.9132403285839965 L 10.244389243738976 4.006555755604202 L 10.207535081526201 4.099539920455942 L 10.169836959959788 4.192185135205248 L 10.131297995921738 4.28448373994256 L 10.091921375814925 4.37642810341605 L 10.051710355299665 4.468010623662559 L 10.010668259024524 4.559223728636149 L 9.968798480351442 4.650059876834146 L 9.926104481075168 4.740511557920671 L 9.88258979113704 4.830571293347607 L 9.838258008333126 4.920231636972911 L 9.793112798016761 5.009485175676272 L 9.747157892795496 5.098324529972023 L 9.700397092222488 5.186742354619274 L 9.652834262482342 5.27473133922923 L 9.604473336071466 5.362284208869597 L 9.55531831147293 5.449393724666084 L 9.50537325282587 5.536052684400913 L 9.454642289589458 5.6222539231082935 L 9.403129616201493 5.70799031366683 L 9.350839491731591 5.7932547673887855 L 9.297776239529052 5.878040234606173 L 9.243944246865404 5.962339705253633 L 9.189347964571663 6.0461462094480165 L 9.133991906670339 6.129452818064657 L 9.077880650002207 6.212252643310273 L 9.02101883384792 6.294538839292449 L 8.963411159544396 6.376304602585653 L 8.905062390096143 6.4575431727937485 L 8.845977349781439 6.53824783310894 L 8.786160923753457 6.618411910867124 L 8.725618057636371 6.698028778099576 L 8.664353757116446 6.777091852080958 L 8.602373087528171 6.855594595873581 L 8.53968117343545 6.933530518867869 L 8.476283198207906 7.0108931773190175 L 8.412184403592327 7.087676174879746 L 8.34739008927927 7.163873163129163 L 8.281905612464879 7.239477842097642 L 8.215736387407967 7.314483960787712 L 8.148887884982349 7.388885317690883 L 8.081365632224518 7.462675761300395 L 8.013175211876666 7.5358491906198175 L 7.944322261925109 7.608399555667481 L 7.874812475134127 7.680320857976698 L 7.804651598575301 7.751607151091702 L 7.733845433152329 7.822252541059312 L 7.66239983312142 7.892251186916242 L 7.59032070560725 7.961597301172036 L 7.517614010114581 8.030285150287563 L 7.44428575803551 8.098309055149086 L 7.370342012152455 8.165663391537793 L 7.295788886136885 8.232342590594826 L 7.220632544043833 8.298341139281698 L 7.144879199802269 8.363653580836123 L 7.068535116701311 8.42827451522317 L 6.991606606872394 8.492198599581753 L 6.91410003076737 8.555420548666364 L 6.836021796632631 8.617935135284066 L 6.757378359979278 8.679737190726673 L 6.678176223049373 8.740821605198107 L 6.59842193427834 8.801183328236863 L 6.51812208775353 8.860817369133594 L 6.437283322669031 8.919718797343736 L 6.35591232277674 8.977882742895165 L 6.274015815833738 9.035304396790853 L 6.191600573046056 9.091979011406467 L 6.10867340850882 9.147901900882914 L 6.025241178642856 9.203068441513755 L 5.941310781627822 9.257474072127504 L 5.856889156831841 9.311114294464739 L 5.771983284237775 9.363984673550021 L 5.6866001838661075 9.41608083805858 L 5.600746915194527 9.46739848067773 L 5.514430576574263 9.517933358463004 L 5.427658304643172 9.567681293188961 L 5.340437273735704 9.616638171694635 L 5.25277469528971 9.66479994622362 L 5.164677817250205 9.71216263475873 L 5.076153923470117 9.75872232135124 L 4.987210333108043 9.804475156444651 L 4.897854400023112 9.849417357192975 L 4.808093512166964 9.893545207773498 L 4.717935090972909 9.936855059694011 L 4.627386590742335 9.979343332094453 L 4.536455498028365 10.021006512043 L 4.445149331016899 10.061841154826487 L 4.353475638904978 10.101843884235238 L 4.261442001276638 10.141011392842202 L 4.169056027476224 10.179340442276413 L 4.076325355979242 10.216827863490737 L 3.983257653760822 10.253470557023892 L 3.8898606156618007 10.289265493256709 L 3.7961419637525227 10.324209712662618 L 3.702109446694367 10.358300326052355 L 3.607770839099095 10.391534514812825 L 3.5131339408860494 10.423909531140149 L 3.4182065766372443 10.455422698266862 L 3.3229965949504443 10.48607141068321 L 3.2275118677902257 10.515853134352593 L 3.131760289837132 10.544765406921067 L 3.035749777834941 10.572805837920939 L 2.9394882699361076 10.599972108968402 L 2.842983725045437 10.626261973955224 L 2.746244122162036 10.65167325923446 L 2.6492774597196154 10.676203863800165 L 2.552091754925185 10.699851759461104 L 2.4546950430961743 10.722614991008447 L 2.3570953769960905 10.74449167637742 L 2.259300826168701 10.765480006802921 L 2.161319476270849 10.785578246969067 L 2.0631594284039356 10.80478473515266 L 1.9648287984441135 10.8230978833606 L 1.866335716371272 10.840516177461152 L 1.7676883255968416 10.857038177309162 L 1.6688947822905011 10.872662516865109 L 1.5699632547058338 10.88738790430806 L 1.4709019225049573 10.901213122142472 L 1.3717189760822497 10.914137027298853 L 1.2724226158871472 10.926158551228282 L 1.1730210517461506 10.937276699990742 L 1.0735225021840165 10.947490554337309 L 0.973935193744267 10.956799269786151 L 0.8742673603090112 10.965202076692353 L 0.7745272424181627 10.972698280311553 L 0.6747230865881166 10.979287260857372 L 0.574863144629934 10.984968473552675 L 0.4749556729670656 10.989741448674595 L 0.3750089319527293 10.993605791593387 L 0.27503118518692443 10.996561182805044 L 0.17503069883321465 10.998607377957718 L 0.07501574093527313 10.999744207871924 L -0.025005419266726246 10.999971578554524 L -0.12502451201979323 10.999289471206502 L -0.2250332677418816 10.997697942224518 L -0.3250234177056089 10.995197123196244 L -0.42498669472192196 10.991787220889483 L -0.5249148338236097 10.987468517235074 L -0.6247995729486793 10.982241369303589 L -0.724632653623447 10.976106209275795 L -0.8244058216453446 10.969063544406936 L -0.9241108277653959 10.96111395698479 L -1.0237394283702361 10.952258104281517 L -1.1232833861637261 10.942496718499328 L -1.222734470847992 10.931830606709934 L -1.3220844598039114 10.920260650787828 L -1.4213251387709664 10.907787807337366 L -1.520448302526377 10.894413107613675 L -1.6194457555635404 10.880137657437393 L -1.7183093127696165 10.86496263710323 L -1.817030800102272 10.8488893012824 L -1.9156020552655253 10.831918978918855 L -2.0140149283845807 10.814053073119442 L -2.11226128267969 10.795293061037869 L -2.21033299513888 10.775640493752581 L -2.3082219571895735 10.755096996138526 L -2.405920075369006 10.733664266732792 L -2.503419271993378 10.711344077594191 L -2.6007114858257445 10.688138274156731 L -2.6977886727425022 10.664048775077045 L -2.7946428063984747 10.639077572075752 L -2.8912658788905476 10.613226729772773 L -2.9876499014197355 10.58649838551665 L -3.083786904951727 10.55889474920781 L -3.1796689408757435 10.530418103115855 L -3.2752880816617393 10.501070801690872 L -3.37063642151585 10.470855271368753 L -3.4657060770340293 10.439774010370598 L -3.5604891878538756 10.407829588496135 L -3.654977917304509 10.375024646911275 L -3.7491644530545067 10.341361897929717 L -3.8430410077578405 10.306844124788713 L -3.9365998196977112 10.271474181418943 L -4.029833153428316 10.235254992208548 L -4.1227333004143984 10.198189551761342 L -4.215292579668589 10.160280924649227 L -4.307503338386485 10.121532245158798 L -4.399357952579354 10.081946717032222 L -4.490848827704525 10.04152761320233 L -4.581968399293273 10.000278275522028 L -4.672709133576273 9.95820211448798 L -4.763063528106474 9.915302608958635 L -4.8530241123794085 9.871583305866595 L -4.942583448450857 9.827047819925353 L -5.031734131551811 9.781699833330428 L -5.120468790700719 9.735543095454918 L -5.208780089312885 9.688581422539507 L -5.2966607258070875 9.640818697376936 L -5.384103434209257 9.59225886899098 L -5.471100984753244 9.54290595230992 L -5.557646184478554 9.492764027834621 L -5.643731877825092 9.441837241301126 L -5.729350947224737 9.390129803337917 L -5.814496313689884 9.337645989117748 L -5.8991609373986815 9.284390138004193 L -5.983337818277109 9.230366653192869 L -6.067019996577756 9.175580001347361 L -6.15020055345521 9.12003471222995 L -6.232872611538165 9.063735378327051 L -6.3150293354979885 9.006686654469547 L -6.396663932613909 8.948893257447892 L -6.477769653334611 8.890359965622157 L -6.5583397918363 8.83109161852693 L -6.638367686577135 8.771093116471203 L -6.7178467208480095 8.710369420133205 L -6.796770323319627 8.648925550150238 L -6.875131968585801 8.58676658670361 L -6.95292517770299 8.523897669098558 L -7.030143518725971 8.460323995339376 L -7.106780607239644 8.3960508216996 L -7.182830106886875 8.331083462287452 L -7.258285729892403 8.265427288606457 L -7.333141237582704 8.199087729111332 L -7.407390440901822 8.132070268759136 L -7.481027200923052 8.064380448555822 L -7.554045429356525 7.996023865098065 L -7.6264390890526 7.927006170110538 L -7.698202194500975 7.857333069978667 L -7.769328812325618 7.787010325276768 L -7.839813061775303 7.7160437502918136 L -7.909649115209854 7.644439212542668 L -7.978831198581946 7.572202632295005 L -8.047353591914542 7.499339982071763 L -8.115210629773788 7.425857286159392 L -8.182396701737442 7.35176062010973 L -8.248906252858763 7.277056110237684 L -8.314733784125746 7.201749933114724 L -8.379873852915845 7.125848315058171 L -8.444321073445906 7.0493575316164385 L -8.508070117217514 6.97228390705014 L -8.571115713457525 6.894633813809223 L -8.633452649553856 6.816413672006085 L -8.695075771486481 6.737629948884755 L -8.755979984253537 6.658289158286189 L -8.816160252292617 6.5783978601096935 L -8.875611599897072 6.4979626597705655 L -8.934329111627425 6.416990207653953 L -8.992307932717774 6.335487198565001 L -9.04954326947719 6.253460371175314 L -9.106030389686044 6.170916507465826 L -9.161764622987294 6.0878624321660295 L -9.21674136127259 6.004305012189761 L -9.270956059063318 5.920251156067382 L -9.324404233886384 5.835707813374629 L -9.377081466644842 5.750681974158004 L -9.428983401983277 5.665180668356823 L -9.480105748647867 5.579210965222022 L -9.530444279841232 5.492779972731618 L -9.579994833571861 5.4058948370030695 L -9.628753312998267 5.3185627417023955 L -9.676715686767679 5.23079090745026 L -9.723877989349377 5.142586591224954 L -9.770236321362553 5.053957085762396 L -9.815786849898707 4.964909718953167 L -9.86052580883857 4.875451853236626 L -9.904449499163468 4.785590884992211 L -9.947554289261165 4.695334243927883 L -9.989836615226121 4.604689392465852 L -10.031292981154166 4.513663825125565 L -10.071919959431531 4.422265067904086 L -10.111714191018251 4.330500677653811 L -10.150672385725873 4.238378241457717 L -10.188791322489518 4.145905376002003 L -10.226067849634171 4.0530897269463875 L -10.262498885135281 3.95993896829195 L -10.298081416873575 3.8664608017466247 L -10.33281250288409 3.772662956088472 L -10.366689271599443 3.6785531865266043 L -10.399708922087214 3.5841392740600315 L -10.431868724281571 3.4894290248342936 L -10.463166019208947 3.394430269496078 L -10.493598219207916 3.299150862545762 L -10.523162808143132 3.203598681688007 L -10.551857341613356 3.1077816271804384 L -10.579679447153573 3.0117076211804257 L -10.60662682443113 2.9153846070901146 L -10.632697245435946 2.818820548899641 L -10.657888554664703 2.722023430528682 L -10.682198669299089 2.6250012551663233 L -10.705625579377983 2.5277620446093843 L -10.72816734796365 2.4303138385991576 L -10.749822111301883 2.332664694156692 L -10.7705880789761 2.2348226849166184 L -10.790463534055377 2.1367959004596493 L -10.809446833236397 2.0385924456437206 L -10.82753640697933 1.9402204399338576 L -10.844730759637592 1.8416880167309155 L -10.861028469581512 1.7430033226990385 L -10.876428189315865 1.6441745170921522 L -10.890928645591295 1.5452097710793133 L -10.90452863950957 1.4461172670691504 L -10.917227046622727 1.3469051980333226 L -10.929022817026027 1.24758176682913 L -10.939914975444761 1.148155185521305 L -10.949902621314896 1.0486336747030196 L -10.958984928857529 0.9490254628162359 L -10.967161147147152 0.8493387854713582 L -10.974430600173758 0.7495818847663227 L -10.98079268689872 0.6497630086051206 L -10.986246881304487 0.5498904100158908 L -10.990792732438075 0.44997234646853923 L -10.994429864448355 0.3500170791920163 L -10.99715797661713 0.25003287249128314 L -10.998976843383987 0.15002799306399844 L -10.999886314364963 0.05001070931706239 L -10.999886314364963 -0.050010709317059705 L -10.998976843383987 -0.15002799306399087 L -10.99715797661713 -0.2500328724912804 L -10.994429864448355 -0.3500170791920185 L -10.990792732438075 -0.44997234646853645 L -10.986246881304487 -0.5498904100158881 L -10.980792686898722 -0.649763008605113 L -10.974430600173758 -0.74958188476632 L -10.967161147147152 -0.8493387854713603 L -10.958984928857529 -0.9490254628162331 L -10.949902621314898 -1.048633674703017 L -10.939914975444761 -1.1481551855212973 L -10.929022817026027 -1.2475817668291274 L -10.917227046622727 -1.3469051980333249 L -10.904528639509572 -1.4461172670691478 L -10.890928645591295 -1.5452097710793107 L -10.876428189315867 -1.6441745170921447 L -10.861028469581512 -1.7430033226990358 L -10.844730759637592 -1.8416880167309178 L -10.82753640697933 -1.9402204399338552 L -10.809446833236397 -2.038592445643718 L -10.790463534055377 -2.1367959004596466 L -10.7705880789761 -2.2348226849166153 L -10.749822111301883 -2.3326646941566898 L -10.728167347963652 -2.430313838599155 L -10.705625579377983 -2.5277620446093816 L -10.68219866929909 -2.6250012551663158 L -10.657888554664703 -2.72202343052868 L -10.632697245435944 -2.8188205488996436 L -10.606626824431132 -2.915384607090112 L -10.579679447153573 -3.011707621180423 L -10.55185734161336 -3.107781627180431 L -10.523162808143134 -3.2035986816880047 L -10.493598219207916 -3.2991508625457637 L -10.463166019208947 -3.394430269496076 L -10.431868724281571 -3.4894290248342914 L -10.399708922087218 -3.5841392740600244 L -10.366689271599443 -3.6785531865266012 L -10.33281250288409 -3.7726629560884746 L -10.298081416873575 -3.8664608017466215 L -10.262498885135283 -3.9599389682919472 L -10.226067849634173 -4.053089726946385 L -10.188791322489518 -4.145905376002 L -10.150672385725874 -4.238378241457715 L -10.111714191018253 -4.330500677653808 L -10.071919959431533 -4.422265067904084 L -10.03129298115417 -4.513663825125558 L -9.989836615226121 -4.6046893924658505 L -9.947554289261163 -4.695334243927885 L -9.90444949916347 -4.785590884992208 L -9.860525808838572 -4.875451853236624 L -9.81578684989871 -4.96490971895316 L -9.770236321362555 -5.053957085762393 L -9.723877989349377 -5.142586591224956 L -9.67671568676768 -5.230790907450257 L -9.628753312998269 -5.318562741702393 L -9.579994833571865 -5.405894837003062 L -9.530444279841232 -5.492779972731616 L -9.480105748647867 -5.579210965222023 L -9.42898340198328 -5.66518066835682 L -9.377081466644844 -5.7506819741580015 L -9.324404233886384 -5.8357078133746265 L -9.270956059063318 -5.92025115606738 L -9.216741361272591 -6.004305012189758 L -9.161764622987297 -6.087862432166027 L -9.106030389686047 -6.170916507465823 L -9.049543269477194 -6.253460371175308 L -8.992307932717775 -6.335487198564999 L -8.934329111627424 -6.416990207653954 L -8.875611599897072 -6.497962659770563 L -8.816160252292619 -6.578397860109691 L -8.755979984253543 -6.658289158286184 L -8.695075771486483 -6.737629948884753 L -8.633452649553856 -6.816413672006087 L -8.571115713457525 -6.894633813809221 L -8.508070117217516 -6.972283907050137 L -8.44432107344591 -7.049357531616432 L -8.379873852915846 -7.125848315058168 L -8.314733784125746 -7.201749933114725 L -8.248906252858765 -7.277056110237681 L -8.182396701737446 -7.351760620109729 L -8.11521062977379 -7.425857286159389 L -8.047353591914545 -7.499339982071762 L -7.978831198581948 -7.572202632295002 L -7.909649115209855 -7.644439212542667 L -7.8398130617753035 -7.716043750291812 L -7.7693288123256234 -7.787010325276762 L -7.698202194500976 -7.857333069978664 L -7.626439089052599 -7.92700617011054 L -7.554045429356531 -7.996023865098059 L -7.481027200923053 -8.06438044855582 L -7.4073904409018265 -8.132070268759133 L -7.333141237582707 -8.199087729111328 L -7.258285729892401 -8.26542728860646 L -7.182830106886881 -8.331083462287447 L -7.106780607239646 -8.396050821699598 L -7.0301435187259775 -8.46032399533937 L -6.952925177702989 -8.523897669098561 L -6.875131968585803 -8.586766586703606 L -6.796770323319633 -8.648925550150235 L -6.717846720848012 -8.710369420133203 L -6.638367686577137 -8.771093116471203 L -6.558339791836298 -8.831091618526932 L -6.477769653334613 -8.890359965622155 L -6.396663932613915 -8.948893257447889 L -6.31502933549799 -9.006686654469545 L -6.232872611538168 -9.06373537832705 L -6.150200553455217 -9.120034712229945 L -6.067019996577755 -9.175580001347363 L -5.983337818277114 -9.230366653192865 L -5.899160937398679 -9.284390138004195 L -5.814496313689885 -9.337645989117746 L -5.729350947224745 -9.390129803337913 L -5.643731877825091 -9.441837241301126 L -5.5576461844785605 -9.492764027834617 L -5.471100984753242 -9.542905952309921 L -5.384103434209267 -9.592258868990973 L -5.29666072580709 -9.640818697376936 L -5.208780089312883 -9.688581422539507 L -5.120468790700721 -9.735543095454917 L -5.0317341315518185 -9.781699833330425 L -4.942583448450863 -9.82704781992535 L -4.85302411237941 -9.871583305866594 L -4.763063528106471 -9.915302608958635 L -4.672709133576276 -9.958202114487978 L -4.581968399293279 -10.000278275522025 L -4.490848827704533 -10.041527613202327 L -4.399357952579356 -10.08194671703222 L -4.30750333838648 -10.1215322451588 L -4.215292579668592 -10.160280924649225 L -4.122733300414403 -10.198189551761342 L -4.029833153428323 -10.235254992208546 L -3.9365998196977117 -10.271474181418943 L -3.8430410077578427 -10.306844124788713 L -3.749164453054516 -10.341361897929714 L -3.6549779173045116 -10.375024646911273 L -3.5604891878538822 -10.407829588496133 L -3.4657060770340293 -10.439774010370598 L -3.370636421515852 -10.470855271368753 L -3.2752880816617482 -10.501070801690869 L -3.179668940875746 -10.530418103115855 L -3.0837869049517317 -10.558894749207807 L -2.9876499014197337 -10.58649838551665 L -2.8912658788905476 -10.613226729772773 L -2.794642806398482 -10.639077572075749 L -2.6977886727425027 -10.664048775077045 L -2.6007114858257494 -10.688138274156731 L -2.5034192719933857 -10.711344077594187 L -2.4059200753690066 -10.733664266732792 L -2.308221957189581 -10.755096996138525 L -2.2103329951388804 -10.775640493752581 L -2.1122612826796923 -10.795293061037867 L -2.014014928384586 -10.81405307311944 L -1.915602055265523 -10.831918978918857 L -1.8170308001022768 -10.848889301282398 L -1.7183093127696143 -10.86496263710323 L -1.6194457555635429 -10.880137657437393 L -1.5204483025263822 -10.894413107613675 L -1.4213251387709642 -10.907787807337366 L -1.3220844598039168 -10.920260650787828 L -1.2227344708479995 -10.931830606709934 L -1.1232833861637361 -10.942496718499326 L -1.023739428370239 -10.952258104281517 L -0.9241108277653913 -10.961113956984791 L -0.8244058216453471 -10.969063544406936 L -0.7246326536234522 -10.976106209275795 L -0.6247995729486893 -10.982241369303587 L -0.5249148338236124 -10.987468517235074 L -0.4249866947219174 -10.991787220889483 L -0.32502341770561155 -10.995197123196244 L -0.22503326774188676 -10.997697942224518 L -0.1250245120198008 -10.999289471206502 L -0.025005419266726493 -10.999971578554524 L 0.07501574093527777 -10.999744207871924 L 0.17503069883320704 -10.998607377957718 L 0.27503118518692177 -10.996561182805044 L 0.3750089319527315 -10.993605791593387 L 0.47495567296706537 -10.989741448674595 L 0.5748631446299288 -10.984968473552675 L 0.674723086588109 -10.979287260857372 L 0.77452724241816 -10.972698280311553 L 0.8742673603090158 -10.965202076692353 L 0.9739351937442692 -10.95679926978615 L 1.0735225021840138 -10.947490554337309 L 1.173021051746143 -10.937276699990742 L 1.272422615887147 -10.926158551228282 L 1.3717189760822543 -10.914137027298853 L 1.4709019225049496 -10.901213122142472 L 1.569963254705831 -10.88738790430806 L 1.6688947822904963 -10.87266251686511 L 1.7676883255968412 -10.857038177309162 L 1.8663357163712697 -10.840516177461152 L 1.9648287984441084 -10.8230978833606 L 2.063159428403935 -10.80478473515266 L 2.1613194762708443 -10.785578246969067 L 2.259300826168701 -10.765480006802921 L 2.357095376996088 -10.74449167637742 L 2.454695043096169 -10.722614991008449 L 2.5520917549251845 -10.699851759461104 L 2.6492774597196127 -10.676203863800167 L 2.746244122162038 -10.65167325923446 L 2.842983725045437 -10.626261973955224 L 2.939488269936105 -10.599972108968402 L 3.035749777834943 -10.572805837920939 L 3.131760289837129 -10.54476540692107 L 3.2275118677902186 -10.515853134352595 L 3.3229965949504443 -10.48607141068321 L 3.418206576637242 -10.455422698266862 L 3.513133940886051 -10.423909531140149 L 3.6077708390990946 -10.391534514812825 L 3.702109446694362 -10.358300326052357 L 3.7961419637525244 -10.324209712662618 L 3.8898606156618007 -10.289265493256709 L 3.983257653760826 -10.25347055702389 L 4.076325355979233 -10.21682786349074 L 4.16905602747622 -10.179340442276414 L 4.261442001276641 -10.141011392842202 L 4.3534756389049765 -10.10184388423524 L 4.445149331016894 -10.061841154826489 L 4.536455498028358 -10.021006512043003 L 4.627386590742332 -9.979343332094455 L 4.717935090972913 -9.936855059694008 L 4.808093512166964 -9.893545207773498 L 4.8978544000231095 -9.849417357192976 L 4.987210333108036 -9.804475156444655 L 5.076153923470114 -9.758722321351241 L 5.164677817250209 -9.712162634758728 L 5.252774695289701 -9.664799946223624 L 5.340437273735702 -9.616638171694637 L 5.427658304643168 -9.567681293188965 L 5.514430576574263 -9.517933358463004 L 5.6007469151945255 -9.467398480677732 L 5.686600183866101 -9.416080838058583 L 5.771983284237775 -9.363984673550021 L 5.856889156831837 -9.311114294464742 L 5.941310781627822 -9.257474072127504 L 6.025241178642854 -9.203068441513759 L 6.108673408508814 -9.14790190088292 L 6.191600573046056 -9.091979011406467 L 6.274015815833735 -9.035304396790854 L 6.3559123227767405 -8.977882742895163 L 6.43728332266903 -8.919718797343736 L 6.518122087753525 -8.860817369133597 L 6.59842193427834 -8.801183328236862 L 6.6781762230493715 -8.740821605198107 L 6.757378359979273 -8.679737190726676 L 6.836021796632631 -8.617935135284066 L 6.914100030767366 -8.555420548666365 L 6.991606606872395 -8.492198599581751 L 7.068535116701311 -8.42827451522317 L 7.144879199802264 -8.363653580836125 L 7.220632544043835 -8.298341139281698 L 7.295788886136882 -8.232342590594827 L 7.370342012152458 -8.165663391537791 L 7.4442857580355035 -8.098309055149091 L 7.517614010114579 -8.030285150287567 L 7.590320705607251 -7.961597301172035 L 7.662399833121417 -7.892251186916245 L 7.733845433152325 -7.822252541059315 L 7.804651598575295 -7.751607151091708 L 7.874812475134126 -7.680320857976699 L 7.94432226192511 -7.6083995556674795 L 8.013175211876666 -7.5358491906198175 L 8.081365632224514 -7.462675761300399 L 8.148887884982344 -7.388885317690889 L 8.215736387407965 -7.3144839607877135 L 8.281905612464882 -7.239477842097639 L 8.34739008927927 -7.163873163129162 L 8.412184403592326 -7.087676174879749 L 8.476283198207902 -7.010893177319023 L 8.539681173435449 -6.933530518867871 L 8.602373087528175 -6.855594595873576 L 8.664353757116443 -6.777091852080964 L 8.72561805763637 -6.6980287780995775 L 8.786160923753453 -6.618411910867129 L 8.845977349781439 -6.53824783310894 L 8.905062390096143 -6.457543172793751 L 8.963411159544393 -6.376304602585657 L 9.021018833847918 -6.294538839292449 L 9.077880650002207 -6.2122526433102765 L 9.133991906670339 -6.129452818064657 L 9.189347964571663 -6.046146209448019 L 9.243944246865402 -5.962339705253639 L 9.297776239529053 -5.878040234606173 L 9.35083949173159 -5.793254767388788 L 9.40312961620149 -5.707990313666836 L 9.454642289589458 -5.622253923108294 L 9.505373252825867 -5.536052684400916 L 9.55531831147293 -5.449393724666082 L 9.604473336071464 -5.362284208869598 L 9.652834262482338 -5.274731339229235 L 9.700397092222488 -5.186742354619274 L 9.747157892795496 -5.098324529972024 L 9.793112798016761 -5.00948517567627 L 9.838258008333124 -4.920231636972912 L 9.882589791137038 -4.830571293347611 L 9.926104481075168 -4.74051155792067 L 9.96879848035144 -4.650059876834147 L 10.010668259024522 -4.559223728636155 L 10.051710355299662 -4.468010623662568 L 10.091921375814923 -4.376428103416052 L 10.131297995921738 -4.284483739942559 L 10.169836959959788 -4.192185135205249 L 10.2075350815262 -4.099539920455946 L 10.244389243738974 -4.00655575560421 L 10.28039639949471 -3.9132403285839983 L 10.315553571720521 -3.819601354718054 L 10.349857853620188 -3.725646576079985 L 10.3833064089145 -3.63138376085413 L 10.415896472075747 -3.536820702693311 L 10.447625348556384 -3.4419652200744415 L 10.478490415011803 -3.3468251556521125 L 10.508489119517234 -3.251408375610161 L 10.537618981778765 -3.155722769011224 L 10.565877593338367 -3.059776247144593 L 10.593262617773064 -2.9635767428719957 L 10.619771790888082 -2.867132209971793 L 10.645402920904075 -2.770450622481291 L 10.67015388863833 -2.6735399740374786 L 10.694022647679972 -2.5764082772161405 L 10.717007224559183 -2.4790635628693103 L 10.739105718910347 -2.3815138794613566 L 10.760316303629189 -2.283767292403469 L 10.780637225023831 -2.1858318833868373 L 10.800066802959789 -2.087715749714485 L 10.818603430998888 -1.9894270036317285 L 10.836245576532079 -1.890973771655485 L 10.852991780906157 -1.792364193902399 L 10.86884065954437 -1.6936064234157509 L 10.88379090206088 -1.5947086254914398 L 10.89784127236912 -1.4956789770028094 L 10.91099060878399 -1.396525665724613 L 10.923237824117894 -1.297256889656076 L 10.934581905770651 -1.1978808563430188 L 10.945021915813191 -1.0984057821993318 L 10.954556991065129 -0.9988398918275772 L 10.96318634316611 -0.8991914173390051 L 10.970909258641 -0.7994685976729526 L 10.977725098958889 -0.6996796779155798 L 10.983633300585858 -0.5998329086182537 L 10.988633375031592 -0.4999365451152742 L 10.992724908889766 -0.399998846841451 L 10.995907563872215 -0.3000280766491441 L 10.99818107683692 -0.2000325001250814 L 10.999545259809747 -0.1000203849069889 L 11.0 -2.6942229581241772e-15 " stroke="#191919" stroke-width="0.35 px" style="stroke-width:0.35;stroke-miterlimit:4;stroke-dasharray:none;fill:none;fill-rule: evenodd "/>
<path id="Shape2DView_nwe0015"  d="M 2.0 -109.0 M 2.0 -109.0 L 1.997473913212035 -108.89951136364046 L 1.9899020339626003 -108.79927657029756 L 1.9773034894758281 -108.69954882175848 L 1.9597101047684937 -108.60058003897119 L 1.9371663222572622 -108.50262022567028 L 1.909729089493286 -108.40591683684593 L 1.8774677153077481 -108.31071415365096 L 1.8404636947317408 -108.21725266632559 L 1.7988105031327422 -108.12576846669813 L 1.7526133600877272 -108.03649265179656 L 1.701988963589384 -107.9496507400774 L 1.647065195256855 -107.86546210174649 L 1.5879807972956708 -107.78413940461078 L 1.5248850220228958 -107.70588807686111 L 1.457937254842823 -107.63090578814263 L 1.3873066116256099 -107.55938195022419 L 1.3131715115059128 -107.4914972385278 L 1.2357192261806689 -107.42742313572677 L 1.1551454068445353 -107.36732149856563 L 1.071653589957993 -107.31134414899597 L 0.9854546830965831 -107.25963249066095 L 0.8967664321800649 -107.21231715169748 L 0.8058128714273254 -107.16951765475817 L 0.7128237574265015 -107.13134211508678 L 0.6180339887498949 -107.09788696740969 L 0.521683012579794 -107.06923672233346 L 0.4240142198441095 -107.04546375286361 L 0.32527433038976744 -107.02662811158426 L 0.2257127697469632 -107.01277737895998 L 0.12558103905862705 -107.00394654314346 L 0.02513207976670555 -107.00015791159237 L -0.07538036533986915 -107.00142105471882 L -0.1757023931014864 -107.00773278171366 L -0.2755805813692761 -107.0190771486067 L -0.37476262917144965 -107.03542549854262 L -0.47299799404744886 -107.05673653417065 L -0.5700385249399521 -107.08295642196525 L -0.6656390890459731 -107.11401892821426 L -0.759558191043602 -107.14984558633108 L -0.8515585831301454 -107.19034589506796 L -0.9414078643306653 -107.2354175471301 L -1.028879067563013 -107.2849466876127 L -1.1137512329763752 -107.33880820160837 L -1.195809966115037 -107.39686603025825 L -1.2748479794973795 -107.45897351444842 L -1.350665616242049 -107.52497376528365 L -1.4230713544185707 -107.5947000604023 L -1.4918822908483642 -107.6679762651315 L -1.5569246031340467 -107.7446172774186 L -1.6180339887498947 -107.82442949541506 L -1.6750560800842833 -107.90721130653147 L -1.7278468343856705 -107.99275359672848 L -1.776272897627089 -108.08084027875702 L -1.8202119413699913 -108.17124883801343 L -1.8595529717765027 -108.26375089463065 L -1.8941966099894885 -108.35811278038558 L -1.9240553431721719 -108.45409612896535 L -1.9490537455731545 -108.55145847810124 L -1.9691286690584107 -108.64995388204945 L -1.9842294026289555 -108.74933353287139 L -1.9943178005212279 -108.84934638894413 L -1.9993683785665999 -108.94973980911332 L -1.9993683785665999 -109.05026019088668 L -1.9943178005212279 -109.15065361105586 L -1.9842294026289558 -109.25066646712861 L -1.9691286690584107 -109.35004611795055 L -1.9490537455731543 -109.44854152189876 L -1.9240553431721719 -109.54590387103465 L -1.8941966099894887 -109.64188721961442 L -1.8595529717765025 -109.73624910536935 L -1.8202119413699918 -109.82875116198657 L -1.7762728976270896 -109.91915972124298 L -1.7278468343856712 -110.00724640327152 L -1.6750560800842835 -110.09278869346853 L -1.6180339887498951 -110.17557050458494 L -1.5569246031340471 -110.2553827225814 L -1.4918822908483644 -110.3320237348685 L -1.423071354418571 -110.4052999395977 L -1.3506656162420492 -110.47502623471635 L -1.274847979497379 -110.54102648555158 L -1.195809966115038 -110.60313396974175 L -1.1137512329763757 -110.66119179839163 L -1.0288790675630135 -110.7150533123873 L -0.9414078643306649 -110.7645824528699 L -0.8515585831301443 -110.80965410493204 L -0.7595581910436037 -110.85015441366892 L -0.665639089045974 -110.88598107178572 L -0.5700385249399539 -110.91704357803475 L -0.4729979940474502 -110.94326346582935 L -0.37476262917144926 -110.96457450145738 L -0.27558058136927704 -110.9809228513933 L -0.17570239310148641 -110.99226721828634 L -0.07538036533987008 -110.99857894528118 L 0.025132079766705062 -110.99984208840763 L 0.12558103905862567 -110.99605345685654 L 0.22571276974696314 -110.98722262104002 L 0.32527433038976783 -110.97337188841574 L 0.424014219844109 -110.95453624713639 L 0.5216830125797944 -110.93076327766654 L 0.6180339887498945 -110.90211303259031 L 0.7128237574265018 -110.86865788491322 L 0.8058128714273249 -110.83048234524183 L 0.8967664321800632 -110.78768284830252 L 0.9854546830965827 -110.74036750933905 L 1.071653589957992 -110.68865585100403 L 1.1551454068445346 -110.63267850143437 L 1.2357192261806689 -110.57257686427323 L 1.3131715115059124 -110.50850276147222 L 1.38730661162561 -110.44061804977581 L 1.4579372548428224 -110.36909421185737 L 1.5248850220228958 -110.29411192313889 L 1.58798079729567 -110.21586059538922 L 1.647065195256855 -110.13453789825351 L 1.7019889635893841 -110.0503492599226 L 1.7526133600877272 -109.96350734820344 L 1.7988105031327424 -109.87423153330187 L 1.8404636947317405 -109.78274733367441 L 1.8774677153077477 -109.68928584634904 L 1.909729089493286 -109.59408316315407 L 1.937166322257262 -109.49737977432972 L 1.9597101047684937 -109.39941996102881 L 1.977303489475828 -109.30045117824152 L 1.9899020339626003 -109.20072342970244 L 1.997473913212035 -109.10048863635954 L 2.0 -109.0 " stroke="#191919" stroke-width="0.35 px" style="stroke-width:0.35;stroke-miterlimit:4;stroke-dasharray:none;fill:none;fill-rule: evenodd "/>
<path id="Shape2DView_nwe0016"  d="M 2.0 -59.0 M 2.0 -59.0 L 1.997473913212035 -58.899511363640464 L 1.9899020339626003 -58.79927657029757 L 1.9773034894758281 -58.69954882175848 L 1.9597101047684937 -58.60058003897119 L 1.9371663222572622 -58.50262022567029 L 1.909729089493286 -58.40591683684593 L 1.8774677153077481 -58.31071415365096 L 1.8404636947317408 -58.21725266632559 L 1.7988105031327422 -58.12576846669813 L 1.7526133600877272 -58.03649265179657 L 1.701988963589384 -57.94965074007741 L 1.647065195256855 -57.86546210174649 L 1.5879807972956708 -57.78413940461079 L 1.5248850220228958 -57.705888076861115 L 1.457937254842823 -57.63090578814262 L 1.3873066116256099 -57.559381950224186 L 1.3131715115059128 -57.49149723852779 L 1.2357192261806689 -57.42742313572676 L 1.1551454068445353 -57.36732149856563 L 1.071653589957993 -57.31134414899597 L 0.9854546830965831 -57.25963249066095 L 0.8967664321800649 -57.21231715169747 L 0.8058128714273254 -57.16951765475817 L 0.7128237574265015 -57.131342115086774 L 0.6180339887498949 -57.09788696740969 L 0.521683012579794 -57.06923672233345 L 0.4240142198441095 -57.04546375286361 L 0.32527433038976744 -57.026628111584266 L 0.2257127697469632 -57.01277737895998 L 0.12558103905862705 -57.003946543143456 L 0.02513207976670555 -57.00015791159237 L -0.07538036533986915 -57.00142105471882 L -0.1757023931014864 -57.007732781713656 L -0.2755805813692761 -57.0190771486067 L -0.37476262917144965 -57.03542549854262 L -0.47299799404744886 -57.05673653417065 L -0.5700385249399521 -57.08295642196525 L -0.6656390890459731 -57.11401892821427 L -0.759558191043602 -57.14984558633108 L -0.8515585831301454 -57.19034589506796 L -0.9414078643306653 -57.23541754713009 L -1.028879067563013 -57.284946687612695 L -1.1137512329763752 -57.33880820160837 L -1.195809966115037 -57.396866030258245 L -1.2748479794973795 -57.458973514448424 L -1.350665616242049 -57.524973765283654 L -1.4230713544185707 -57.5947000604023 L -1.4918822908483642 -57.6679762651315 L -1.5569246031340467 -57.7446172774186 L -1.6180339887498947 -57.82442949541505 L -1.6750560800842833 -57.90721130653146 L -1.7278468343856705 -57.99275359672848 L -1.776272897627089 -58.08084027875702 L -1.8202119413699913 -58.17124883801343 L -1.8595529717765027 -58.26375089463065 L -1.8941966099894885 -58.35811278038558 L -1.9240553431721719 -58.45409612896535 L -1.9490537455731545 -58.55145847810124 L -1.9691286690584107 -58.649953882049445 L -1.9842294026289555 -58.74933353287139 L -1.9943178005212279 -58.849346388944134 L -1.9993683785665999 -58.949739809113325 L -1.9993683785665999 -59.050260190886675 L -1.9943178005212279 -59.150653611055866 L -1.9842294026289558 -59.25066646712861 L -1.9691286690584107 -59.350046117950555 L -1.9490537455731543 -59.44854152189876 L -1.9240553431721719 -59.54590387103465 L -1.8941966099894887 -59.64188721961442 L -1.8595529717765025 -59.73624910536935 L -1.8202119413699918 -59.82875116198657 L -1.7762728976270896 -59.91915972124298 L -1.7278468343856712 -60.00724640327152 L -1.6750560800842835 -60.092788693468535 L -1.6180339887498951 -60.17557050458495 L -1.5569246031340471 -60.2553827225814 L -1.4918822908483644 -60.3320237348685 L -1.423071354418571 -60.4052999395977 L -1.3506656162420492 -60.475026234716346 L -1.274847979497379 -60.541026485551576 L -1.195809966115038 -60.603133969741755 L -1.1137512329763757 -60.66119179839163 L -1.0288790675630135 -60.715053312387305 L -0.9414078643306649 -60.76458245286991 L -0.8515585831301443 -60.80965410493204 L -0.7595581910436037 -60.85015441366892 L -0.665639089045974 -60.88598107178573 L -0.5700385249399539 -60.91704357803475 L -0.4729979940474502 -60.94326346582935 L -0.37476262917144926 -60.96457450145738 L -0.27558058136927704 -60.9809228513933 L -0.17570239310148641 -60.992267218286344 L -0.07538036533987008 -60.99857894528118 L 0.025132079766705062 -60.99984208840763 L 0.12558103905862567 -60.996053456856544 L 0.22571276974696314 -60.98722262104002 L 0.32527433038976783 -60.973371888415734 L 0.424014219844109 -60.95453624713639 L 0.5216830125797944 -60.93076327766655 L 0.6180339887498945 -60.90211303259031 L 0.7128237574265018 -60.868657884913226 L 0.8058128714273249 -60.83048234524183 L 0.8967664321800632 -60.78768284830253 L 0.9854546830965827 -60.74036750933905 L 1.071653589957992 -60.68865585100403 L 1.1551454068445346 -60.63267850143437 L 1.2357192261806689 -60.57257686427324 L 1.3131715115059124 -60.50850276147221 L 1.38730661162561 -60.440618049775814 L 1.4579372548428224 -60.36909421185738 L 1.5248850220228958 -60.294111923138885 L 1.58798079729567 -60.21586059538921 L 1.647065195256855 -60.13453789825351 L 1.7019889635893841 -60.05034925992259 L 1.7526133600877272 -59.96350734820343 L 1.7988105031327424 -59.87423153330187 L 1.8404636947317405 -59.78274733367441 L 1.8774677153077477 -59.68928584634904 L 1.909729089493286 -59.59408316315407 L 1.937166322257262 -59.49737977432971 L 1.9597101047684937 -59.39941996102881 L 1.977303489475828 -59.30045117824152 L 1.9899020339626003 -59.20072342970243 L 1.997473913212035 -59.10048863635954 L 2.0 -59.0 " stroke="#191919" stroke-width="0.35 px" style="stroke-width:0.35;stroke-miterlimit:4;stroke-dasharray:none;fill:none;fill-rule: evenodd "/>
<title>b'Shape2DView'</title>
</g>
</svg>